<svg width="963" height="104" viewBox="0 0 963 104" fill="none" xmlns="http://www.w3.org/2000/svg">
<path d="M67.5874 41.756C70.0274 42.244 73.3621 44.196 77.5915 47.612C81.2514 50.6213 84.1388 53.4273 86.2534 56.03V13.33C86.2534 7.96199 85.3588 4.54599 83.5694 3.08199C77.5508 4.95266 73.9314 7.43333 72.7114 10.524C69.9461 17.2747 68.2381 27.6853 67.5874 41.756ZM123.829 75.55H128.465C124.968 76.282 121.145 76.648 116.997 76.648H113.337C110.247 76.648 107.319 76.3227 104.553 75.672V102.634H86.2534V68.352C85.2774 67.864 82.1461 65.18 76.8594 60.3C71.9794 55.7453 68.3194 53.102 65.8795 52.37C65.3914 58.5513 64.8221 65.8307 64.1715 74.208C63.9274 78.844 62.5041 84.2933 59.9014 90.556C56.5668 98.608 52.8661 102.634 48.7994 102.634H40.2594C37.7381 102.634 34.2814 101.007 29.8894 97.754C25.5788 94.4193 22.3661 92.752 20.2514 92.752C18.2181 92.752 15.2901 94.1753 11.4674 97.022C7.15678 100.194 3.49678 102.105 0.487445 102.756C3.00878 101.373 5.85545 99.34 9.02745 96.656C12.2808 93.8907 15.2088 91.776 17.8114 90.312L26.3514 85.432C26.8394 85.188 27.4088 85.066 28.0594 85.066C30.1741 85.066 33.4681 86.9367 37.9414 90.678C43.2281 95.2327 46.2374 97.6727 46.9694 97.998C50.7108 93.362 53.5981 85.2693 55.6314 73.72C56.5261 68.84 57.2174 59.812 57.7054 46.636C55.5094 44.7653 51.9308 42.8133 46.9694 40.78C41.5201 38.584 36.5181 37.242 31.9634 36.754C36.0301 34.4767 39.7714 33.338 43.1874 33.338C44.1634 33.338 45.0988 33.46 45.9934 33.704C48.5148 33.8667 51.3614 34.558 54.5334 35.778C56.1601 36.51 57.8274 37.2013 59.5354 37.852C60.5114 22.48 61.6501 13.208 62.9515 10.036C64.4968 6.21333 66.9775 3.692 70.3935 2.47199C72.6708 1.65866 76.2494 1.25199 81.1295 1.25199H97.7214C102.276 1.25199 104.553 5.11533 104.553 12.842V67.376C114.069 72.1747 120.495 74.8993 123.829 75.55ZM140.273 79.82C139.215 80.9587 138.199 83.6833 137.223 87.994V102.268H131.123V80.186C132.017 76.2007 132.912 73.8013 133.807 72.988C134.945 71.8493 137.507 71.28 141.493 71.28H165.893C166.218 71.28 164.713 71.8087 161.379 72.866C157.556 74.086 155.319 74.94 154.669 75.428C153.693 77.38 153.205 79.2913 153.205 81.162C153.205 86.3673 156.702 90.7593 163.697 94.338C169.959 97.5913 175.897 98.9333 181.509 98.364C185.657 96.656 188.829 93.8093 191.025 89.824C192.895 86.2453 193.831 82.2193 193.831 77.746C193.831 74.1673 193.505 71.6053 192.855 70.06C192.529 69.1653 191.716 68.108 190.415 66.888C189.113 65.668 188.056 64.204 187.243 62.496C183.176 60.6253 175.815 57.86 165.161 54.2C155.319 50.784 148.487 48.1407 144.665 46.27C138.727 43.2607 135.759 40.2513 135.759 37.242C135.759 36.4287 135.962 35.6153 136.369 34.802L136.247 34.436C135.921 33.8667 135.759 33.216 135.759 32.484C135.759 29.2307 138.28 25.164 143.323 20.284C147.633 16.136 151.578 13.2487 155.157 11.622C158.735 9.914 163.981 8.12466 170.895 6.25399C179.435 3.97666 186.429 2.838 191.879 2.838C197.409 2.838 200.744 4.058 201.883 6.498C202.289 7.31133 202.533 8.938 202.615 11.378C202.615 13.086 202.574 15.3633 202.493 18.21C202.411 21.4633 202.371 23.09 202.371 23.09L179.435 23.212C179.435 23.8627 179.557 22.3987 179.801 18.82C179.882 17.2747 179.679 16.014 179.191 15.038C178.052 12.6793 174.555 11.5 168.699 11.5C165.608 11.5 162.965 11.988 160.769 12.964C158.898 13.696 157.231 15.4447 155.767 18.21C154.384 20.894 153.693 23.7407 153.693 26.75C153.693 33.094 156.58 37.1607 162.355 38.95C167.235 40.2513 172.155 41.5527 177.117 42.854C184.193 44.8873 190.008 47.4087 194.563 50.418C200.825 54.566 205.461 59.8527 208.471 66.278L208.715 66.644C209.691 68.7587 210.179 70.914 210.179 73.11C210.179 79.5353 206.031 85.798 197.735 91.898C191.309 96.6153 184.599 99.9907 177.605 102.024C175.653 102.593 173.375 102.878 170.773 102.878C162.07 102.878 154.14 100.682 146.983 96.29C139.093 91.41 136.857 85.92 140.273 79.82ZM225.802 28.458C225.802 15.77 225.152 8.084 223.85 5.4C222.793 7.352 221.736 10.4833 220.678 14.794C219.621 19.0233 219.092 22.48 219.092 25.164V103H212.992V25.408C212.992 18.82 213.928 13.33 215.798 8.938C218.32 3.08199 222.142 0.153993 227.266 0.153993H233.366C240.605 0.153993 244.224 6.78266 244.224 20.04C244.224 21.0973 244.224 22.5207 244.224 24.31C244.143 26.0993 244.102 27.3193 244.102 27.97V89.824C244.509 92.5893 245.648 95.192 247.518 97.632C248.738 99.1773 252.317 100.519 258.254 101.658C263.541 101.739 267.364 100.763 269.722 98.73C271.674 96.9407 273.098 93.8907 273.992 89.58V65.546C273.992 57.4127 269.682 52.492 261.06 50.784H253.862C253.13 50.784 252.398 50.418 251.666 49.686C252.317 49.686 252.764 49.686 253.008 49.686H262.646C266.55 48.7913 269.194 47.2867 270.576 45.172C272.04 43.0573 272.772 39.56 272.772 34.68V17.478C272.772 12.0287 271.918 8.45 270.21 6.742C269.234 5.76599 266.794 4.91199 262.89 4.17999C262.728 4.34266 262.606 4.46466 262.524 4.54599H243.736C245.688 2.43133 247.925 1.37399 250.446 1.37399H267.526C275.09 1.37399 280.458 2.14666 283.63 3.692C288.104 5.80666 290.544 9.99533 290.95 16.258V34.924C290.95 40.2107 290.096 43.9113 288.388 46.026C286.762 48.1407 283.712 49.564 279.238 50.296C287.86 51.9227 292.17 56.5993 292.17 64.326V92.508C290.788 96.3307 288.47 98.974 285.216 100.438C281.719 102.065 276.229 102.878 268.746 102.878H248.006C237.921 102.878 231.658 101.292 229.218 98.12C227.348 95.68 226.209 93.3213 225.802 91.044V28.458ZM348.385 59.324V92.752C348.385 96.2493 348.059 98.6487 347.409 99.95C346.27 101.821 343.993 102.756 340.577 102.756C337.567 102.756 334.883 102.797 332.525 102.878C330.166 102.959 327.441 103 324.351 103C321.179 103 319.267 102.227 318.617 100.682C318.129 99.5433 317.885 98.0387 317.885 96.168V14.184C317.885 10.28 317.519 7.596 316.787 6.132C316.705 6.45733 316.665 6.78266 316.665 7.108H298.365V6.62C298.365 3.204 301.659 1.496 308.247 1.496H315.567C319.308 1.496 321.545 2.594 322.277 4.78999C322.602 5.68466 322.765 8.65333 322.765 13.696V96.168C322.765 98.9333 323.334 100.682 324.473 101.414C328.458 99.706 330.451 96.8187 330.451 92.752V12.72C330.451 8.328 331.955 5.31866 334.965 3.692C337.161 2.55333 340.577 1.98399 345.213 1.98399H363.513C371.158 1.98399 376.485 5.56266 379.495 12.72C381.528 17.6813 382.545 25.042 382.545 34.802C382.545 46.5953 379.332 53.712 372.907 56.152C371.524 56.7213 369.897 57.0467 368.027 57.128C366.481 57.128 364.936 57.1687 363.391 57.25C366.969 57.9007 370.304 60.1373 373.395 63.96C376.485 67.7827 378.763 72.6627 380.227 78.6C380.633 80.2267 380.918 83.1547 381.081 87.384C381.243 91.6133 381.609 94.582 382.179 96.29C382.992 99.1367 384.497 100.967 386.693 101.78H395.843V102.268C395.517 102.349 394.623 102.553 393.159 102.878C392.345 103.122 391.166 103.244 389.621 103.244H373.761C369.369 103.244 366.278 100.438 364.489 94.826C364.082 93.4433 363.228 88.1973 361.927 79.088C360.869 71.9307 356.355 65.3427 348.385 59.324ZM348.385 56.64C351.069 56.5587 353.143 56.2333 354.607 55.664C361.032 53.224 364.245 46.1887 364.245 34.558C364.245 26.5873 363.716 20.4467 362.659 16.136C361.032 9.62933 357.941 5.52199 353.387 3.814C350.052 5.034 348.385 8.00266 348.385 12.72V56.64ZM456.105 41.756C458.545 42.244 461.88 44.196 466.109 47.612C469.769 50.6213 472.656 53.4273 474.771 56.03V13.33C474.771 7.96199 473.876 4.54599 472.087 3.08199C466.068 4.95266 462.449 7.43333 461.229 10.524C458.464 17.2747 456.756 27.6853 456.105 41.756ZM512.347 75.55H516.983C513.486 76.282 509.663 76.648 505.515 76.648H501.855C498.764 76.648 495.836 76.3227 493.071 75.672V102.634H474.771V68.352C473.795 67.864 470.664 65.18 465.377 60.3C460.497 55.7453 456.837 53.102 454.397 52.37C453.909 58.5513 453.34 65.8307 452.689 74.208C452.445 78.844 451.022 84.2933 448.419 90.556C445.084 98.608 441.384 102.634 437.317 102.634H428.777C426.256 102.634 422.799 101.007 418.407 97.754C414.096 94.4193 410.884 92.752 408.769 92.752C406.736 92.752 403.808 94.1753 399.985 97.022C395.674 100.194 392.014 102.105 389.005 102.756C391.526 101.373 394.373 99.34 397.545 96.656C400.798 93.8907 403.726 91.776 406.329 90.312L414.869 85.432C415.357 85.188 415.926 85.066 416.577 85.066C418.692 85.066 421.986 86.9367 426.459 90.678C431.746 95.2327 434.755 97.6727 435.487 97.998C439.228 93.362 442.116 85.2693 444.149 73.72C445.044 68.84 445.735 59.812 446.223 46.636C444.027 44.7653 440.448 42.8133 435.487 40.78C430.038 38.584 425.036 37.242 420.481 36.754C424.548 34.4767 428.289 33.338 431.705 33.338C432.681 33.338 433.616 33.46 434.511 33.704C437.032 33.8667 439.879 34.558 443.051 35.778C444.678 36.51 446.345 37.2013 448.053 37.852C449.029 22.48 450.168 13.208 451.469 10.036C453.014 6.21333 455.495 3.692 458.911 2.47199C461.188 1.65866 464.767 1.25199 469.647 1.25199H486.239C490.794 1.25199 493.071 5.11533 493.071 12.842V67.376C502.587 72.1747 509.012 74.8993 512.347 75.55ZM591.376 5.27799C593.654 4.78999 594.996 3.936 595.402 2.716H613.824C613.011 5.15599 609.229 6.37599 602.478 6.37599H583.446C577.184 6.37599 571.816 6.17266 567.342 5.76599C562.462 6.66066 557.867 9.99533 553.556 15.77C549.652 20.9753 546.399 27.97 543.796 36.754C541.112 45.8633 539.77 54.6473 539.77 63.106C539.77 75.9567 542.82 85.1473 548.92 90.678C553.068 94.4193 556.525 96.9813 559.29 98.364C562.544 99.9907 566.773 101.048 571.978 101.536C575.638 100.723 578.404 97.5507 580.274 92.02C581.901 87.3027 582.714 81.6093 582.714 74.94C582.714 66.7253 581.698 60.7473 579.664 57.006C579.014 55.786 577.794 54.8913 576.004 54.322H564.17C564.333 52.614 565.594 51.3533 567.952 50.54C570.392 49.6453 574.012 49.198 578.81 49.198H603.942C610.693 49.198 614.475 50.4587 615.288 52.98V102.146V102.634H606.748V54.688C605.854 51.9227 601.502 50.54 593.694 50.54C590.685 50.54 588.164 50.7027 586.13 51.028C585.317 51.1907 584.341 51.8413 583.202 52.98H587.96C593.328 52.98 596.663 54.1593 597.964 56.518C600.079 60.422 601.136 67.1727 601.136 76.77C601.136 93.9313 595.89 102.512 585.398 102.512H567.098C558.477 102.512 551.848 101.861 547.212 100.56C541.275 98.9333 535.744 95.802 530.62 91.166C524.276 85.3913 521.104 75.306 521.104 60.91C521.104 51.9633 522.324 42.976 524.764 33.948C527.204 24.8387 530.295 17.8033 534.036 12.842C538.103 7.31133 542.373 4.05799 546.846 3.08199C549.286 2.51266 552.458 2.228 556.362 2.228C560.998 2.228 567.139 2.63466 574.784 3.44799C580.315 4.09866 585.846 4.70866 591.376 5.27799ZM681.996 41.756C684.436 42.244 687.77 44.196 692 47.612C695.66 50.6213 698.547 53.4273 700.662 56.03V13.33C700.662 7.96199 699.767 4.54599 697.978 3.08199C691.959 4.95266 688.34 7.43333 687.12 10.524C684.354 17.2747 682.646 27.6853 681.996 41.756ZM738.238 75.55H742.874C739.376 76.282 735.554 76.648 731.406 76.648H727.746C724.655 76.648 721.727 76.3227 718.962 75.672V102.634H700.662V68.352C699.686 67.864 696.554 65.18 691.268 60.3C686.388 55.7453 682.728 53.102 680.288 52.37C679.8 58.5513 679.23 65.8307 678.58 74.208C678.336 78.844 676.912 84.2933 674.31 90.556C670.975 98.608 667.274 102.634 663.208 102.634H654.668C652.146 102.634 648.69 101.007 644.298 97.754C639.987 94.4193 636.774 92.752 634.66 92.752C632.626 92.752 629.698 94.1753 625.876 97.022C621.565 100.194 617.905 102.105 614.896 102.756C617.417 101.373 620.264 99.34 623.436 96.656C626.689 93.8907 629.617 91.776 632.22 90.312L640.76 85.432C641.248 85.188 641.817 85.066 642.468 85.066C644.582 85.066 647.876 86.9367 652.35 90.678C657.636 95.2327 660.646 97.6727 661.378 97.998C665.119 93.362 668.006 85.2693 670.04 73.72C670.934 68.84 671.626 59.812 672.114 46.636C669.918 44.7653 666.339 42.8133 661.378 40.78C655.928 38.584 650.926 37.242 646.372 36.754C650.438 34.4767 654.18 33.338 657.596 33.338C658.572 33.338 659.507 33.46 660.402 33.704C662.923 33.8667 665.77 34.558 668.942 35.778C670.568 36.51 672.236 37.2013 673.944 37.852C674.92 22.48 676.058 13.208 677.36 10.036C678.905 6.21333 681.386 3.692 684.802 2.47199C687.079 1.65866 690.658 1.25199 695.538 1.25199H712.13C716.684 1.25199 718.962 5.11533 718.962 12.842V67.376C728.478 72.1747 734.903 74.8993 738.238 75.55ZM794.209 59.324V92.752C794.209 96.2493 793.884 98.6487 793.233 99.95C792.094 101.821 789.817 102.756 786.401 102.756C783.392 102.756 780.708 102.797 778.349 102.878C775.99 102.959 773.266 103 770.175 103C767.003 103 765.092 102.227 764.441 100.682C763.953 99.5433 763.709 98.0387 763.709 96.168V14.184C763.709 10.28 763.343 7.596 762.611 6.132C762.53 6.45733 762.489 6.78266 762.489 7.108H744.189V6.62C744.189 3.204 747.483 1.496 754.071 1.496H761.391C765.132 1.496 767.369 2.594 768.101 4.78999C768.426 5.68466 768.589 8.65333 768.589 13.696V96.168C768.589 98.9333 769.158 100.682 770.297 101.414C774.282 99.706 776.275 96.8187 776.275 92.752V12.72C776.275 8.328 777.78 5.31866 780.789 3.692C782.985 2.55333 786.401 1.98399 791.037 1.98399H809.337C816.982 1.98399 822.31 5.56266 825.319 12.72C827.352 17.6813 828.369 25.042 828.369 34.802C828.369 46.5953 825.156 53.712 818.731 56.152C817.348 56.7213 815.722 57.0467 813.851 57.128C812.306 57.128 810.76 57.1687 809.215 57.25C812.794 57.9007 816.128 60.1373 819.219 63.96C822.31 67.7827 824.587 72.6627 826.051 78.6C826.458 80.2267 826.742 83.1547 826.905 87.384C827.068 91.6133 827.434 94.582 828.003 96.29C828.816 99.1367 830.321 100.967 832.517 101.78H841.667V102.268C841.342 102.349 840.447 102.553 838.983 102.878C838.17 103.122 836.99 103.244 835.445 103.244H819.585C815.193 103.244 812.102 100.438 810.313 94.826C809.906 93.4433 809.052 88.1973 807.751 79.088C806.694 71.9307 802.18 65.3427 794.209 59.324ZM794.209 56.64C796.893 56.5587 798.967 56.2333 800.431 55.664C806.856 53.224 810.069 46.1887 810.069 34.558C810.069 26.5873 809.54 20.4467 808.483 16.136C806.856 9.62933 803.766 5.52199 799.211 3.814C795.876 5.034 794.209 8.00266 794.209 12.72V56.64ZM901.929 41.756C904.369 42.244 907.704 44.196 911.933 47.612C915.593 50.6213 918.481 53.4273 920.595 56.03V13.33C920.595 7.96199 919.701 4.54599 917.911 3.08199C911.893 4.95266 908.273 7.43333 907.053 10.524C904.288 17.2747 902.58 27.6853 901.929 41.756ZM958.171 75.55H962.807C959.31 76.282 955.487 76.648 951.339 76.648H947.679C944.589 76.648 941.661 76.3227 938.895 75.672V102.634H920.595V68.352C919.619 67.864 916.488 65.18 911.201 60.3C906.321 55.7453 902.661 53.102 900.221 52.37C899.733 58.5513 899.164 65.8307 898.513 74.208C898.269 78.844 896.846 84.2933 894.243 90.556C890.909 98.608 887.208 102.634 883.141 102.634H874.601C872.08 102.634 868.623 101.007 864.231 97.754C859.921 94.4193 856.708 92.752 854.593 92.752C852.56 92.752 849.632 94.1753 845.809 97.022C841.499 100.194 837.839 102.105 834.829 102.756C837.351 101.373 840.197 99.34 843.369 96.656C846.623 93.8907 849.551 91.776 852.153 90.312L860.693 85.432C861.181 85.188 861.751 85.066 862.401 85.066C864.516 85.066 867.81 86.9367 872.283 90.678C877.57 95.2327 880.579 97.6727 881.311 97.998C885.053 93.362 887.94 85.2693 889.973 73.72C890.868 68.84 891.559 59.812 892.047 46.636C889.851 44.7653 886.273 42.8133 881.311 40.78C875.862 38.584 870.86 37.242 866.305 36.754C870.372 34.4767 874.113 33.338 877.529 33.338C878.505 33.338 879.441 33.46 880.335 33.704C882.857 33.8667 885.703 34.558 888.875 35.778C890.502 36.51 892.169 37.2013 893.877 37.852C894.853 22.48 895.992 13.208 897.293 10.036C898.839 6.21333 901.319 3.692 904.735 2.47199C907.013 1.65866 910.591 1.25199 915.471 1.25199H932.063C936.618 1.25199 938.895 5.11533 938.895 12.842V67.376C948.411 72.1747 954.837 74.8993 958.171 75.55Z" fill="white"/>
</svg>
