<svg width="60" height="43" viewBox="0 0 60 43" fill="none" xmlns="http://www.w3.org/2000/svg">
<path d="M0.383556 9.94873C2.13059 8.89291 9.09176 15.3485 11.1011 18.048C17.7998 13.9978 23.8279 11.2984 23.8279 11.2984C23.8279 11.2984 21.1487 -0.511917 24.8331 0.161931C28.1891 0.777333 34.4031 5.18692 39.5693 9.27394C48.2774 11.6364 58.8089 17.6475 60 23.4467C56.6511 34.5832 37.5599 39.982 26.1727 42.3445C20.5675 43.5077 23.8279 35.5959 23.8279 35.5959C23.8279 35.5959 17.7998 32.8956 11.1011 28.8465C9.09164 31.5459 2.13059 38.0015 0.383556 36.9456C-1.2914 35.9329 3.0627 23.4467 3.0627 23.4467C3.0627 23.4467 -1.2914 10.9616 0.383556 9.94873ZM48.0832 24.0446C49.6098 24.0446 50.8467 22.7984 50.8467 21.2602C50.8467 19.7231 49.6098 18.4769 48.0832 18.4769C46.5577 18.4769 45.3207 19.7231 45.3207 21.2602C45.3207 22.7984 46.5577 24.0446 48.0832 24.0446Z" fill="#CCD9E8"/>
</svg>
