<svg width="29" height="29" viewBox="0 0 29 29" fill="none" xmlns="http://www.w3.org/2000/svg">
<mask id="path-1-outside-1_81_87" maskUnits="userSpaceOnUse" x="-6.6748" y="-7" width="43" height="43" fill="black">
<rect fill="white" x="-6.6748" y="-7" width="43" height="43"/>
<path d="M0.53681 14.56C0.53681 11.808 1.04881 9.392 2.07281 7.312C3.12881 5.232 4.55281 3.632 6.34481 2.512C8.13681 1.392 10.1368 0.831998 12.3448 0.831998C14.2328 0.831998 15.8808 1.216 17.2888 1.984C18.7288 2.752 19.8328 3.76 20.6008 5.008V1.216H28.8088V28H20.6008V24.208C19.8008 25.456 18.6808 26.464 17.2408 27.232C15.8328 28 14.1848 28.384 12.2968 28.384C10.1208 28.384 8.13681 27.824 6.34481 26.704C4.55281 25.552 3.12881 23.936 2.07281 21.856C1.04881 19.744 0.53681 17.312 0.53681 14.56ZM20.6008 14.608C20.6008 12.56 20.0248 10.944 18.8728 9.76C17.7528 8.576 16.3768 7.984 14.7448 7.984C13.1128 7.984 11.7208 8.576 10.5688 9.76C9.44881 10.912 8.88881 12.512 8.88881 14.56C8.88881 16.608 9.44881 18.24 10.5688 19.456C11.7208 20.64 13.1128 21.232 14.7448 21.232C16.3768 21.232 17.7528 20.64 18.8728 19.456C20.0248 18.272 20.6008 16.656 20.6008 14.608Z"/>
</mask>
<path d="M0.53681 14.56C0.53681 11.808 1.04881 9.392 2.07281 7.312C3.12881 5.232 4.55281 3.632 6.34481 2.512C8.13681 1.392 10.1368 0.831998 12.3448 0.831998C14.2328 0.831998 15.8808 1.216 17.2888 1.984C18.7288 2.752 19.8328 3.76 20.6008 5.008V1.216H28.8088V28H20.6008V24.208C19.8008 25.456 18.6808 26.464 17.2408 27.232C15.8328 28 14.1848 28.384 12.2968 28.384C10.1208 28.384 8.13681 27.824 6.34481 26.704C4.55281 25.552 3.12881 23.936 2.07281 21.856C1.04881 19.744 0.53681 17.312 0.53681 14.56ZM20.6008 14.608C20.6008 12.56 20.0248 10.944 18.8728 9.76C17.7528 8.576 16.3768 7.984 14.7448 7.984C13.1128 7.984 11.7208 8.576 10.5688 9.76C9.44881 10.912 8.88881 12.512 8.88881 14.56C8.88881 16.608 9.44881 18.24 10.5688 19.456C11.7208 20.64 13.1128 21.232 14.7448 21.232C16.3768 21.232 17.7528 20.64 18.8728 19.456C20.0248 18.272 20.6008 16.656 20.6008 14.608Z" fill="#F2F2F2"/>
<path d="M2.07281 7.312L-4.16886 4.14315L-4.18836 4.18156L-4.20738 4.22021L2.07281 7.312ZM6.34481 2.512L10.0548 8.44799L10.0548 8.44799L6.34481 2.512ZM17.2888 1.984L13.9368 8.12927L13.9657 8.145L13.9947 8.16047L17.2888 1.984ZM20.6008 5.008L14.6392 8.67668L27.6008 29.7393V5.008H20.6008ZM20.6008 1.216V-5.784H13.6008V1.216H20.6008ZM28.8088 1.216H35.8088V-5.784H28.8088V1.216ZM28.8088 28V35H35.8088V28H28.8088ZM20.6008 28H13.6008V35H20.6008V28ZM20.6008 24.208H27.6008V0.316997L14.7077 20.4303L20.6008 24.208ZM17.2408 27.232L13.9467 21.0555L13.9177 21.071L13.8888 21.0867L17.2408 27.232ZM6.34481 26.704L2.55951 32.5922L2.59701 32.6164L2.63482 32.64L6.34481 26.704ZM2.07281 21.856L-4.22589 24.9099L-4.1979 24.9676L-4.16886 25.0248L2.07281 21.856ZM18.8728 9.76L13.7875 14.5704L13.8214 14.6062L13.8557 14.6415L18.8728 9.76ZM10.5688 9.76L5.55173 4.87851L5.54985 4.88045L10.5688 9.76ZM10.5688 19.456L5.42 24.1983L5.48491 24.2688L5.55173 24.3375L10.5688 19.456ZM18.8728 19.456L13.8557 14.5745L13.8214 14.6098L13.7875 14.6456L18.8728 19.456ZM7.53681 14.56C7.53681 12.6812 7.88319 11.3581 8.353 10.4038L-4.20738 4.22021C-5.78557 7.4259 -6.46319 10.9348 -6.46319 14.56H7.53681ZM8.31448 10.4808C8.85568 9.41484 9.45266 8.82432 10.0548 8.44799L2.63482 -3.42399C-0.347045 -1.56033 -2.59806 1.04916 -4.16886 4.14315L8.31448 10.4808ZM10.0548 8.44799C10.6831 8.05533 11.387 7.832 12.3448 7.832V-6.168C8.88662 -6.168 5.59057 -5.27133 2.63482 -3.42399L10.0548 8.44799ZM12.3448 7.832C13.2695 7.832 13.7254 8.01391 13.9368 8.12927L20.6408 -4.16127C18.0363 -5.58192 15.1961 -6.168 12.3448 -6.168V7.832ZM13.9947 8.16047C14.4665 8.41209 14.594 8.60325 14.6392 8.67668L26.5624 1.33932C25.0716 -1.08325 22.9911 -2.90809 20.5829 -4.19247L13.9947 8.16047ZM27.6008 5.008V1.216H13.6008V5.008H27.6008ZM20.6008 8.216H28.8088V-5.784H20.6008V8.216ZM21.8088 1.216V28H35.8088V1.216H21.8088ZM28.8088 21H20.6008V35H28.8088V21ZM27.6008 28V24.208H13.6008V28H27.6008ZM14.7077 20.4303C14.6181 20.57 14.4386 20.7932 13.9467 21.0555L20.5349 33.4085C22.923 32.1348 24.9835 30.342 26.494 27.9857L14.7077 20.4303ZM13.8888 21.0867C13.6774 21.2021 13.2215 21.384 12.2968 21.384V35.384C15.1481 35.384 17.9883 34.7979 20.5928 33.3773L13.8888 21.0867ZM12.2968 21.384C11.3917 21.384 10.7 21.1712 10.0548 20.768L2.63482 32.64C5.57365 34.4768 8.84993 35.384 12.2968 35.384V21.384ZM10.1301 20.8158C9.48161 20.3989 8.86275 19.7671 8.31448 18.6872L-4.16886 25.0248C-2.60513 28.1049 -0.375993 30.7051 2.55951 32.5922L10.1301 20.8158ZM8.37151 18.8021C7.88217 17.7928 7.53681 16.4356 7.53681 14.56H-6.46319C-6.46319 18.1884 -5.78455 21.6952 -4.22589 24.9099L8.37151 18.8021ZM27.6008 14.608C27.6008 11.1977 26.6022 7.6662 23.8899 4.87852L13.8557 14.6415C13.7889 14.5728 13.7254 14.4919 13.6719 14.4053C13.6188 14.3193 13.5892 14.2496 13.5751 14.2102C13.5478 14.1336 13.6008 14.2339 13.6008 14.608H27.6008ZM23.9581 4.9496C21.5139 2.36575 18.2978 0.983999 14.7448 0.983999V14.984C14.6954 14.984 14.4958 14.9706 14.2344 14.8581C13.9727 14.7456 13.824 14.609 13.7875 14.5704L23.9581 4.9496ZM14.7448 0.983999C11.1971 0.983999 8.00338 2.35876 5.55173 4.87852L15.5859 14.6415C15.5739 14.6538 15.4514 14.7697 15.2164 14.8696C14.9795 14.9704 14.7952 14.984 14.7448 14.984V0.983999ZM5.54985 4.88045C2.83644 7.67138 1.88881 11.2126 1.88881 14.56H15.8888C15.8888 14.1647 15.9437 14.0568 15.9158 14.1365C15.9011 14.1786 15.8686 14.2569 15.8085 14.3553C15.7477 14.4549 15.6725 14.5524 15.5878 14.6395L5.54985 4.88045ZM1.88881 14.56C1.88881 17.926 2.84228 21.3997 5.42 24.1983L15.7176 14.7137C15.7721 14.7728 15.8222 14.8403 15.863 14.9095C15.9034 14.9779 15.9231 15.0284 15.9299 15.0481C15.9427 15.0854 15.8888 14.9516 15.8888 14.56H1.88881ZM5.55173 24.3375C8.00338 26.8572 11.1971 28.232 14.7448 28.232V14.232C14.7952 14.232 14.9795 14.2456 15.2164 14.3464C15.4514 14.4463 15.5739 14.5622 15.5859 14.5745L5.55173 24.3375ZM14.7448 28.232C18.2978 28.232 21.5139 26.8502 23.9581 24.2664L13.7875 14.6456C13.824 14.607 13.9727 14.4704 14.2344 14.3579C14.4958 14.2454 14.6954 14.232 14.7448 14.232V28.232ZM23.8899 24.3375C26.6022 21.5498 27.6008 18.0183 27.6008 14.608H13.6008C13.6008 14.9821 13.5478 15.0824 13.5751 15.0058C13.5892 14.9664 13.6188 14.8967 13.6719 14.8107C13.7254 14.7241 13.7889 14.6432 13.8557 14.5745L23.8899 24.3375Z" fill="#A6D5F4" fill-opacity="0.21" mask="url(#path-1-outside-1_81_87)"/>
</svg>
