<svg width="407" height="53" viewBox="0 0 407 53" fill="none" xmlns="http://www.w3.org/2000/svg">
<mask id="path-1-outside-1_108_129" maskUnits="userSpaceOnUse" x="-4" y="-4" width="415" height="61" fill="black">
<rect fill="white" x="-4" y="-4" width="415" height="61"/>
<path d="M22.8639 5.304V11.88H9.13587V18.984H19.4079V25.368H9.13587V39H0.927874V5.304H22.8639ZM40.4259 9.432C38.9859 9.432 37.8019 9.016 36.8739 8.184C35.9779 7.32 35.5299 6.264 35.5299 5.016C35.5299 3.736 35.9779 2.68 36.8739 1.848C37.8019 0.983997 38.9859 0.551997 40.4259 0.551997C41.8339 0.551997 42.9859 0.983997 43.8819 1.848C44.8099 2.68 45.2739 3.736 45.2739 5.016C45.2739 6.264 44.8099 7.32 43.8819 8.184C42.9859 9.016 41.8339 9.432 40.4259 9.432ZM44.5059 12.216V39H36.2979V12.216H44.5059ZM67.7821 3.48V39H59.5741V3.48H67.7821ZM95.0424 39.384C92.4184 39.384 90.0504 38.824 87.9384 37.704C85.8584 36.584 84.2104 34.984 82.9944 32.904C81.8104 30.824 81.2184 28.392 81.2184 25.608C81.2184 22.856 81.8264 20.44 83.0424 18.36C84.2584 16.248 85.9224 14.632 88.0344 13.512C90.1464 12.392 92.5144 11.832 95.1384 11.832C97.7624 11.832 100.13 12.392 102.242 13.512C104.354 14.632 106.018 16.248 107.234 18.36C108.45 20.44 109.058 22.856 109.058 25.608C109.058 28.36 108.434 30.792 107.186 32.904C105.97 34.984 104.29 36.584 102.146 37.704C100.034 38.824 97.6664 39.384 95.0424 39.384ZM95.0424 32.28C96.6104 32.28 97.9384 31.704 99.0264 30.552C100.146 29.4 100.706 27.752 100.706 25.608C100.706 23.464 100.162 21.816 99.0744 20.664C98.0184 19.512 96.7064 18.936 95.1384 18.936C93.5384 18.936 92.2104 19.512 91.1544 20.664C90.0984 21.784 89.5704 23.432 89.5704 25.608C89.5704 27.752 90.0824 29.4 91.1064 30.552C92.1624 31.704 93.4744 32.28 95.0424 32.28ZM133.429 39.384C131.093 39.384 129.013 38.984 127.189 38.184C125.365 37.384 123.925 36.296 122.869 34.92C121.813 33.512 121.221 31.944 121.093 30.216H129.205C129.301 31.144 129.733 31.896 130.501 32.472C131.269 33.048 132.213 33.336 133.333 33.336C134.357 33.336 135.141 33.144 135.685 32.76C136.261 32.344 136.549 31.816 136.549 31.176C136.549 30.408 136.149 29.848 135.349 29.496C134.549 29.112 133.253 28.696 131.461 28.248C129.541 27.8 127.941 27.336 126.661 26.856C125.381 26.344 124.277 25.56 123.349 24.504C122.421 23.416 121.957 21.96 121.957 20.136C121.957 18.6 122.373 17.208 123.205 15.96C124.069 14.68 125.317 13.672 126.949 12.936C128.613 12.2 130.581 11.832 132.853 11.832C136.213 11.832 138.853 12.664 140.773 14.328C142.725 15.992 143.845 18.2 144.133 20.952H136.549C136.421 20.024 136.005 19.288 135.301 18.744C134.629 18.2 133.733 17.928 132.613 17.928C131.653 17.928 130.917 18.12 130.405 18.504C129.893 18.856 129.637 19.352 129.637 19.992C129.637 20.76 130.037 21.336 130.837 21.72C131.669 22.104 132.949 22.488 134.677 22.872C136.661 23.384 138.277 23.896 139.525 24.408C140.773 24.888 141.861 25.688 142.789 26.808C143.749 27.896 144.245 29.368 144.277 31.224C144.277 32.792 143.829 34.2 142.933 35.448C142.069 36.664 140.805 37.624 139.141 38.328C137.509 39.032 135.605 39.384 133.429 39.384ZM170.611 39.384C167.987 39.384 165.619 38.824 163.507 37.704C161.427 36.584 159.779 34.984 158.563 32.904C157.379 30.824 156.787 28.392 156.787 25.608C156.787 22.856 157.395 20.44 158.611 18.36C159.827 16.248 161.491 14.632 163.603 13.512C165.715 12.392 168.083 11.832 170.707 11.832C173.331 11.832 175.699 12.392 177.811 13.512C179.923 14.632 181.587 16.248 182.803 18.36C184.019 20.44 184.627 22.856 184.627 25.608C184.627 28.36 184.003 30.792 182.755 32.904C181.539 34.984 179.859 36.584 177.715 37.704C175.603 38.824 173.235 39.384 170.611 39.384ZM170.611 32.28C172.179 32.28 173.507 31.704 174.595 30.552C175.715 29.4 176.275 27.752 176.275 25.608C176.275 23.464 175.731 21.816 174.643 20.664C173.587 19.512 172.275 18.936 170.707 18.936C169.107 18.936 167.779 19.512 166.723 20.664C165.667 21.784 165.139 23.432 165.139 25.608C165.139 27.752 165.651 29.4 166.675 30.552C167.731 31.704 169.043 32.28 170.611 32.28ZM211.541 19.032H207.125V39H198.917V19.032H195.941V12.216H198.917V11.448C198.917 8.152 199.861 5.656 201.749 3.96C203.637 2.232 206.405 1.368 210.053 1.368C210.661 1.368 211.109 1.384 211.397 1.416V8.376C209.829 8.28 208.725 8.504 208.085 9.048C207.445 9.592 207.125 10.568 207.125 11.976V12.216H211.541V19.032ZM228.646 9.432C227.206 9.432 226.022 9.016 225.094 8.184C224.198 7.32 223.75 6.264 223.75 5.016C223.75 3.736 224.198 2.68 225.094 1.848C226.022 0.983997 227.206 0.551997 228.646 0.551997C230.054 0.551997 231.206 0.983997 232.102 1.848C233.03 2.68 233.494 3.736 233.494 5.016C233.494 6.264 233.03 7.32 232.102 8.184C231.206 9.016 230.054 9.432 228.646 9.432ZM232.726 12.216V39H224.518V12.216H232.726ZM275.294 32.664H286.046V39H267.086V5.304H275.294V32.664ZM311.273 39.384C308.649 39.384 306.281 38.824 304.169 37.704C302.089 36.584 300.441 34.984 299.225 32.904C298.041 30.824 297.449 28.392 297.449 25.608C297.449 22.856 298.057 20.44 299.273 18.36C300.489 16.248 302.153 14.632 304.265 13.512C306.377 12.392 308.745 11.832 311.369 11.832C313.993 11.832 316.361 12.392 318.473 13.512C320.585 14.632 322.249 16.248 323.465 18.36C324.681 20.44 325.289 22.856 325.289 25.608C325.289 28.36 324.665 30.792 323.417 32.904C322.201 34.984 320.521 36.584 318.377 37.704C316.265 38.824 313.897 39.384 311.273 39.384ZM311.273 32.28C312.841 32.28 314.169 31.704 315.257 30.552C316.377 29.4 316.937 27.752 316.937 25.608C316.937 23.464 316.393 21.816 315.305 20.664C314.249 19.512 312.937 18.936 311.369 18.936C309.769 18.936 308.441 19.512 307.385 20.664C306.329 21.784 305.801 23.432 305.801 25.608C305.801 27.752 306.313 29.4 307.337 30.552C308.393 31.704 309.705 32.28 311.273 32.28ZM348.94 11.832C350.828 11.832 352.476 12.216 353.884 12.984C355.324 13.752 356.428 14.76 357.196 16.008V12.216H365.404V38.952C365.404 41.416 364.908 43.64 363.916 45.624C362.956 47.64 361.468 49.24 359.452 50.424C357.468 51.608 354.988 52.2 352.012 52.2C348.044 52.2 344.828 51.256 342.364 49.368C339.9 47.512 338.492 44.984 338.14 41.784H346.252C346.508 42.808 347.116 43.608 348.076 44.184C349.036 44.792 350.22 45.096 351.628 45.096C353.324 45.096 354.668 44.6 355.66 43.608C356.684 42.648 357.196 41.096 357.196 38.952V35.16C356.396 36.408 355.292 37.432 353.884 38.232C352.476 39 350.828 39.384 348.94 39.384C346.732 39.384 344.732 38.824 342.94 37.704C341.148 36.552 339.724 34.936 338.668 32.856C337.644 30.744 337.132 28.312 337.132 25.56C337.132 22.808 337.644 20.392 338.668 18.312C339.724 16.232 341.148 14.632 342.94 13.512C344.732 12.392 346.732 11.832 348.94 11.832ZM357.196 25.608C357.196 23.56 356.62 21.944 355.468 20.76C354.348 19.576 352.972 18.984 351.34 18.984C349.708 18.984 348.316 19.576 347.164 20.76C346.044 21.912 345.484 23.512 345.484 25.56C345.484 27.608 346.044 29.24 347.164 30.456C348.316 31.64 349.708 32.232 351.34 32.232C352.972 32.232 354.348 31.64 355.468 30.456C356.62 29.272 357.196 27.656 357.196 25.608ZM392.654 39.384C390.03 39.384 387.662 38.824 385.55 37.704C383.47 36.584 381.822 34.984 380.606 32.904C379.422 30.824 378.83 28.392 378.83 25.608C378.83 22.856 379.438 20.44 380.654 18.36C381.87 16.248 383.534 14.632 385.646 13.512C387.758 12.392 390.126 11.832 392.75 11.832C395.374 11.832 397.742 12.392 399.854 13.512C401.966 14.632 403.63 16.248 404.846 18.36C406.062 20.44 406.67 22.856 406.67 25.608C406.67 28.36 406.046 30.792 404.798 32.904C403.582 34.984 401.902 36.584 399.758 37.704C397.646 38.824 395.278 39.384 392.654 39.384ZM392.654 32.28C394.222 32.28 395.55 31.704 396.638 30.552C397.758 29.4 398.318 27.752 398.318 25.608C398.318 23.464 397.774 21.816 396.686 20.664C395.63 19.512 394.318 18.936 392.75 18.936C391.15 18.936 389.822 19.512 388.766 20.664C387.71 21.784 387.182 23.432 387.182 25.608C387.182 27.752 387.694 29.4 388.718 30.552C389.774 31.704 391.086 32.28 392.654 32.28Z"/>
</mask>
<path d="M22.8639 5.304V11.88H9.13587V18.984H19.4079V25.368H9.13587V39H0.927874V5.304H22.8639ZM40.4259 9.432C38.9859 9.432 37.8019 9.016 36.8739 8.184C35.9779 7.32 35.5299 6.264 35.5299 5.016C35.5299 3.736 35.9779 2.68 36.8739 1.848C37.8019 0.983997 38.9859 0.551997 40.4259 0.551997C41.8339 0.551997 42.9859 0.983997 43.8819 1.848C44.8099 2.68 45.2739 3.736 45.2739 5.016C45.2739 6.264 44.8099 7.32 43.8819 8.184C42.9859 9.016 41.8339 9.432 40.4259 9.432ZM44.5059 12.216V39H36.2979V12.216H44.5059ZM67.7821 3.48V39H59.5741V3.48H67.7821ZM95.0424 39.384C92.4184 39.384 90.0504 38.824 87.9384 37.704C85.8584 36.584 84.2104 34.984 82.9944 32.904C81.8104 30.824 81.2184 28.392 81.2184 25.608C81.2184 22.856 81.8264 20.44 83.0424 18.36C84.2584 16.248 85.9224 14.632 88.0344 13.512C90.1464 12.392 92.5144 11.832 95.1384 11.832C97.7624 11.832 100.13 12.392 102.242 13.512C104.354 14.632 106.018 16.248 107.234 18.36C108.45 20.44 109.058 22.856 109.058 25.608C109.058 28.36 108.434 30.792 107.186 32.904C105.97 34.984 104.29 36.584 102.146 37.704C100.034 38.824 97.6664 39.384 95.0424 39.384ZM95.0424 32.28C96.6104 32.28 97.9384 31.704 99.0264 30.552C100.146 29.4 100.706 27.752 100.706 25.608C100.706 23.464 100.162 21.816 99.0744 20.664C98.0184 19.512 96.7064 18.936 95.1384 18.936C93.5384 18.936 92.2104 19.512 91.1544 20.664C90.0984 21.784 89.5704 23.432 89.5704 25.608C89.5704 27.752 90.0824 29.4 91.1064 30.552C92.1624 31.704 93.4744 32.28 95.0424 32.28ZM133.429 39.384C131.093 39.384 129.013 38.984 127.189 38.184C125.365 37.384 123.925 36.296 122.869 34.92C121.813 33.512 121.221 31.944 121.093 30.216H129.205C129.301 31.144 129.733 31.896 130.501 32.472C131.269 33.048 132.213 33.336 133.333 33.336C134.357 33.336 135.141 33.144 135.685 32.76C136.261 32.344 136.549 31.816 136.549 31.176C136.549 30.408 136.149 29.848 135.349 29.496C134.549 29.112 133.253 28.696 131.461 28.248C129.541 27.8 127.941 27.336 126.661 26.856C125.381 26.344 124.277 25.56 123.349 24.504C122.421 23.416 121.957 21.96 121.957 20.136C121.957 18.6 122.373 17.208 123.205 15.96C124.069 14.68 125.317 13.672 126.949 12.936C128.613 12.2 130.581 11.832 132.853 11.832C136.213 11.832 138.853 12.664 140.773 14.328C142.725 15.992 143.845 18.2 144.133 20.952H136.549C136.421 20.024 136.005 19.288 135.301 18.744C134.629 18.2 133.733 17.928 132.613 17.928C131.653 17.928 130.917 18.12 130.405 18.504C129.893 18.856 129.637 19.352 129.637 19.992C129.637 20.76 130.037 21.336 130.837 21.72C131.669 22.104 132.949 22.488 134.677 22.872C136.661 23.384 138.277 23.896 139.525 24.408C140.773 24.888 141.861 25.688 142.789 26.808C143.749 27.896 144.245 29.368 144.277 31.224C144.277 32.792 143.829 34.2 142.933 35.448C142.069 36.664 140.805 37.624 139.141 38.328C137.509 39.032 135.605 39.384 133.429 39.384ZM170.611 39.384C167.987 39.384 165.619 38.824 163.507 37.704C161.427 36.584 159.779 34.984 158.563 32.904C157.379 30.824 156.787 28.392 156.787 25.608C156.787 22.856 157.395 20.44 158.611 18.36C159.827 16.248 161.491 14.632 163.603 13.512C165.715 12.392 168.083 11.832 170.707 11.832C173.331 11.832 175.699 12.392 177.811 13.512C179.923 14.632 181.587 16.248 182.803 18.36C184.019 20.44 184.627 22.856 184.627 25.608C184.627 28.36 184.003 30.792 182.755 32.904C181.539 34.984 179.859 36.584 177.715 37.704C175.603 38.824 173.235 39.384 170.611 39.384ZM170.611 32.28C172.179 32.28 173.507 31.704 174.595 30.552C175.715 29.4 176.275 27.752 176.275 25.608C176.275 23.464 175.731 21.816 174.643 20.664C173.587 19.512 172.275 18.936 170.707 18.936C169.107 18.936 167.779 19.512 166.723 20.664C165.667 21.784 165.139 23.432 165.139 25.608C165.139 27.752 165.651 29.4 166.675 30.552C167.731 31.704 169.043 32.28 170.611 32.28ZM211.541 19.032H207.125V39H198.917V19.032H195.941V12.216H198.917V11.448C198.917 8.152 199.861 5.656 201.749 3.96C203.637 2.232 206.405 1.368 210.053 1.368C210.661 1.368 211.109 1.384 211.397 1.416V8.376C209.829 8.28 208.725 8.504 208.085 9.048C207.445 9.592 207.125 10.568 207.125 11.976V12.216H211.541V19.032ZM228.646 9.432C227.206 9.432 226.022 9.016 225.094 8.184C224.198 7.32 223.75 6.264 223.75 5.016C223.75 3.736 224.198 2.68 225.094 1.848C226.022 0.983997 227.206 0.551997 228.646 0.551997C230.054 0.551997 231.206 0.983997 232.102 1.848C233.03 2.68 233.494 3.736 233.494 5.016C233.494 6.264 233.03 7.32 232.102 8.184C231.206 9.016 230.054 9.432 228.646 9.432ZM232.726 12.216V39H224.518V12.216H232.726ZM275.294 32.664H286.046V39H267.086V5.304H275.294V32.664ZM311.273 39.384C308.649 39.384 306.281 38.824 304.169 37.704C302.089 36.584 300.441 34.984 299.225 32.904C298.041 30.824 297.449 28.392 297.449 25.608C297.449 22.856 298.057 20.44 299.273 18.36C300.489 16.248 302.153 14.632 304.265 13.512C306.377 12.392 308.745 11.832 311.369 11.832C313.993 11.832 316.361 12.392 318.473 13.512C320.585 14.632 322.249 16.248 323.465 18.36C324.681 20.44 325.289 22.856 325.289 25.608C325.289 28.36 324.665 30.792 323.417 32.904C322.201 34.984 320.521 36.584 318.377 37.704C316.265 38.824 313.897 39.384 311.273 39.384ZM311.273 32.28C312.841 32.28 314.169 31.704 315.257 30.552C316.377 29.4 316.937 27.752 316.937 25.608C316.937 23.464 316.393 21.816 315.305 20.664C314.249 19.512 312.937 18.936 311.369 18.936C309.769 18.936 308.441 19.512 307.385 20.664C306.329 21.784 305.801 23.432 305.801 25.608C305.801 27.752 306.313 29.4 307.337 30.552C308.393 31.704 309.705 32.28 311.273 32.28ZM348.94 11.832C350.828 11.832 352.476 12.216 353.884 12.984C355.324 13.752 356.428 14.76 357.196 16.008V12.216H365.404V38.952C365.404 41.416 364.908 43.64 363.916 45.624C362.956 47.64 361.468 49.24 359.452 50.424C357.468 51.608 354.988 52.2 352.012 52.2C348.044 52.2 344.828 51.256 342.364 49.368C339.9 47.512 338.492 44.984 338.14 41.784H346.252C346.508 42.808 347.116 43.608 348.076 44.184C349.036 44.792 350.22 45.096 351.628 45.096C353.324 45.096 354.668 44.6 355.66 43.608C356.684 42.648 357.196 41.096 357.196 38.952V35.16C356.396 36.408 355.292 37.432 353.884 38.232C352.476 39 350.828 39.384 348.94 39.384C346.732 39.384 344.732 38.824 342.94 37.704C341.148 36.552 339.724 34.936 338.668 32.856C337.644 30.744 337.132 28.312 337.132 25.56C337.132 22.808 337.644 20.392 338.668 18.312C339.724 16.232 341.148 14.632 342.94 13.512C344.732 12.392 346.732 11.832 348.94 11.832ZM357.196 25.608C357.196 23.56 356.62 21.944 355.468 20.76C354.348 19.576 352.972 18.984 351.34 18.984C349.708 18.984 348.316 19.576 347.164 20.76C346.044 21.912 345.484 23.512 345.484 25.56C345.484 27.608 346.044 29.24 347.164 30.456C348.316 31.64 349.708 32.232 351.34 32.232C352.972 32.232 354.348 31.64 355.468 30.456C356.62 29.272 357.196 27.656 357.196 25.608ZM392.654 39.384C390.03 39.384 387.662 38.824 385.55 37.704C383.47 36.584 381.822 34.984 380.606 32.904C379.422 30.824 378.83 28.392 378.83 25.608C378.83 22.856 379.438 20.44 380.654 18.36C381.87 16.248 383.534 14.632 385.646 13.512C387.758 12.392 390.126 11.832 392.75 11.832C395.374 11.832 397.742 12.392 399.854 13.512C401.966 14.632 403.63 16.248 404.846 18.36C406.062 20.44 406.67 22.856 406.67 25.608C406.67 28.36 406.046 30.792 404.798 32.904C403.582 34.984 401.902 36.584 399.758 37.704C397.646 38.824 395.278 39.384 392.654 39.384ZM392.654 32.28C394.222 32.28 395.55 31.704 396.638 30.552C397.758 29.4 398.318 27.752 398.318 25.608C398.318 23.464 397.774 21.816 396.686 20.664C395.63 19.512 394.318 18.936 392.75 18.936C391.15 18.936 389.822 19.512 388.766 20.664C387.71 21.784 387.182 23.432 387.182 25.608C387.182 27.752 387.694 29.4 388.718 30.552C389.774 31.704 391.086 32.28 392.654 32.28Z" fill="#457ABF"/>
<path d="M22.8639 5.304H26.8639V1.304H22.8639V5.304ZM22.8639 11.88V15.88H26.8639V11.88H22.8639ZM9.13587 11.88V7.88H5.13587V11.88H9.13587ZM9.13587 18.984H5.13587V22.984H9.13587V18.984ZM19.4079 18.984H23.4079V14.984H19.4079V18.984ZM19.4079 25.368V29.368H23.4079V25.368H19.4079ZM9.13587 25.368V21.368H5.13587V25.368H9.13587ZM9.13587 39V43H13.1359V39H9.13587ZM0.927874 39H-3.07213V43H0.927874V39ZM0.927874 5.304V1.304H-3.07213V5.304H0.927874ZM18.8639 5.304V11.88H26.8639V5.304H18.8639ZM22.8639 7.88H9.13587V15.88H22.8639V7.88ZM5.13587 11.88V18.984H13.1359V11.88H5.13587ZM9.13587 22.984H19.4079V14.984H9.13587V22.984ZM15.4079 18.984V25.368H23.4079V18.984H15.4079ZM19.4079 21.368H9.13587V29.368H19.4079V21.368ZM5.13587 25.368V39H13.1359V25.368H5.13587ZM9.13587 35H0.927874V43H9.13587V35ZM4.92787 39V5.304H-3.07213V39H4.92787ZM0.927874 9.304H22.8639V1.304H0.927874V9.304ZM36.8739 8.184L34.0973 11.0634L34.1496 11.1138L34.2037 11.1623L36.8739 8.184ZM36.8739 1.848L39.5957 4.77917L39.5995 4.77557L36.8739 1.848ZM43.8819 1.848L41.1053 4.72738L41.1576 4.77779L41.2117 4.82627L43.8819 1.848ZM43.8819 8.184L46.6037 11.1152L46.6075 11.1116L43.8819 8.184ZM44.5059 12.216H48.5059V8.216H44.5059V12.216ZM44.5059 39V43H48.5059V39H44.5059ZM36.2979 39H32.2979V43H36.2979V39ZM36.2979 12.216V8.216H32.2979V12.216H36.2979ZM40.4259 5.432C39.8083 5.432 39.6252 5.27851 39.5441 5.20572L34.2037 11.1623C35.9785 12.7535 38.1635 13.432 40.4259 13.432V5.432ZM39.6504 5.30462C39.6002 5.25623 39.5744 5.22272 39.5628 5.20615C39.5517 5.19024 39.5487 5.18291 39.5482 5.1818C39.5477 5.18067 39.5443 5.17283 39.5403 5.15252C39.5362 5.1314 39.5299 5.08784 39.5299 5.016H31.5299C31.5299 7.34684 32.4172 9.44323 34.0973 11.0634L39.6504 5.30462ZM39.5299 5.016C39.5299 4.92978 39.5374 4.87706 39.5423 4.85139C39.547 4.82673 39.5506 4.82066 39.5482 4.8262C39.5457 4.83204 39.5431 4.83575 39.5445 4.83372C39.5464 4.83109 39.56 4.81228 39.5957 4.77917L34.1521 -1.08317C32.3989 0.544735 31.5299 2.68246 31.5299 5.016H39.5299ZM39.5995 4.77557C39.6858 4.69531 39.8496 4.552 40.4259 4.552V-3.448C38.1222 -3.448 35.918 -2.72731 34.1482 -1.07958L39.5995 4.77557ZM40.4259 4.552C40.9454 4.552 41.0545 4.67838 41.1053 4.72738L46.6584 -1.03138C44.9172 -2.71039 42.7223 -3.448 40.4259 -3.448V4.552ZM41.2117 4.82627C41.2531 4.86337 41.2691 4.88472 41.2713 4.88772C41.273 4.88999 41.2686 4.88406 41.2638 4.87309C41.2591 4.86232 41.2603 4.86132 41.2635 4.87729C41.2669 4.89434 41.2739 4.93828 41.2739 5.016H49.2739C49.2739 2.63435 48.352 0.483486 46.5521 -1.13028L41.2117 4.82627ZM41.2739 5.016C41.2739 5.07912 41.2681 5.11379 41.2656 5.1263C41.2633 5.13797 41.2621 5.13885 41.2638 5.1349C41.2655 5.13106 41.264 5.13614 41.2524 5.15213C41.2403 5.16889 41.2119 5.20454 41.1562 5.25642L46.6075 11.1116C48.3335 9.50463 49.2739 7.39443 49.2739 5.016H41.2739ZM41.1601 5.25282C41.1159 5.29381 40.9882 5.432 40.4259 5.432V13.432C42.6795 13.432 44.8558 12.7382 46.6037 11.1152L41.1601 5.25282ZM40.5059 12.216V39H48.5059V12.216H40.5059ZM44.5059 35H36.2979V43H44.5059V35ZM40.2979 39V12.216H32.2979V39H40.2979ZM36.2979 16.216H44.5059V8.216H36.2979V16.216ZM67.7821 3.48H71.7821V-0.52H67.7821V3.48ZM67.7821 39V43H71.7821V39H67.7821ZM59.5741 39H55.5741V43H59.5741V39ZM59.5741 3.48V-0.52H55.5741V3.48H59.5741ZM63.7821 3.48V39H71.7821V3.48H63.7821ZM67.7821 35H59.5741V43H67.7821V35ZM63.5741 39V3.48H55.5741V39H63.5741ZM59.5741 7.48H67.7821V-0.52H59.5741V7.48ZM87.9384 37.704L86.042 41.2259L86.0532 41.2319L86.0644 41.2379L87.9384 37.704ZM82.9944 32.904L79.5181 34.8828L79.5295 34.9029L79.5412 34.9228L82.9944 32.904ZM83.0424 18.36L86.4956 20.3788L86.5023 20.3673L86.5089 20.3559L83.0424 18.36ZM88.0344 13.512L89.9084 17.0458L88.0344 13.512ZM102.242 13.512L100.368 17.0458L102.242 13.512ZM107.234 18.36L103.768 20.3559L103.774 20.3673L103.781 20.3788L107.234 18.36ZM107.186 32.904L103.743 30.8691L103.738 30.8771L103.733 30.8852L107.186 32.904ZM102.146 37.704L100.294 34.1586L100.283 34.1643L100.272 34.1702L102.146 37.704ZM99.0264 30.552L96.1584 27.7637L96.1382 27.7845L96.1183 27.8055L99.0264 30.552ZM99.0744 20.664L96.1258 23.3669L96.1459 23.3888L96.1663 23.4105L99.0744 20.664ZM91.1544 20.664L94.0647 23.4081L94.084 23.3876L94.103 23.3669L91.1544 20.664ZM91.1064 30.552L88.1167 33.2095L88.1371 33.2323L88.1578 33.2549L91.1064 30.552ZM95.0424 35.384C93.0066 35.384 91.2923 34.9549 89.8124 34.1702L86.0644 41.2379C88.8085 42.6931 91.8301 43.384 95.0424 43.384V35.384ZM89.8348 34.1821C88.4154 33.4178 87.3004 32.344 86.4476 30.8852L79.5412 34.9228C81.1204 37.624 83.3014 39.7502 86.042 41.2259L89.8348 34.1821ZM86.4706 30.9252C85.6823 29.5403 85.2184 27.8124 85.2184 25.608H77.2184C77.2184 28.9716 77.9384 32.1077 79.5181 34.8828L86.4706 30.9252ZM85.2184 25.608C85.2184 23.4629 85.6861 21.7634 86.4956 20.3788L79.5892 16.3412C77.9666 19.1166 77.2184 22.2491 77.2184 25.608H85.2184ZM86.5089 20.3559C87.357 18.8827 88.4749 17.806 89.9084 17.0458L86.1604 9.97815C83.3699 11.4579 81.1597 13.6133 79.5759 16.3641L86.5089 20.3559ZM89.9084 17.0458C91.3883 16.2611 93.1026 15.832 95.1384 15.832V7.832C91.9261 7.832 88.9045 8.52293 86.1604 9.97815L89.9084 17.0458ZM95.1384 15.832C97.1741 15.832 98.8885 16.2611 100.368 17.0458L104.116 9.97815C101.372 8.52293 98.3506 7.832 95.1384 7.832V15.832ZM100.368 17.0458C101.802 17.806 102.92 18.8827 103.768 20.3559L110.701 16.3641C109.117 13.6133 106.907 11.4579 104.116 9.97815L100.368 17.0458ZM103.781 20.3788C104.591 21.7634 105.058 23.4629 105.058 25.608H113.058C113.058 22.2491 112.31 19.1166 110.688 16.3412L103.781 20.3788ZM105.058 25.608C105.058 27.7334 104.584 29.4459 103.743 30.8691L110.63 34.9389C112.285 32.1381 113.058 28.9866 113.058 25.608H105.058ZM103.733 30.8852C102.898 32.3132 101.774 33.3854 100.294 34.1586L103.998 41.2494C106.806 39.7826 109.042 37.6548 110.64 34.9228L103.733 30.8852ZM100.272 34.1702C98.7925 34.9549 97.0781 35.384 95.0424 35.384V43.384C98.2546 43.384 101.276 42.6931 104.02 41.2378L100.272 34.1702ZM95.0424 36.28C97.724 36.28 100.1 35.241 101.934 33.2985L96.1183 27.8055C95.7769 28.167 95.4967 28.28 95.0424 28.28V36.28ZM101.894 33.3403C103.957 31.2192 104.706 28.4352 104.706 25.608H96.7064C96.7064 27.0688 96.3362 27.5808 96.1584 27.7637L101.894 33.3403ZM104.706 25.608C104.706 22.81 103.989 20.0419 101.982 17.9175L96.1663 23.4105C96.336 23.5901 96.7064 24.118 96.7064 25.608H104.706ZM102.023 17.9611C100.206 15.9794 97.8233 14.936 95.1384 14.936V22.936C95.5894 22.936 95.8303 23.0446 96.1258 23.3669L102.023 17.9611ZM95.1384 14.936C92.4475 14.936 90.0397 15.9605 88.2058 17.9611L94.103 23.3669C94.3811 23.0635 94.6292 22.936 95.1384 22.936V14.936ZM88.244 17.9199C86.2438 20.0414 85.5704 22.8348 85.5704 25.608H93.5704C93.5704 24.0292 93.953 23.5266 94.0647 23.4081L88.244 17.9199ZM85.5704 25.608C85.5704 28.3487 86.2259 31.0822 88.1167 33.2095L94.096 27.8945C93.9389 27.7178 93.5704 27.1553 93.5704 25.608H85.5704ZM88.1578 33.2549C89.9743 35.2366 92.3574 36.28 95.0424 36.28V28.28C94.5913 28.28 94.3505 28.1714 94.055 27.8491L88.1578 33.2549ZM127.189 38.184L128.796 34.5208L127.189 38.184ZM122.869 34.92L119.669 37.32L119.682 37.3377L119.696 37.3553L122.869 34.92ZM121.093 30.216V26.216H116.786L117.104 30.5115L121.093 30.216ZM129.205 30.216L133.184 29.8044L132.812 26.216H129.205V30.216ZM130.501 32.472L132.901 29.272L130.501 32.472ZM135.685 32.76L137.992 36.0279L138.009 36.0154L138.027 36.0027L135.685 32.76ZM135.349 29.496L133.618 33.1021L133.677 33.1307L133.738 33.1573L135.349 29.496ZM131.461 28.248L132.431 24.3674L132.4 24.3598L132.37 24.3526L131.461 28.248ZM126.661 26.856L125.175 30.5699L125.216 30.5861L125.256 30.6013L126.661 26.856ZM123.349 24.504L120.306 27.0998L120.325 27.1223L120.344 27.1445L123.349 24.504ZM123.205 15.96L119.889 13.7221L119.883 13.7316L119.877 13.7412L123.205 15.96ZM126.949 12.936L125.331 9.27786L125.318 9.28371L125.304 9.28965L126.949 12.936ZM140.773 14.328L138.153 17.3508L138.165 17.3615L138.178 17.3721L140.773 14.328ZM144.133 20.952V24.952H148.573L148.111 20.5357L144.133 20.952ZM136.549 20.952L132.586 21.4985L133.063 24.952H136.549V20.952ZM135.301 18.744L132.784 21.853L132.819 21.8815L132.855 21.9091L135.301 18.744ZM130.405 18.504L132.671 21.8002L132.739 21.7535L132.805 21.704L130.405 18.504ZM130.837 21.72L129.106 25.3261L129.133 25.3392L129.161 25.3518L130.837 21.72ZM134.677 22.872L135.676 18.9989L135.611 18.982L135.545 18.9673L134.677 22.872ZM139.525 24.408L138.007 28.1087L138.048 28.1255L138.089 28.1414L139.525 24.408ZM142.789 26.808L139.709 29.3601L139.748 29.4079L139.79 29.4545L142.789 26.808ZM144.277 31.224H148.277V31.1895L148.276 31.155L144.277 31.224ZM142.933 35.448L139.684 33.1152L139.678 33.1232L139.672 33.1312L142.933 35.448ZM139.141 38.328L137.582 34.6441L137.569 34.6496L137.557 34.6552L139.141 38.328ZM133.429 35.384C131.551 35.384 130.033 35.0636 128.796 34.5208L125.582 41.8472C127.993 42.9044 130.634 43.384 133.429 43.384V35.384ZM128.796 34.5208C127.496 33.951 126.63 33.2512 126.042 32.4847L119.696 37.3553C121.219 39.3408 123.233 40.817 125.582 41.8472L128.796 34.5208ZM126.069 32.52C125.464 31.7135 125.153 30.8734 125.082 29.9205L117.104 30.5115C117.289 33.0146 118.162 35.3105 119.669 37.32L126.069 32.52ZM121.093 34.216H129.205V26.216H121.093V34.216ZM125.226 30.6276C125.441 32.7004 126.47 34.4491 128.101 35.672L132.901 29.272C132.9 29.271 132.922 29.2874 132.956 29.3252C132.991 29.3638 133.031 29.4168 133.069 29.4835C133.153 29.6289 133.178 29.7543 133.184 29.8044L125.226 30.6276ZM128.101 35.672C129.672 36.8504 131.497 37.336 133.333 37.336V29.336C133.116 29.336 132.999 29.3083 132.952 29.2941C132.912 29.2817 132.903 29.2736 132.901 29.272L128.101 35.672ZM133.333 37.336C134.768 37.336 136.498 37.0819 137.992 36.0279L133.378 29.4921C133.592 29.3412 133.743 29.3053 133.737 29.3068C133.736 29.3072 133.703 29.315 133.633 29.3224C133.564 29.3297 133.465 29.336 133.333 29.336V37.336ZM138.027 36.0027C139.511 34.9307 140.549 33.2561 140.549 31.176H132.549C132.549 30.871 132.624 30.4978 132.821 30.1366C133.011 29.7897 133.234 29.596 133.343 29.5173L138.027 36.0027ZM140.549 31.176C140.549 30.0594 140.244 28.8913 139.504 27.855C138.787 26.8517 137.843 26.2233 136.96 25.8347L133.738 33.1573C133.655 33.1207 133.311 32.9483 132.994 32.505C132.654 32.0287 132.549 31.5246 132.549 31.176H140.549ZM137.08 25.8899C135.894 25.3208 134.267 24.8265 132.431 24.3674L130.491 32.1286C132.238 32.5655 133.204 32.9032 133.618 33.1021L137.08 25.8899ZM132.37 24.3526C130.551 23.9283 129.13 23.51 128.065 23.1107L125.256 30.6013C126.752 31.162 128.53 31.6717 130.552 32.1434L132.37 24.3526ZM128.146 23.1421C127.462 22.8683 126.875 22.457 126.354 21.8635L120.344 27.1445C121.679 28.663 123.3 29.8197 125.175 30.5699L128.146 23.1421ZM126.392 21.9082C126.236 21.7253 125.957 21.2772 125.957 20.136H117.957C117.957 22.6428 118.606 25.1067 120.306 27.0998L126.392 21.9082ZM125.957 20.136C125.957 19.3695 126.15 18.7531 126.533 18.1788L119.877 13.7412C118.596 15.6629 117.957 17.8305 117.957 20.136H125.957ZM126.52 18.1979C126.906 17.6261 127.528 17.0626 128.593 16.5823L125.304 9.28965C123.105 10.2814 121.231 11.7339 119.889 13.7221L126.52 18.1979ZM128.567 16.5941C129.611 16.1322 131.004 15.832 132.853 15.832V7.832C130.158 7.832 127.615 8.26778 125.331 9.27786L128.567 16.5941ZM132.853 15.832C135.565 15.832 137.167 16.4965 138.153 17.3508L143.393 11.3052C140.538 8.83151 136.86 7.832 132.853 7.832V15.832ZM138.178 17.3721C139.284 18.3147 139.964 19.5491 140.155 21.3683L148.111 20.5357C147.726 16.8509 146.166 13.6693 143.368 11.2839L138.178 17.3721ZM144.133 16.952H136.549V24.952H144.133V16.952ZM140.511 20.4055C140.249 18.5006 139.327 16.8001 137.747 15.5789L132.855 21.9091C132.808 21.8726 132.727 21.7924 132.659 21.6722C132.593 21.5558 132.584 21.4805 132.586 21.4985L140.511 20.4055ZM137.818 15.635C136.246 14.3629 134.375 13.928 132.613 13.928V21.928C132.854 21.928 132.957 21.9577 132.963 21.9595C132.965 21.96 132.944 21.9538 132.908 21.9353C132.872 21.9164 132.829 21.8892 132.784 21.853L137.818 15.635ZM132.613 13.928C131.199 13.928 129.479 14.1987 128.005 15.304L132.805 21.704C132.575 21.8765 132.392 21.9316 132.351 21.9425C132.316 21.9515 132.389 21.928 132.613 21.928V13.928ZM128.139 15.2078C126.503 16.3324 125.637 18.0821 125.637 19.992H133.637C133.637 20.2162 133.588 20.5772 133.383 20.9746C133.176 21.3765 132.896 21.6456 132.671 21.8002L128.139 15.2078ZM125.637 19.992C125.637 21.1103 125.942 22.2599 126.651 23.2816C127.338 24.27 128.245 24.9127 129.106 25.3261L132.568 18.1139C132.629 18.1433 132.936 18.306 133.222 18.7184C133.532 19.1641 133.637 19.6417 133.637 19.992H125.637ZM129.161 25.3518C130.391 25.9198 132.009 26.3768 133.809 26.7767L135.545 18.9673C133.888 18.5992 132.947 18.2882 132.513 18.0882L129.161 25.3518ZM133.677 26.7451C135.565 27.2323 136.99 27.6916 138.007 28.1087L141.043 20.7073C139.564 20.1004 137.756 19.5357 135.676 18.9989L133.677 26.7451ZM138.089 28.1414C138.641 28.3538 139.179 28.7206 139.709 29.3601L145.869 24.2559C144.543 22.6553 142.904 21.4222 140.961 20.6746L138.089 28.1414ZM139.79 29.4545C139.961 29.6491 140.257 30.1158 140.277 31.293L148.276 31.155C148.233 28.6202 147.536 26.1429 145.788 24.1615L139.79 29.4545ZM140.277 31.224C140.277 31.9735 140.081 32.562 139.684 33.1152L146.182 37.7808C147.577 35.8381 148.277 33.6105 148.277 31.224H140.277ZM139.672 33.1312C139.321 33.6259 138.708 34.1679 137.582 34.6441L140.699 42.0119C142.902 41.0801 144.817 39.7021 146.194 37.7648L139.672 33.1312ZM137.557 34.6552C136.524 35.1007 135.179 35.384 133.429 35.384V43.384C136.031 43.384 138.494 42.9633 140.725 42.0008L137.557 34.6552ZM163.507 37.704L161.61 41.2259L161.621 41.2319L161.632 41.2379L163.507 37.704ZM158.562 32.904L155.086 34.8828L155.098 34.9029L155.109 34.9228L158.562 32.904ZM158.611 18.36L162.064 20.3788L162.07 20.3673L162.077 20.3559L158.611 18.36ZM163.603 13.512L165.477 17.0458L163.603 13.512ZM177.811 13.512L175.936 17.0458L177.811 13.512ZM182.803 18.36L179.336 20.3559L179.343 20.3673L179.349 20.3788L182.803 18.36ZM182.755 32.904L179.311 30.8691L179.306 30.8771L179.301 30.8852L182.755 32.904ZM177.715 37.704L175.862 34.1586L175.851 34.1643L175.84 34.1702L177.715 37.704ZM174.595 30.552L171.727 27.7637L171.706 27.7845L171.686 27.8055L174.595 30.552ZM174.643 20.664L171.694 23.3669L171.714 23.3888L171.734 23.4105L174.643 20.664ZM166.723 20.664L169.633 23.4081L169.652 23.3876L169.671 23.3669L166.723 20.664ZM166.674 30.552L163.685 33.2095L163.705 33.2323L163.726 33.2549L166.674 30.552ZM170.611 35.384C168.575 35.384 166.86 34.9549 165.381 34.1702L161.632 41.2379C164.377 42.6931 167.398 43.384 170.611 43.384V35.384ZM165.403 34.1821C163.984 33.4178 162.868 32.344 162.016 30.8852L155.109 34.9228C156.689 37.624 158.869 39.7502 161.61 41.2259L165.403 34.1821ZM162.039 30.9252C161.25 29.5403 160.786 27.8124 160.786 25.608H152.786C152.786 28.9716 153.507 32.1077 155.086 34.8828L162.039 30.9252ZM160.786 25.608C160.786 23.4629 161.254 21.7634 162.064 20.3788L155.157 16.3412C153.535 19.1166 152.786 22.2491 152.786 25.608H160.786ZM162.077 20.3559C162.925 18.8827 164.043 17.806 165.477 17.0458L161.729 9.97815C158.938 11.4579 156.728 13.6133 155.144 16.3641L162.077 20.3559ZM165.477 17.0458C166.956 16.2611 168.671 15.832 170.707 15.832V7.832C167.494 7.832 164.473 8.52293 161.729 9.97815L165.477 17.0458ZM170.707 15.832C172.742 15.832 174.457 16.2611 175.936 17.0458L179.685 9.97815C176.94 8.52293 173.919 7.832 170.707 7.832V15.832ZM175.936 17.0458C177.37 17.806 178.488 18.8827 179.336 20.3559L186.269 16.3641C184.685 13.6133 182.475 11.4579 179.685 9.97815L175.936 17.0458ZM179.349 20.3788C180.159 21.7634 180.627 23.4629 180.627 25.608H188.627C188.627 22.2491 187.878 19.1166 186.256 16.3412L179.349 20.3788ZM180.627 25.608C180.627 27.7334 180.152 29.4459 179.311 30.8691L186.198 34.9389C187.853 32.1381 188.627 28.9866 188.627 25.608H180.627ZM179.301 30.8852C178.466 32.3132 177.343 33.3854 175.862 34.1586L179.567 41.2494C182.374 39.7826 184.611 37.6548 186.208 34.9228L179.301 30.8852ZM175.84 34.1702C174.361 34.9549 172.646 35.384 170.611 35.384V43.384C173.823 43.384 176.844 42.6931 179.589 41.2378L175.84 34.1702ZM170.611 36.28C173.292 36.28 175.668 35.241 177.503 33.2985L171.686 27.8055C171.345 28.167 171.065 28.28 170.611 28.28V36.28ZM177.462 33.3403C179.525 31.2192 180.275 28.4352 180.275 25.608H172.275C172.275 27.0688 171.904 27.5808 171.727 27.7637L177.462 33.3403ZM180.275 25.608C180.275 22.81 179.557 20.0419 177.551 17.9175L171.734 23.4105C171.904 23.5901 172.275 24.118 172.275 25.608H180.275ZM177.591 17.9611C175.775 15.9794 173.391 14.936 170.707 14.936V22.936C171.158 22.936 171.398 23.0446 171.694 23.3669L177.591 17.9611ZM170.707 14.936C168.016 14.936 165.608 15.9605 163.774 17.9611L169.671 23.3669C169.949 23.0635 170.197 22.936 170.707 22.936V14.936ZM163.812 17.9199C161.812 20.0414 161.139 22.8348 161.139 25.608H169.139C169.139 24.0292 169.521 23.5266 169.633 23.4081L163.812 17.9199ZM161.139 25.608C161.139 28.3487 161.794 31.0822 163.685 33.2095L169.664 27.8945C169.507 27.7178 169.139 27.1553 169.139 25.608H161.139ZM163.726 33.2549C165.542 35.2366 167.926 36.28 170.611 36.28V28.28C170.159 28.28 169.919 28.1714 169.623 27.8491L163.726 33.2549ZM211.541 19.032V23.032H215.541V19.032H211.541ZM207.125 19.032V15.032H203.125V19.032H207.125ZM207.125 39V43H211.125V39H207.125ZM198.917 39H194.917V43H198.917V39ZM198.917 19.032H202.917V15.032H198.917V19.032ZM195.941 19.032H191.941V23.032H195.941V19.032ZM195.941 12.216V8.216H191.941V12.216H195.941ZM198.917 12.216V16.216H202.917V12.216H198.917ZM201.749 3.96L204.422 6.93568L204.436 6.92325L204.45 6.91069L201.749 3.96ZM211.397 1.416H215.397V-2.16418L211.839 -2.55954L211.397 1.416ZM211.397 8.376L211.153 12.3685L215.397 12.6284V8.376H211.397ZM208.085 9.048L210.676 12.0958L210.676 12.0958L208.085 9.048ZM207.125 12.216H203.125V16.216H207.125V12.216ZM211.541 12.216H215.541V8.216H211.541V12.216ZM211.541 15.032H207.125V23.032H211.541V15.032ZM203.125 19.032V39H211.125V19.032H203.125ZM207.125 35H198.917V43H207.125V35ZM202.917 39V19.032H194.917V39H202.917ZM198.917 15.032H195.941V23.032H198.917V15.032ZM199.941 19.032V12.216H191.941V19.032H199.941ZM195.941 16.216H198.917V8.216H195.941V16.216ZM202.917 12.216V11.448H194.917V12.216H202.917ZM202.917 11.448C202.917 8.92751 203.614 7.66193 204.422 6.93568L199.076 0.984315C196.108 3.65006 194.917 7.37649 194.917 11.448H202.917ZM204.45 6.91069C205.338 6.09727 206.982 5.368 210.053 5.368V-2.632C205.828 -2.632 201.936 -1.63327 199.048 1.00931L204.45 6.91069ZM210.053 5.368C210.325 5.368 210.539 5.37162 210.702 5.37745C210.783 5.38033 210.845 5.38354 210.891 5.38652C210.938 5.38957 210.957 5.39175 210.955 5.39153L211.839 -2.55954C211.318 -2.61736 210.685 -2.632 210.053 -2.632V5.368ZM207.397 1.416V8.376H215.397V1.416H207.397ZM211.641 4.38348C209.842 4.27333 207.373 4.40377 205.494 6.00024L210.676 12.0958C210.335 12.3856 210.082 12.4138 210.188 12.3921C210.232 12.3832 210.332 12.3674 210.499 12.3594C210.666 12.3514 210.881 12.3519 211.153 12.3685L211.641 4.38348ZM205.494 6.00024C203.506 7.69031 203.125 10.1624 203.125 11.976H211.125C211.125 11.7728 211.137 11.628 211.149 11.5331C211.162 11.4377 211.174 11.4103 211.166 11.4342C211.158 11.4594 211.126 11.5485 211.047 11.673C210.966 11.8012 210.845 11.9519 210.676 12.0958L205.494 6.00024ZM203.125 11.976V12.216H211.125V11.976H203.125ZM207.125 16.216H211.541V8.216H207.125V16.216ZM207.541 12.216V19.032H215.541V12.216H207.541ZM225.094 8.184L222.317 11.0634L222.37 11.1138L222.424 11.1623L225.094 8.184ZM225.094 1.848L227.816 4.77917L227.82 4.77557L225.094 1.848ZM232.102 1.848L229.325 4.72738L229.378 4.77779L229.432 4.82627L232.102 1.848ZM232.102 8.184L234.824 11.1152L234.828 11.1116L232.102 8.184ZM232.726 12.216H236.726V8.216H232.726V12.216ZM232.726 39V43H236.726V39H232.726ZM224.518 39H220.518V43H224.518V39ZM224.518 12.216V8.216H220.518V12.216H224.518ZM228.646 5.432C228.028 5.432 227.845 5.27851 227.764 5.20572L222.424 11.1623C224.199 12.7535 226.383 13.432 228.646 13.432V5.432ZM227.87 5.30462C227.82 5.25623 227.794 5.22272 227.783 5.20615C227.772 5.19024 227.769 5.18291 227.768 5.1818C227.768 5.18067 227.764 5.17283 227.76 5.15252C227.756 5.1314 227.75 5.08784 227.75 5.016H219.75C219.75 7.34684 220.637 9.44323 222.317 11.0634L227.87 5.30462ZM227.75 5.016C227.75 4.92978 227.757 4.87706 227.762 4.85139C227.767 4.82673 227.771 4.82066 227.768 4.8262C227.766 4.83204 227.763 4.83575 227.765 4.83372C227.766 4.83109 227.78 4.81228 227.816 4.77917L222.372 -1.08317C220.619 0.544735 219.75 2.68246 219.75 5.016H227.75ZM227.82 4.77557C227.906 4.69531 228.07 4.552 228.646 4.552V-3.448C226.342 -3.448 224.138 -2.72731 222.368 -1.07958L227.82 4.77557ZM228.646 4.552C229.165 4.552 229.275 4.67838 229.325 4.72738L234.878 -1.03138C233.137 -2.71039 230.942 -3.448 228.646 -3.448V4.552ZM229.432 4.82627C229.473 4.86337 229.489 4.88472 229.491 4.88772C229.493 4.88999 229.489 4.88406 229.484 4.87309C229.479 4.86232 229.48 4.86132 229.484 4.87729C229.487 4.89434 229.494 4.93828 229.494 5.016H237.494C237.494 2.63435 236.572 0.483486 234.772 -1.13028L229.432 4.82627ZM229.494 5.016C229.494 5.07912 229.488 5.11379 229.486 5.1263C229.483 5.13797 229.482 5.13885 229.484 5.1349C229.485 5.13106 229.484 5.13614 229.472 5.15213C229.46 5.16889 229.432 5.20454 229.376 5.25642L234.828 11.1116C236.554 9.50463 237.494 7.39443 237.494 5.016H229.494ZM229.38 5.25282C229.336 5.29381 229.208 5.432 228.646 5.432V13.432C230.9 13.432 233.076 12.7382 234.824 11.1152L229.38 5.25282ZM228.726 12.216V39H236.726V12.216H228.726ZM232.726 35H224.518V43H232.726V35ZM228.518 39V12.216H220.518V39H228.518ZM224.518 16.216H232.726V8.216H224.518V16.216ZM275.294 32.664H271.294V36.664H275.294V32.664ZM286.046 32.664H290.046V28.664H286.046V32.664ZM286.046 39V43H290.046V39H286.046ZM267.086 39H263.086V43H267.086V39ZM267.086 5.304V1.304H263.086V5.304H267.086ZM275.294 5.304H279.294V1.304H275.294V5.304ZM275.294 36.664H286.046V28.664H275.294V36.664ZM282.046 32.664V39H290.046V32.664H282.046ZM286.046 35H267.086V43H286.046V35ZM271.086 39V5.304H263.086V39H271.086ZM267.086 9.304H275.294V1.304H267.086V9.304ZM271.294 5.304V32.664H279.294V5.304H271.294ZM304.169 37.704L302.273 41.2259L302.284 41.2319L302.295 41.2379L304.169 37.704ZM299.225 32.904L295.749 34.8828L295.76 34.9029L295.772 34.9228L299.225 32.904ZM299.273 18.36L302.726 20.3788L302.733 20.3673L302.74 20.3559L299.273 18.36ZM304.265 13.512L306.139 17.0458L304.265 13.512ZM318.473 13.512L316.599 17.0458L318.473 13.512ZM323.465 18.36L319.999 20.3559L320.005 20.3673L320.012 20.3788L323.465 18.36ZM323.417 32.904L319.973 30.8691L319.969 30.8771L319.964 30.8852L323.417 32.904ZM318.377 37.704L316.525 34.1586L316.514 34.1643L316.503 34.1702L318.377 37.704ZM315.257 30.552L312.389 27.7637L312.369 27.7845L312.349 27.8055L315.257 30.552ZM315.305 20.664L312.356 23.3669L312.377 23.3888L312.397 23.4105L315.305 20.664ZM307.385 20.664L310.295 23.4081L310.315 23.3876L310.334 23.3669L307.385 20.664ZM307.337 30.552L304.347 33.2095L304.368 33.2323L304.388 33.2549L307.337 30.552ZM311.273 35.384C309.237 35.384 307.523 34.9549 306.043 34.1702L302.295 41.2379C305.039 42.6931 308.061 43.384 311.273 43.384V35.384ZM306.065 34.1821C304.646 33.4178 303.531 32.344 302.678 30.8852L295.772 34.9228C297.351 37.624 299.532 39.7502 302.273 41.2259L306.065 34.1821ZM302.701 30.9252C301.913 29.5403 301.449 27.8124 301.449 25.608H293.449C293.449 28.9716 294.169 32.1077 295.749 34.8828L302.701 30.9252ZM301.449 25.608C301.449 23.4629 301.917 21.7634 302.726 20.3788L295.82 16.3412C294.197 19.1166 293.449 22.2491 293.449 25.608H301.449ZM302.74 20.3559C303.588 18.8827 304.706 17.806 306.139 17.0458L302.391 9.97815C299.601 11.4579 297.39 13.6133 295.807 16.3641L302.74 20.3559ZM306.139 17.0458C307.619 16.2611 309.333 15.832 311.369 15.832V7.832C308.157 7.832 305.135 8.52293 302.391 9.97815L306.139 17.0458ZM311.369 15.832C313.405 15.832 315.119 16.2611 316.599 17.0458L320.347 9.97815C317.603 8.52293 314.581 7.832 311.369 7.832V15.832ZM316.599 17.0458C318.033 17.806 319.15 18.8827 319.999 20.3559L326.931 16.3641C325.348 13.6133 323.138 11.4579 320.347 9.97815L316.599 17.0458ZM320.012 20.3788C320.821 21.7634 321.289 23.4629 321.289 25.608H329.289C329.289 22.2491 328.541 19.1166 326.918 16.3412L320.012 20.3788ZM321.289 25.608C321.289 27.7334 320.814 29.4459 319.973 30.8691L326.861 34.9389C328.516 32.1381 329.289 28.9866 329.289 25.608H321.289ZM319.964 30.8852C319.129 32.3132 318.005 33.3854 316.525 34.1586L320.229 41.2494C323.037 39.7826 325.273 37.6548 326.87 34.9228L319.964 30.8852ZM316.503 34.1702C315.023 34.9549 313.309 35.384 311.273 35.384V43.384C314.485 43.384 317.507 42.6931 320.251 41.2378L316.503 34.1702ZM311.273 36.28C313.955 36.28 316.33 35.241 318.165 33.2985L312.349 27.8055C312.008 28.167 311.727 28.28 311.273 28.28V36.28ZM318.125 33.3403C320.187 31.2192 320.937 28.4352 320.937 25.608H312.937C312.937 27.0688 312.567 27.5808 312.389 27.7637L318.125 33.3403ZM320.937 25.608C320.937 22.81 320.219 20.0419 318.213 17.9175L312.397 23.4105C312.567 23.5901 312.937 24.118 312.937 25.608H320.937ZM318.254 17.9611C316.437 15.9794 314.054 14.936 311.369 14.936V22.936C311.82 22.936 312.061 23.0446 312.356 23.3669L318.254 17.9611ZM311.369 14.936C308.678 14.936 306.27 15.9605 304.436 17.9611L310.334 23.3669C310.612 23.0635 310.86 22.936 311.369 22.936V14.936ZM304.475 17.9199C302.474 20.0414 301.801 22.8348 301.801 25.608H309.801C309.801 24.0292 310.184 23.5266 310.295 23.4081L304.475 17.9199ZM301.801 25.608C301.801 28.3487 302.457 31.0822 304.347 33.2095L310.327 27.8945C310.17 27.7178 309.801 27.1553 309.801 25.608H301.801ZM304.388 33.2549C306.205 35.2366 308.588 36.28 311.273 36.28V28.28C310.822 28.28 310.581 28.1714 310.286 27.8491L304.388 33.2549ZM353.884 12.984L351.968 16.4956L351.985 16.5046L352.001 16.5134L353.884 12.984ZM357.195 16.008L353.789 18.1044L361.195 30.1402V16.008H357.195ZM357.195 12.216V8.216H353.195V12.216H357.195ZM365.404 12.216H369.404V8.216H365.404V12.216ZM363.915 45.624L360.338 43.8351L360.321 43.8695L360.304 43.9043L363.915 45.624ZM359.452 50.424L357.426 46.9749L357.414 46.982L357.402 46.9892L359.452 50.424ZM342.363 49.368L344.796 46.1929L344.783 46.1829L344.77 46.173L342.363 49.368ZM338.139 41.784V37.784H333.675L334.163 42.2214L338.139 41.784ZM346.251 41.784L350.132 40.8139L349.375 37.784H346.251V41.784ZM348.076 44.184L350.216 40.8047L350.175 40.7789L350.133 40.754L348.076 44.184ZM355.66 43.608L352.924 40.6899L352.877 40.734L352.831 40.7796L355.66 43.608ZM357.195 35.16H361.195V21.508L353.828 33.0013L357.195 35.16ZM353.884 38.232L355.799 41.7436L355.829 41.727L355.86 41.7098L353.884 38.232ZM342.94 37.704L340.776 41.0687L340.798 41.0825L340.82 41.096L342.94 37.704ZM338.668 32.856L335.068 34.6011L335.084 34.6341L335.101 34.6668L338.668 32.856ZM338.668 18.312L335.101 16.5012L335.09 16.5232L335.079 16.5453L338.668 18.312ZM342.94 13.512L345.06 16.904L342.94 13.512ZM355.467 20.76L352.562 23.5088L352.581 23.5292L352.601 23.5494L355.467 20.76ZM347.164 20.76L344.297 17.9706L344.296 17.9717L347.164 20.76ZM347.164 30.456L344.221 33.1659L344.258 33.2062L344.297 33.2454L347.164 30.456ZM355.467 30.456L352.601 27.6666L352.581 27.6868L352.562 27.7072L355.467 30.456ZM348.94 15.832C350.277 15.832 351.244 16.1005 351.968 16.4956L355.799 9.47241C353.707 8.33148 351.378 7.832 348.94 7.832V15.832ZM352.001 16.5134C352.888 16.9863 353.434 17.5276 353.789 18.1044L360.602 13.9116C359.421 11.9924 357.759 10.5177 355.766 9.45459L352.001 16.5134ZM361.195 16.008V12.216H353.195V16.008H361.195ZM357.195 16.216H365.404V8.216H357.195V16.216ZM361.404 12.216V38.952H369.404V12.216H361.404ZM361.404 38.952C361.404 40.8647 361.023 42.4657 360.338 43.8351L367.493 47.4129C368.793 44.8143 369.404 41.9673 369.404 38.952H361.404ZM360.304 43.9043C359.705 45.1631 358.787 46.1757 357.426 46.9749L361.477 53.8731C364.148 52.3043 366.206 50.1169 367.527 47.3437L360.304 43.9043ZM357.402 46.9892C356.192 47.7111 354.47 48.2 352.012 48.2V56.2C355.505 56.2 358.743 55.5049 361.501 53.8588L357.402 46.9892ZM352.012 48.2C348.676 48.2 346.388 47.4128 344.796 46.1929L339.931 52.5431C343.267 55.0992 347.411 56.2 352.012 56.2V48.2ZM344.77 46.173C343.229 45.0124 342.353 43.5042 342.116 41.3466L334.163 42.2214C334.63 46.4638 336.57 50.0116 339.957 52.563L344.77 46.173ZM338.139 45.784H346.251V37.784H338.139V45.784ZM342.371 42.7541C342.901 44.8746 344.209 46.5289 346.018 47.614L350.133 40.754C350.084 40.7246 350.063 40.7062 350.06 40.7035C350.057 40.7014 350.068 40.7105 350.084 40.7317C350.1 40.7531 350.114 40.7765 350.124 40.7977C350.134 40.8184 350.135 40.826 350.132 40.8139L342.371 42.7541ZM345.935 47.5633C347.673 48.6638 349.643 49.096 351.628 49.096V41.096C350.796 41.096 350.398 40.9202 350.216 40.8047L345.935 47.5633ZM351.628 49.096C354.148 49.096 356.594 48.3308 358.488 46.4364L352.831 40.7796C352.741 40.8692 352.499 41.096 351.628 41.096V49.096ZM358.395 46.5261C360.568 44.4893 361.195 41.6238 361.195 38.952H353.195C353.195 40.5682 352.799 40.8067 352.924 40.6899L358.395 46.5261ZM361.195 38.952V35.16H353.195V38.952H361.195ZM353.828 33.0013C353.41 33.654 352.805 34.2443 351.907 34.7542L355.86 41.7098C357.778 40.6197 359.381 39.162 360.563 37.3187L353.828 33.0013ZM351.968 34.7204C351.244 35.1155 350.277 35.384 348.94 35.384V43.384C351.378 43.384 353.707 42.8845 355.799 41.7436L351.968 34.7204ZM348.94 35.384C347.446 35.384 346.186 35.0164 345.06 34.312L340.82 41.096C343.277 42.6316 346.017 43.384 348.94 43.384V35.384ZM345.103 34.3393C343.964 33.6073 343 32.5538 342.234 31.0452L335.101 34.6668C336.447 37.3182 338.331 39.4967 340.776 41.0687L345.103 34.3393ZM342.267 31.1109C341.548 29.629 341.132 27.8112 341.132 25.56H333.132C333.132 28.8128 333.739 31.859 335.068 34.6011L342.267 31.1109ZM341.132 25.56C341.132 23.307 341.549 21.5155 342.256 20.0787L335.079 16.5453C333.738 19.2685 333.132 22.309 333.132 25.56H341.132ZM342.234 20.1228C342.996 18.6222 343.947 17.599 345.06 16.904L340.82 10.12C338.348 11.665 336.451 13.8418 335.101 16.5012L342.234 20.1228ZM345.06 16.904C346.186 16.1996 347.446 15.832 348.94 15.832V7.832C346.017 7.832 343.277 8.58438 340.82 10.12L345.06 16.904ZM361.195 25.608C361.195 22.7815 360.378 20.071 358.334 17.9706L352.601 23.5494C352.861 23.817 353.195 24.3384 353.195 25.608H361.195ZM358.373 18.0112C356.497 16.0273 354.069 14.984 351.34 14.984V22.984C351.874 22.984 352.198 23.1247 352.562 23.5088L358.373 18.0112ZM351.34 14.984C348.613 14.984 346.191 16.0233 344.297 17.9706L350.03 23.5494C350.44 23.1287 350.802 22.984 351.34 22.984V14.984ZM344.296 17.9717C342.265 20.0602 341.484 22.7695 341.484 25.56H349.484C349.484 24.2545 349.822 23.7638 350.031 23.5483L344.296 17.9717ZM341.484 25.56C341.484 28.3612 342.268 31.0455 344.221 33.1659L350.106 27.7461C349.819 27.4345 349.484 26.8548 349.484 25.56H341.484ZM344.297 33.2454C346.191 35.1927 348.613 36.232 351.34 36.232V28.232C350.802 28.232 350.44 28.0873 350.03 27.6666L344.297 33.2454ZM351.34 36.232C354.069 36.232 356.497 35.1887 358.373 33.2048L352.562 27.7072C352.198 28.0913 351.874 28.232 351.34 28.232V36.232ZM358.334 33.2454C360.378 31.145 361.195 28.4344 361.195 25.608H353.195C353.195 26.8775 352.861 27.399 352.601 27.6666L358.334 33.2454ZM385.55 37.704L383.653 41.2259L383.664 41.2319L383.676 41.2379L385.55 37.704ZM380.606 32.904L377.129 34.8828L377.141 34.9029L377.152 34.9228L380.606 32.904ZM380.654 18.36L384.107 20.3788L384.113 20.3673L384.12 20.3559L380.654 18.36ZM385.646 13.512L387.52 17.0458L385.646 13.512ZM399.854 13.512L397.98 17.0458L399.854 13.512ZM404.846 18.36L401.379 20.3559L401.386 20.3673L401.392 20.3788L404.846 18.36ZM404.798 32.904L401.354 30.8691L401.349 30.8771L401.344 30.8852L404.798 32.904ZM399.758 37.704L397.906 34.1586L397.895 34.1643L397.884 34.1702L399.758 37.704ZM396.638 30.552L393.77 27.7637L393.749 27.7845L393.73 27.8055L396.638 30.552ZM396.686 20.664L393.737 23.3669L393.757 23.3888L393.778 23.4105L396.686 20.664ZM388.766 20.664L391.676 23.4081L391.695 23.3876L391.714 23.3669L388.766 20.664ZM388.718 30.552L385.728 33.2095L385.748 33.2323L385.769 33.2549L388.718 30.552ZM392.654 35.384C390.618 35.384 388.904 34.9549 387.424 34.1702L383.676 41.2379C386.42 42.6931 389.441 43.384 392.654 43.384V35.384ZM387.446 34.1821C386.027 33.4178 384.912 32.344 384.059 30.8852L377.152 34.9228C378.732 37.624 380.913 39.7502 383.653 41.2259L387.446 34.1821ZM384.082 30.9252C383.294 29.5403 382.83 27.8124 382.83 25.608H374.83C374.83 28.9716 375.55 32.1077 377.129 34.8828L384.082 30.9252ZM382.83 25.608C382.83 23.4629 383.297 21.7634 384.107 20.3788L377.2 16.3412C375.578 19.1166 374.83 22.2491 374.83 25.608H382.83ZM384.12 20.3559C384.968 18.8827 386.086 17.806 387.52 17.0458L383.772 9.97815C380.981 11.4579 378.771 13.6133 377.187 16.3641L384.12 20.3559ZM387.52 17.0458C389 16.2611 390.714 15.832 392.75 15.832V7.832C389.537 7.832 386.516 8.52293 383.772 9.97815L387.52 17.0458ZM392.75 15.832C394.785 15.832 396.5 16.2611 397.98 17.0458L401.728 9.97815C398.984 8.52293 395.962 7.832 392.75 7.832V15.832ZM397.98 17.0458C399.413 17.806 400.531 18.8827 401.379 20.3559L408.312 16.3641C406.728 13.6133 404.518 11.4579 401.728 9.97815L397.98 17.0458ZM401.392 20.3788C402.202 21.7634 402.67 23.4629 402.67 25.608H410.67C410.67 22.2491 409.921 19.1166 408.299 16.3412L401.392 20.3788ZM402.67 25.608C402.67 27.7334 402.195 29.4459 401.354 30.8691L408.241 34.9389C409.896 32.1381 410.67 28.9866 410.67 25.608H402.67ZM401.344 30.8852C400.51 32.3132 399.386 33.3854 397.906 34.1586L401.61 41.2494C404.418 39.7826 406.654 37.6548 408.251 34.9228L401.344 30.8852ZM397.884 34.1702C396.404 34.9549 394.689 35.384 392.654 35.384V43.384C395.866 43.384 398.888 42.6931 401.632 41.2378L397.884 34.1702ZM392.654 36.28C395.335 36.28 397.711 35.241 399.546 33.2985L393.73 27.8055C393.388 28.167 393.108 28.28 392.654 28.28V36.28ZM399.506 33.3403C401.568 31.2192 402.318 28.4352 402.318 25.608H394.318C394.318 27.0688 393.947 27.5808 393.77 27.7637L399.506 33.3403ZM402.318 25.608C402.318 22.81 401.6 20.0419 399.594 17.9175L393.778 23.4105C393.947 23.5901 394.318 24.118 394.318 25.608H402.318ZM399.634 17.9611C397.818 15.9794 395.435 14.936 392.75 14.936V22.936C393.201 22.936 393.442 23.0446 393.737 23.3669L399.634 17.9611ZM392.75 14.936C390.059 14.936 387.651 15.9605 385.817 17.9611L391.714 23.3669C391.992 23.0635 392.241 22.936 392.75 22.936V14.936ZM385.855 17.9199C383.855 20.0414 383.182 22.8348 383.182 25.608H391.182C391.182 24.0292 391.564 23.5266 391.676 23.4081L385.855 17.9199ZM383.182 25.608C383.182 28.3487 383.837 31.0822 385.728 33.2095L391.707 27.8945C391.55 27.7178 391.182 27.1553 391.182 25.608H383.182ZM385.769 33.2549C387.586 35.2366 389.969 36.28 392.654 36.28V28.28C392.203 28.28 391.962 28.1714 391.666 27.8491L385.769 33.2549Z" fill="#D1EDFF" mask="url(#path-1-outside-1_108_129)"/>
</svg>
