<svg width="29" height="42" viewBox="0 0 29 42" fill="none" xmlns="http://www.w3.org/2000/svg">
<mask id="path-1-outside-1_81_87" maskUnits="userSpaceOnUse" x="-6.6748" y="-7" width="43" height="56" fill="black">
<rect fill="white" x="-6.6748" y="-7" width="43" height="56"/>
<path d="M12.3448 0.831998C14.2328 0.831998 15.8808 1.216 17.2888 1.984C18.7288 2.752 19.8328 3.76 20.6008 5.008V1.216H28.8088V27.952C28.8088 30.416 28.3128 32.64 27.3208 34.624C26.3608 36.64 24.8728 38.24 22.8568 39.424C20.8728 40.608 18.3928 41.2 15.4168 41.2C11.4488 41.2 8.23281 40.256 5.76881 38.368C3.30481 36.512 1.89681 33.984 1.54481 30.784H9.65681C9.91281 31.808 10.5208 32.608 11.4808 33.184C12.4408 33.792 13.6248 34.096 15.0328 34.096C16.7288 34.096 18.0728 33.6 19.0648 32.608C20.0888 31.648 20.6008 30.096 20.6008 27.952V24.16C19.8008 25.408 18.6968 26.432 17.2888 27.232C15.8808 28 14.2328 28.384 12.3448 28.384C10.1368 28.384 8.13681 27.824 6.34481 26.704C4.55281 25.552 3.12881 23.936 2.07281 21.856C1.04881 19.744 0.53681 17.312 0.53681 14.56C0.53681 11.808 1.04881 9.392 2.07281 7.312C3.12881 5.232 4.55281 3.632 6.34481 2.512C8.13681 1.392 10.1368 0.831998 12.3448 0.831998ZM20.6008 14.608C20.6008 12.56 20.0248 10.944 18.8728 9.76C17.7528 8.576 16.3768 7.984 14.7448 7.984C13.1128 7.984 11.7208 8.576 10.5688 9.76C9.44881 10.912 8.88881 12.512 8.88881 14.56C8.88881 16.608 9.44881 18.24 10.5688 19.456C11.7208 20.64 13.1128 21.232 14.7448 21.232C16.3768 21.232 17.7528 20.64 18.8728 19.456C20.0248 18.272 20.6008 16.656 20.6008 14.608Z"/>
</mask>
<path d="M12.3448 0.831998C14.2328 0.831998 15.8808 1.216 17.2888 1.984C18.7288 2.752 19.8328 3.76 20.6008 5.008V1.216H28.8088V27.952C28.8088 30.416 28.3128 32.64 27.3208 34.624C26.3608 36.64 24.8728 38.24 22.8568 39.424C20.8728 40.608 18.3928 41.2 15.4168 41.2C11.4488 41.2 8.23281 40.256 5.76881 38.368C3.30481 36.512 1.89681 33.984 1.54481 30.784H9.65681C9.91281 31.808 10.5208 32.608 11.4808 33.184C12.4408 33.792 13.6248 34.096 15.0328 34.096C16.7288 34.096 18.0728 33.6 19.0648 32.608C20.0888 31.648 20.6008 30.096 20.6008 27.952V24.16C19.8008 25.408 18.6968 26.432 17.2888 27.232C15.8808 28 14.2328 28.384 12.3448 28.384C10.1368 28.384 8.13681 27.824 6.34481 26.704C4.55281 25.552 3.12881 23.936 2.07281 21.856C1.04881 19.744 0.53681 17.312 0.53681 14.56C0.53681 11.808 1.04881 9.392 2.07281 7.312C3.12881 5.232 4.55281 3.632 6.34481 2.512C8.13681 1.392 10.1368 0.831998 12.3448 0.831998ZM20.6008 14.608C20.6008 12.56 20.0248 10.944 18.8728 9.76C17.7528 8.576 16.3768 7.984 14.7448 7.984C13.1128 7.984 11.7208 8.576 10.5688 9.76C9.44881 10.912 8.88881 12.512 8.88881 14.56C8.88881 16.608 9.44881 18.24 10.5688 19.456C11.7208 20.64 13.1128 21.232 14.7448 21.232C16.3768 21.232 17.7528 20.64 18.8728 19.456C20.0248 18.272 20.6008 16.656 20.6008 14.608Z" fill="#F2F2F2"/>
<path d="M17.2888 1.984L13.9368 8.12927L13.9657 8.145L13.9947 8.16047L17.2888 1.984ZM20.6008 5.008L14.6392 8.67668L27.6008 29.7393V5.008H20.6008ZM20.6008 1.216V-5.784H13.6008V1.216H20.6008ZM28.8088 1.216H35.8088V-5.784H28.8088V1.216ZM27.3208 34.624L21.0598 31.4935L21.0297 31.5537L21.0008 31.6145L27.3208 34.624ZM22.8568 39.424L19.3119 33.388L19.2907 33.4004L19.2696 33.413L22.8568 39.424ZM5.76881 38.368L10.0263 32.8116L10.0034 32.7941L9.98042 32.7767L5.76881 38.368ZM1.54481 30.784V23.784H-6.26741L-5.41322 31.5494L1.54481 30.784ZM9.65681 30.784L16.4478 29.0863L15.1222 23.784H9.65681V30.784ZM11.4808 33.184L15.2262 27.2703L15.1548 27.225L15.0823 27.1815L11.4808 33.184ZM19.0648 32.608L14.2772 27.5012L14.1949 27.5784L14.1151 27.6583L19.0648 32.608ZM20.6008 24.16H27.6008V0.268995L14.7077 20.3823L20.6008 24.16ZM17.2888 27.232L20.6408 33.3773L20.6941 33.3482L20.7469 33.3182L17.2888 27.232ZM6.34481 26.704L2.55951 32.5922L2.59701 32.6164L2.63482 32.64L6.34481 26.704ZM2.07281 21.856L-4.22589 24.9099L-4.1979 24.9676L-4.16886 25.0248L2.07281 21.856ZM2.07281 7.312L-4.16886 4.14315L-4.18836 4.18156L-4.20738 4.22021L2.07281 7.312ZM6.34481 2.512L10.0548 8.44799L10.0548 8.44799L6.34481 2.512ZM18.8728 9.76L13.7875 14.5704L13.8214 14.6062L13.8557 14.6415L18.8728 9.76ZM10.5688 9.76L5.55173 4.87851L5.54985 4.88045L10.5688 9.76ZM10.5688 19.456L5.42 24.1983L5.48491 24.2688L5.55173 24.3375L10.5688 19.456ZM18.8728 19.456L13.8557 14.5745L13.8214 14.6098L13.7875 14.6456L18.8728 19.456ZM12.3448 7.832C13.2695 7.832 13.7254 8.01391 13.9368 8.12927L20.6408 -4.16127C18.0363 -5.58192 15.1961 -6.168 12.3448 -6.168V7.832ZM13.9947 8.16047C14.4665 8.41209 14.594 8.60325 14.6392 8.67668L26.5624 1.33932C25.0716 -1.08325 22.9911 -2.90809 20.5829 -4.19247L13.9947 8.16047ZM27.6008 5.008V1.216H13.6008V5.008H27.6008ZM20.6008 8.216H28.8088V-5.784H20.6008V8.216ZM21.8088 1.216V27.952H35.8088V1.216H21.8088ZM21.8088 27.952C21.8088 29.4513 21.5141 30.585 21.0598 31.4935L33.5818 37.7545C35.1116 34.695 35.8088 31.3808 35.8088 27.952H21.8088ZM21.0008 31.6145C20.6717 32.3055 20.1811 32.8775 19.3119 33.388L26.4018 45.46C29.5645 43.6025 32.0499 40.9745 33.6408 37.6335L21.0008 31.6145ZM19.2696 33.413C18.6405 33.7885 17.4867 34.2 15.4168 34.2V48.2C19.2989 48.2 23.1051 47.4275 26.444 45.435L19.2696 33.413ZM15.4168 34.2C12.5554 34.2 10.9645 33.5305 10.0263 32.8116L1.51131 43.9244C5.5011 46.9815 10.3422 48.2 15.4168 48.2V34.2ZM9.98042 32.7767C9.1321 32.1377 8.65417 31.3943 8.50284 30.0186L-5.41322 31.5494C-4.86055 36.5737 -2.52248 40.8863 1.5572 43.9593L9.98042 32.7767ZM1.54481 37.784H9.65681V23.784H1.54481V37.784ZM2.86581 32.4817C3.60152 35.4246 5.43456 37.7196 7.87934 39.1865L15.0823 27.1815C15.2789 27.2995 15.5849 27.5308 15.8779 27.9164C16.1763 28.309 16.3577 28.7258 16.4478 29.0863L2.86581 32.4817ZM7.73545 39.0977C10.0564 40.5676 12.6155 41.096 15.0328 41.096V27.096C14.8292 27.096 14.7745 27.0738 14.8296 27.0879C14.8581 27.0952 14.9113 27.1111 14.9828 27.1415C15.0549 27.1722 15.1379 27.2144 15.2262 27.2703L7.73545 39.0977ZM15.0328 41.096C18.1712 41.096 21.4434 40.1289 24.0146 37.5577L14.1151 27.6583C14.3498 27.4235 14.6329 27.2515 14.8893 27.1569C15.1213 27.0713 15.2023 27.096 15.0328 27.096V41.096ZM23.8524 37.7148C26.8866 34.8702 27.6008 31.0196 27.6008 27.952H13.6008C13.6008 28.4976 13.5319 28.644 13.5692 28.531C13.5914 28.4636 13.6475 28.3171 13.7648 28.1253C13.8845 27.9296 14.053 27.7114 14.2772 27.5012L23.8524 37.7148ZM27.6008 27.952V24.16H13.6008V27.952H27.6008ZM14.7077 20.3823C14.5755 20.5885 14.345 20.8536 13.8307 21.1458L20.7469 33.3182C23.0486 32.0104 25.0261 30.2275 26.494 27.9377L14.7077 20.3823ZM13.9368 21.0867C13.7254 21.2021 13.2695 21.384 12.3448 21.384V35.384C15.1961 35.384 18.0363 34.7979 20.6408 33.3773L13.9368 21.0867ZM12.3448 21.384C11.387 21.384 10.6831 21.1607 10.0548 20.768L2.63482 32.64C5.59057 34.4873 8.88662 35.384 12.3448 35.384V21.384ZM10.1301 20.8158C9.48161 20.3989 8.86275 19.7671 8.31448 18.6872L-4.16886 25.0248C-2.60513 28.1049 -0.375993 30.7051 2.55951 32.5922L10.1301 20.8158ZM8.37151 18.8021C7.88217 17.7928 7.53681 16.4356 7.53681 14.56H-6.46319C-6.46319 18.1884 -5.78455 21.6952 -4.22589 24.9099L8.37151 18.8021ZM7.53681 14.56C7.53681 12.6812 7.88319 11.3581 8.353 10.4038L-4.20738 4.22021C-5.78557 7.4259 -6.46319 10.9348 -6.46319 14.56H7.53681ZM8.31448 10.4808C8.85568 9.41484 9.45266 8.82432 10.0548 8.44799L2.63482 -3.42399C-0.347045 -1.56033 -2.59806 1.04916 -4.16886 4.14315L8.31448 10.4808ZM10.0548 8.44799C10.6831 8.05533 11.387 7.832 12.3448 7.832V-6.168C8.88662 -6.168 5.59057 -5.27133 2.63482 -3.42399L10.0548 8.44799ZM27.6008 14.608C27.6008 11.1977 26.6022 7.6662 23.8899 4.87852L13.8557 14.6415C13.7889 14.5728 13.7254 14.4919 13.6719 14.4053C13.6188 14.3193 13.5892 14.2496 13.5751 14.2102C13.5478 14.1336 13.6008 14.2339 13.6008 14.608H27.6008ZM23.9581 4.9496C21.5139 2.36575 18.2978 0.983999 14.7448 0.983999V14.984C14.6954 14.984 14.4958 14.9706 14.2344 14.8581C13.9727 14.7456 13.824 14.609 13.7875 14.5704L23.9581 4.9496ZM14.7448 0.983999C11.1971 0.983999 8.00338 2.35876 5.55173 4.87852L15.5859 14.6415C15.5739 14.6538 15.4514 14.7697 15.2164 14.8696C14.9795 14.9704 14.7952 14.984 14.7448 14.984V0.983999ZM5.54985 4.88045C2.83644 7.67138 1.88881 11.2126 1.88881 14.56H15.8888C15.8888 14.1647 15.9437 14.0568 15.9158 14.1365C15.9011 14.1786 15.8686 14.2569 15.8085 14.3553C15.7477 14.4549 15.6725 14.5524 15.5878 14.6395L5.54985 4.88045ZM1.88881 14.56C1.88881 17.926 2.84228 21.3997 5.42 24.1983L15.7176 14.7137C15.7721 14.7728 15.8222 14.8403 15.863 14.9095C15.9034 14.9779 15.9231 15.0284 15.9299 15.0481C15.9427 15.0854 15.8888 14.9516 15.8888 14.56H1.88881ZM5.55173 24.3375C8.00338 26.8572 11.1971 28.232 14.7448 28.232V14.232C14.7952 14.232 14.9795 14.2456 15.2164 14.3464C15.4514 14.4463 15.5739 14.5622 15.5859 14.5745L5.55173 24.3375ZM14.7448 28.232C18.2978 28.232 21.5139 26.8502 23.9581 24.2664L13.7875 14.6456C13.824 14.607 13.9727 14.4704 14.2344 14.3579C14.4958 14.2454 14.6954 14.232 14.7448 14.232V28.232ZM23.8899 24.3375C26.6022 21.5498 27.6008 18.0183 27.6008 14.608H13.6008C13.6008 14.9821 13.5478 15.0824 13.5751 15.0058C13.5892 14.9664 13.6188 14.8967 13.6719 14.8107C13.7254 14.7241 13.7889 14.6432 13.8557 14.5745L23.8899 24.3375Z" fill="#A6D5F4" fill-opacity="0.21" mask="url(#path-1-outside-1_81_87)"/>
</svg>
