<svg width="46" height="28" viewBox="0 0 46 28" fill="none" xmlns="http://www.w3.org/2000/svg">
<mask id="path-1-outside-1_81_87" maskUnits="userSpaceOnUse" x="-7.6748" y="-7" width="60" height="42" fill="black">
<rect fill="white" x="-7.6748" y="-7" width="60" height="42"/>
<path d="M34.2276 0.927999C37.5556 0.927999 40.1956 1.936 42.1476 3.952C44.1316 5.968 45.1236 8.768 45.1236 12.352V28H36.9636V13.456C36.9636 11.728 36.4996 10.4 35.5716 9.472C34.6756 8.512 33.4276 8.032 31.8276 8.032C30.2276 8.032 28.9636 8.512 28.0356 9.472C27.1396 10.4 26.6916 11.728 26.6916 13.456V28H18.5316V13.456C18.5316 11.728 18.0676 10.4 17.1396 9.472C16.2436 8.512 14.9956 8.032 13.3956 8.032C11.7956 8.032 10.5316 8.512 9.60362 9.472C8.70762 10.4 8.25962 11.728 8.25962 13.456V28H0.0516227V1.216H8.25962V4.576C9.09162 3.456 10.1796 2.576 11.5236 1.936C12.8676 1.264 14.3876 0.927999 16.0836 0.927999C18.0996 0.927999 19.8916 1.36 21.4596 2.224C23.0596 3.088 24.3076 4.32 25.2036 5.92C26.1316 4.448 27.3956 3.248 28.9956 2.32C30.5956 1.392 32.3396 0.927999 34.2276 0.927999Z"/>
</mask>
<path d="M34.2276 0.927999C37.5556 0.927999 40.1956 1.936 42.1476 3.952C44.1316 5.968 45.1236 8.768 45.1236 12.352V28H36.9636V13.456C36.9636 11.728 36.4996 10.4 35.5716 9.472C34.6756 8.512 33.4276 8.032 31.8276 8.032C30.2276 8.032 28.9636 8.512 28.0356 9.472C27.1396 10.4 26.6916 11.728 26.6916 13.456V28H18.5316V13.456C18.5316 11.728 18.0676 10.4 17.1396 9.472C16.2436 8.512 14.9956 8.032 13.3956 8.032C11.7956 8.032 10.5316 8.512 9.60362 9.472C8.70762 10.4 8.25962 11.728 8.25962 13.456V28H0.0516227V1.216H8.25962V4.576C9.09162 3.456 10.1796 2.576 11.5236 1.936C12.8676 1.264 14.3876 0.927999 16.0836 0.927999C18.0996 0.927999 19.8916 1.36 21.4596 2.224C23.0596 3.088 24.3076 4.32 25.2036 5.92C26.1316 4.448 27.3956 3.248 28.9956 2.32C30.5956 1.392 32.3396 0.927999 34.2276 0.927999Z" fill="#F2F2F2"/>
<path d="M42.1476 3.952L37.1187 8.82128L37.1385 8.84172L37.1584 8.86199L42.1476 3.952ZM45.1236 28V35H52.1236V28H45.1236ZM36.9636 28H29.9636V35H36.9636V28ZM35.5716 9.472L30.4542 14.2482L30.5366 14.3364L30.6219 14.4217L35.5716 9.472ZM28.0356 9.472L23.0027 4.60685L22.9998 4.60984L28.0356 9.472ZM26.6916 28V35H33.6916V28H26.6916ZM18.5316 28H11.5316V35H18.5316V28ZM17.1396 9.472L12.0222 14.2482L12.1046 14.3364L12.1899 14.4217L17.1396 9.472ZM9.60362 9.472L4.5707 4.60684L4.56781 4.60984L9.60362 9.472ZM8.25962 28V35H15.2596V28H8.25962ZM0.0516227 28H-6.94838V35H0.0516227V28ZM0.0516227 1.216V-5.784H-6.94838V1.216H0.0516227ZM8.25962 1.216H15.2596V-5.784H8.25962V1.216ZM8.25962 4.576H1.25962V25.7376L13.8788 8.75027L8.25962 4.576ZM11.5236 1.936L14.5332 8.25602L14.5939 8.22709L14.6541 8.19699L11.5236 1.936ZM21.4596 2.224L18.0814 8.35487L18.1074 8.36921L18.1336 8.38334L21.4596 2.224ZM25.2036 5.92L19.0961 9.34022L24.8475 19.6107L31.1251 9.6531L25.2036 5.92ZM34.2276 7.928C36.0406 7.928 36.7285 8.41832 37.1187 8.82128L47.1766 -0.917285C43.6627 -4.54632 39.0706 -6.072 34.2276 -6.072V7.928ZM37.1584 8.86199C37.533 9.24256 38.1236 10.0904 38.1236 12.352H52.1236C52.1236 7.44556 50.7303 2.69343 47.1368 -0.957993L37.1584 8.86199ZM38.1236 12.352V28H52.1236V12.352H38.1236ZM45.1236 21H36.9636V35H45.1236V21ZM43.9636 28V13.456H29.9636V28H43.9636ZM43.9636 13.456C43.9636 10.4816 43.1384 7.13925 40.5214 4.52225L30.6219 14.4217C30.2888 14.0886 30.0971 13.7298 30.0074 13.4729C29.9286 13.2473 29.9636 13.2051 29.9636 13.456H43.9636ZM40.689 4.69577C38.1869 2.01496 34.9115 1.032 31.8276 1.032V15.032C31.9333 15.032 31.7693 15.0479 31.4508 14.9254C31.1034 14.7918 30.7436 14.5583 30.4542 14.2482L40.689 4.69577ZM31.8276 1.032C28.7351 1.032 25.5069 2.01629 23.0027 4.60685L33.0685 14.3372C32.8078 14.6069 32.4825 14.8153 32.1647 14.936C31.8719 15.0472 31.7244 15.032 31.8276 15.032V1.032ZM22.9998 4.60984C20.4642 7.23598 19.6916 10.5459 19.6916 13.456H33.6916C33.6916 13.1825 33.7286 13.1992 33.6604 13.4016C33.5821 13.6336 33.4042 13.9895 33.0714 14.3342L22.9998 4.60984ZM19.6916 13.456V28H33.6916V13.456H19.6916ZM26.6916 21H18.5316V35H26.6916V21ZM25.5316 28V13.456H11.5316V28H25.5316ZM25.5316 13.456C25.5316 10.4816 24.7064 7.13925 22.0894 4.52225L12.1899 14.4217C11.8568 14.0886 11.6651 13.7298 11.5754 13.4729C11.4966 13.2473 11.5316 13.2051 11.5316 13.456H25.5316ZM22.257 4.69577C19.7549 2.01496 16.4795 1.032 13.3956 1.032V15.032C13.5013 15.032 13.3373 15.0479 13.0188 14.9254C12.6714 14.7918 12.3116 14.5583 12.0222 14.2482L22.257 4.69577ZM13.3956 1.032C10.3031 1.032 7.07491 2.01629 4.57071 4.60684L14.6365 14.3372C14.3758 14.6069 14.0505 14.8153 13.7327 14.936C13.4399 15.0472 13.2924 15.032 13.3956 15.032V1.032ZM4.56781 4.60984C2.03223 7.23598 1.25962 10.5459 1.25962 13.456H15.2596C15.2596 13.1825 15.2966 13.1992 15.2284 13.4016C15.1501 13.6336 14.9722 13.9895 14.6394 14.3342L4.56781 4.60984ZM1.25962 13.456V28H15.2596V13.456H1.25962ZM8.25962 21H0.0516227V35H8.25962V21ZM7.05162 28V1.216H-6.94838V28H7.05162ZM0.0516227 8.216H8.25962V-5.784H0.0516227V8.216ZM1.25962 1.216V4.576H15.2596V1.216H1.25962ZM13.8788 8.75027C13.9837 8.60903 14.1501 8.43841 14.5332 8.25602L8.51409 -4.38402C6.2091 -3.28641 4.1995 -1.69703 2.64042 0.401728L13.8788 8.75027ZM14.6541 8.19699C14.9074 8.07033 15.3334 7.928 16.0836 7.928V-6.072C13.4419 -6.072 10.8278 -5.54233 8.39313 -4.32499L14.6541 8.19699ZM16.0836 7.928C17.0696 7.928 17.673 8.12985 18.0814 8.35487L24.8379 -3.90687C22.1102 -5.40985 19.1296 -6.072 16.0836 -6.072V7.928ZM18.1336 8.38334C18.555 8.61089 18.8429 8.88813 19.0961 9.34022L31.3112 2.49978C29.7723 -0.248135 27.5643 -2.43489 24.7857 -3.93534L18.1336 8.38334ZM31.1251 9.6531C31.4116 9.19869 31.8233 8.77213 32.5076 8.37522L25.4836 -3.73522C22.9679 -2.27613 20.8517 -0.302694 19.2821 2.1869L31.1251 9.6531ZM32.5076 8.37522C33.0177 8.07939 33.5463 7.928 34.2276 7.928V-6.072C31.133 -6.072 28.1736 -5.29539 25.4836 -3.73522L32.5076 8.37522Z" fill="#A6D5F4" fill-opacity="0.21" mask="url(#path-1-outside-1_81_87)"/>
</svg>
