<svg width="35" height="36" viewBox="0 0 35 36" fill="none" xmlns="http://www.w3.org/2000/svg">
<mask id="path-1-outside-1_81_87" maskUnits="userSpaceOnUse" x="-7.6748" y="-7" width="50" height="50" fill="black">
<rect fill="white" x="-7.6748" y="-7" width="50" height="50"/>
<path d="M17.5267 35.336C14.3587 35.336 11.4467 34.6 8.79069 33.128C6.16669 31.656 4.07069 29.608 2.50269 26.984C0.966685 24.328 0.198685 21.352 0.198685 18.056C0.198685 14.76 0.966685 11.8 2.50269 9.176C4.07069 6.552 6.16669 4.504 8.79069 3.032C11.4467 1.56 14.3587 0.823999 17.5267 0.823999C20.6947 0.823999 23.5907 1.56 26.2147 3.032C28.8707 4.504 30.9507 6.552 32.4547 9.176C33.9907 11.8 34.7587 14.76 34.7587 18.056C34.7587 21.352 33.9907 24.328 32.4547 26.984C30.9187 29.608 28.8387 31.656 26.2147 33.128C23.5907 34.6 20.6947 35.336 17.5267 35.336ZM17.5267 27.848C20.2147 27.848 22.3587 26.952 23.9587 25.16C25.5907 23.368 26.4067 21 26.4067 18.056C26.4067 15.08 25.5907 12.712 23.9587 10.952C22.3587 9.16 20.2147 8.264 17.5267 8.264C14.8067 8.264 12.6307 9.144 10.9987 10.904C9.39869 12.664 8.59869 15.048 8.59869 18.056C8.59869 21.032 9.39869 23.416 10.9987 25.208C12.6307 26.968 14.8067 27.848 17.5267 27.848Z"/>
</mask>
<path d="M17.5267 35.336C14.3587 35.336 11.4467 34.6 8.79069 33.128C6.16669 31.656 4.07069 29.608 2.50269 26.984C0.966685 24.328 0.198685 21.352 0.198685 18.056C0.198685 14.76 0.966685 11.8 2.50269 9.176C4.07069 6.552 6.16669 4.504 8.79069 3.032C11.4467 1.56 14.3587 0.823999 17.5267 0.823999C20.6947 0.823999 23.5907 1.56 26.2147 3.032C28.8707 4.504 30.9507 6.552 32.4547 9.176C33.9907 11.8 34.7587 14.76 34.7587 18.056C34.7587 21.352 33.9907 24.328 32.4547 26.984C30.9187 29.608 28.8387 31.656 26.2147 33.128C23.5907 34.6 20.6947 35.336 17.5267 35.336ZM17.5267 27.848C20.2147 27.848 22.3587 26.952 23.9587 25.16C25.5907 23.368 26.4067 21 26.4067 18.056C26.4067 15.08 25.5907 12.712 23.9587 10.952C22.3587 9.16 20.2147 8.264 17.5267 8.264C14.8067 8.264 12.6307 9.144 10.9987 10.904C9.39869 12.664 8.59869 15.048 8.59869 18.056C8.59869 21.032 9.39869 23.416 10.9987 25.208C12.6307 26.968 14.8067 27.848 17.5267 27.848Z" fill="#F2F2F2"/>
<path d="M8.79069 33.128L5.36593 39.233L5.38167 39.2418L5.39745 39.2506L8.79069 33.128ZM2.50269 26.984L-3.55696 30.4884L-3.5319 30.5317L-3.50622 30.5747L2.50269 26.984ZM2.50269 9.176L-3.50622 5.58531L-3.52244 5.61245L-3.53842 5.63974L2.50269 9.176ZM8.79069 3.032L5.39745 -3.09058L5.38167 -3.08183L5.36593 -3.073L8.79069 3.032ZM26.2147 3.032L22.7899 9.137L22.8057 9.14583L22.8215 9.15458L26.2147 3.032ZM32.4547 9.176L26.3815 12.6569L26.3974 12.6847L26.4136 12.7123L32.4547 9.176ZM32.4547 26.984L38.4958 30.5203L38.5051 30.5043L38.5143 30.4884L32.4547 26.984ZM26.2147 33.128L29.6394 39.233L29.6394 39.233L26.2147 33.128ZM23.9587 25.16L18.7833 20.4467L18.7601 20.4722L18.7371 20.4979L23.9587 25.16ZM23.9587 10.952L18.7371 15.6141L18.781 15.6633L18.8258 15.7116L23.9587 10.952ZM10.9987 10.904L5.86581 6.14442L5.84233 6.16974L5.81911 6.19529L10.9987 10.904ZM10.9987 25.208L5.77712 29.8701L5.82101 29.9193L5.86581 29.9676L10.9987 25.208ZM17.5267 28.336C15.4925 28.336 13.7559 27.8766 12.1839 27.0054L5.39745 39.2506C9.1375 41.3234 13.2248 42.336 17.5267 42.336V28.336ZM12.2154 27.023C10.6753 26.159 9.46305 24.9855 8.51159 23.3933L-3.50622 30.5747C-1.32168 34.2305 1.65804 37.153 5.36593 39.233L12.2154 27.023ZM8.56233 23.4796C7.68798 21.9677 7.19869 20.216 7.19869 18.056H-6.80131C-6.80131 22.488 -5.75461 26.6883 -3.55696 30.4884L8.56233 23.4796ZM7.19869 18.056C7.19869 15.8951 7.68805 14.1741 8.54379 12.7123L-3.53842 5.63974C-5.75468 9.42586 -6.80131 13.6249 -6.80131 18.056H7.19869ZM8.51159 12.7667C9.46305 11.1745 10.6753 10.001 12.2154 9.137L5.36593 -3.073C1.65804 -0.992966 -1.32167 1.92954 -3.50622 5.58531L8.51159 12.7667ZM12.1839 9.15458C13.7559 8.28337 15.4925 7.824 17.5267 7.824V-6.176C13.2248 -6.176 9.1375 -5.16338 5.39745 -3.09058L12.1839 9.15458ZM17.5267 7.824C19.5611 7.824 21.268 8.28322 22.7899 9.137L29.6394 -3.073C25.9134 -5.16322 21.8282 -6.176 17.5267 -6.176V7.824ZM22.8215 9.15458C24.3645 10.0098 25.5157 11.1463 26.3815 12.6569L38.5278 5.69505C36.3857 1.9577 33.3768 -1.00178 29.6079 -3.09058L22.8215 9.15458ZM26.4136 12.7123C27.2693 14.1741 27.7587 15.8951 27.7587 18.056H41.7587C41.7587 13.6249 40.712 9.42586 38.4958 5.63975L26.4136 12.7123ZM27.7587 18.056C27.7587 20.216 27.2694 21.9677 26.395 23.4796L38.5143 30.4884C40.712 26.6883 41.7587 22.488 41.7587 18.056H27.7587ZM26.4136 23.4477C25.499 25.0102 24.3171 26.1663 22.7899 27.023L29.6394 39.233C33.3603 37.1457 36.3384 34.2058 38.4958 30.5203L26.4136 23.4477ZM22.7899 27.023C21.268 27.8768 19.5611 28.336 17.5267 28.336V42.336C21.8282 42.336 25.9134 41.3232 29.6394 39.233L22.7899 27.023ZM17.5267 34.848C21.9447 34.848 26.0859 33.2878 29.1802 29.8221L18.7371 20.4979C18.6315 20.6162 18.4847 20.848 17.5267 20.848V34.848ZM29.1341 29.8733C32.1804 26.5283 33.4067 22.3501 33.4067 18.056H19.4067C19.4067 19.6499 19.0009 20.2077 18.7833 20.4467L29.1341 29.8733ZM33.4067 18.056C33.4067 13.7582 32.1946 9.53886 29.0916 6.19242L18.8258 15.7116C18.9868 15.8851 19.4067 16.4018 19.4067 18.056H33.4067ZM29.1802 6.28989C26.0859 2.82421 21.9447 1.264 17.5267 1.264V15.264C18.4847 15.264 18.6315 15.4958 18.7371 15.6141L29.1802 6.28989ZM17.5267 1.264C13.1447 1.264 9.00526 2.75874 5.86581 6.14442L16.1316 15.6636C16.2561 15.5293 16.4687 15.264 17.5267 15.264V1.264ZM5.81911 6.19529C2.7617 9.55843 1.59869 13.7846 1.59869 18.056H15.5987C15.5987 16.3114 16.0357 15.7696 16.1783 15.6127L5.81911 6.19529ZM1.59869 18.056C1.59869 22.324 2.7757 26.5085 5.77712 29.8701L16.2202 20.5459C16.0217 20.3235 15.5987 19.74 15.5987 18.056H1.59869ZM5.86581 29.9676C9.00526 33.3533 13.1447 34.848 17.5267 34.848V20.848C16.4687 20.848 16.2561 20.5827 16.1316 20.4484L5.86581 29.9676Z" fill="#A6D5F4" fill-opacity="0.21" mask="url(#path-1-outside-1_81_87)"/>
</svg>
