<svg width="27" height="34" viewBox="0 0 27 34" fill="none" xmlns="http://www.w3.org/2000/svg">
<mask id="path-1-outside-1_81_87" maskUnits="userSpaceOnUse" x="-6.6748" y="-7" width="40" height="48" fill="black">
<rect fill="white" x="-6.6748" y="-7" width="40" height="48"/>
<path d="M26.1613 11.152C26.1613 13.104 25.7133 14.896 24.8173 16.528C23.9213 18.128 22.5453 19.424 20.6893 20.416C18.8333 21.408 16.5293 21.904 13.7773 21.904H8.68931V34H0.48131V0.303999H13.7773C16.4653 0.303999 18.7373 0.767999 20.5933 1.696C22.4493 2.624 23.8413 3.904 24.7693 5.536C25.6973 7.168 26.1613 9.04 26.1613 11.152ZM13.1533 15.376C14.7213 15.376 15.8893 15.008 16.6573 14.272C17.4253 13.536 17.8093 12.496 17.8093 11.152C17.8093 9.808 17.4253 8.768 16.6573 8.032C15.8893 7.296 14.7213 6.928 13.1533 6.928H8.68931V15.376H13.1533Z"/>
</mask>
<path d="M26.1613 11.152C26.1613 13.104 25.7133 14.896 24.8173 16.528C23.9213 18.128 22.5453 19.424 20.6893 20.416C18.8333 21.408 16.5293 21.904 13.7773 21.904H8.68931V34H0.48131V0.303999H13.7773C16.4653 0.303999 18.7373 0.767999 20.5933 1.696C22.4493 2.624 23.8413 3.904 24.7693 5.536C25.6973 7.168 26.1613 9.04 26.1613 11.152ZM13.1533 15.376C14.7213 15.376 15.8893 15.008 16.6573 14.272C17.4253 13.536 17.8093 12.496 17.8093 11.152C17.8093 9.808 17.4253 8.768 16.6573 8.032C15.8893 7.296 14.7213 6.928 13.1533 6.928H8.68931V15.376H13.1533Z" fill="#F2F2F2"/>
<path d="M24.8173 16.528L30.9249 19.9482L30.9392 19.9226L30.9534 19.8968L24.8173 16.528ZM20.6893 20.416L17.3897 14.2425L17.3897 14.2425L20.6893 20.416ZM8.68931 21.904V14.904H1.68931V21.904H8.68931ZM8.68931 34V41H15.6893V34H8.68931ZM0.48131 34H-6.51869V41H0.48131V34ZM0.48131 0.303999V-6.696H-6.51869V0.303999H0.48131ZM20.5933 1.696L23.7238 -4.56499L23.7238 -4.56499L20.5933 1.696ZM8.68931 6.928V-0.0720005H1.68931V6.928H8.68931ZM8.68931 15.376H1.68931V22.376H8.68931V15.376ZM19.1613 11.152C19.1613 11.9854 18.9827 12.6102 18.6813 13.1592L30.9534 19.8968C32.444 17.1818 33.1613 14.2226 33.1613 11.152H19.1613ZM18.7098 13.1078C18.5597 13.3758 18.2443 13.7857 17.3897 14.2425L23.989 26.5895C26.8464 25.0623 29.2829 22.8802 30.9249 19.9482L18.7098 13.1078ZM17.3897 14.2425C16.8132 14.5506 15.7208 14.904 13.7773 14.904V28.904C17.3379 28.904 20.8534 28.2654 23.989 26.5895L17.3897 14.2425ZM13.7773 14.904H8.68931V28.904H13.7773V14.904ZM1.68931 21.904V34H15.6893V21.904H1.68931ZM8.68931 27H0.48131V41H8.68931V27ZM7.48131 34V0.303999H-6.51869V34H7.48131ZM0.48131 7.304H13.7773V-6.696H0.48131V7.304ZM13.7773 7.304C15.6885 7.304 16.8225 7.63683 17.4628 7.95699L23.7238 -4.56499C20.6521 -6.10083 17.2421 -6.696 13.7773 -6.696V7.304ZM17.4628 7.95699C18.2142 8.33266 18.5133 8.69549 18.6843 8.99611L30.8543 2.07588C29.1693 -0.887499 26.6845 -3.08466 23.7238 -4.56499L17.4628 7.95699ZM18.6843 8.99611C18.9406 9.44686 19.1613 10.0986 19.1613 11.152H33.1613C33.1613 7.98135 32.454 4.88913 30.8543 2.07588L18.6843 8.99611ZM13.1533 22.376C15.6803 22.376 18.9253 21.7939 21.5006 19.3259L11.814 9.21808C12.3161 8.73689 12.8153 8.51378 13.1018 8.42354C13.3582 8.34275 13.4133 8.376 13.1533 8.376V22.376ZM21.5006 19.3259C23.9887 16.9416 24.8093 13.8714 24.8093 11.152H10.8093C10.8093 11.1669 10.8064 10.9168 10.9546 10.5154C11.1143 10.0829 11.399 9.61575 11.814 9.21808L21.5006 19.3259ZM24.8093 11.152C24.8093 8.43256 23.9887 5.36243 21.5006 2.97808L11.814 13.0859C11.399 12.6882 11.1143 12.2211 10.9546 11.7886C10.8064 11.3872 10.8093 11.1371 10.8093 11.152H24.8093ZM21.5006 2.97808C18.9253 0.510079 15.6803 -0.0720005 13.1533 -0.0720005V13.928C13.4133 13.928 13.3582 13.9613 13.1018 13.8805C12.8153 13.7902 12.3161 13.5671 11.814 13.0859L21.5006 2.97808ZM13.1533 -0.0720005H8.68931V13.928H13.1533V-0.0720005ZM1.68931 6.928V15.376H15.6893V6.928H1.68931ZM8.68931 22.376H13.1533V8.376H8.68931V22.376Z" fill="#A6D5F4" fill-opacity="0.21" mask="url(#path-1-outside-1_81_87)"/>
</svg>
