<svg width="17" height="28" viewBox="0 0 17 28" fill="none" xmlns="http://www.w3.org/2000/svg">
<mask id="path-1-outside-1_81_87" maskUnits="userSpaceOnUse" x="-7.6748" y="-7" width="32" height="42" fill="black">
<rect fill="white" x="-7.6748" y="-7" width="32" height="42"/>
<path d="M8.40025 5.68C9.36025 4.208 10.5602 3.056 12.0002 2.224C13.4402 1.36 15.0402 0.927999 16.8002 0.927999V9.616H14.5442C12.4962 9.616 10.9602 10.064 9.93625 10.96C8.91225 11.824 8.40025 13.36 8.40025 15.568V28H0.192248V1.216H8.40025V5.68Z"/>
</mask>
<path d="M8.40025 5.68C9.36025 4.208 10.5602 3.056 12.0002 2.224C13.4402 1.36 15.0402 0.927999 16.8002 0.927999V9.616H14.5442C12.4962 9.616 10.9602 10.064 9.93625 10.96C8.91225 11.824 8.40025 13.36 8.40025 15.568V28H0.192248V1.216H8.40025V5.68Z" fill="#F2F2F2"/>
<path d="M8.40025 5.68H1.40025V29.2276L14.2635 9.50387L8.40025 5.68ZM12.0002 2.224L15.5022 8.28506L15.5522 8.25616L15.6017 8.22645L12.0002 2.224ZM16.8002 0.927999H23.8002V-6.072H16.8002V0.927999ZM16.8002 9.616V16.616H23.8002V9.616H16.8002ZM9.93625 10.96L14.4503 16.31L14.4984 16.2695L14.5458 16.228L9.93625 10.96ZM8.40025 28V35H15.4002V28H8.40025ZM0.192248 28H-6.80775V35H0.192248V28ZM0.192248 1.216V-5.784H-6.80775V1.216H0.192248ZM8.40025 1.216H15.4002V-5.784H8.40025V1.216ZM14.2635 9.50387C14.658 8.89901 15.068 8.53591 15.5022 8.28506L8.49831 -3.83706C6.05248 -2.42391 4.0625 -0.483012 2.53697 1.85612L14.2635 9.50387ZM15.6017 8.22645C15.9005 8.04719 16.2453 7.928 16.8002 7.928V-6.072C13.8352 -6.072 10.98 -5.32719 8.39878 -3.77845L15.6017 8.22645ZM9.80025 0.927999V9.616H23.8002V0.927999H9.80025ZM16.8002 2.616H14.5442V16.616H16.8002V2.616ZM14.5442 2.616C11.6298 2.616 8.13657 3.23334 5.32672 5.69196L14.5458 16.228C14.363 16.388 14.1907 16.4981 14.0541 16.5698C13.9202 16.6401 13.833 16.6671 13.8162 16.672C13.8008 16.6765 13.8476 16.6616 13.9725 16.6459C14.0973 16.6303 14.2848 16.616 14.5442 16.616V2.616ZM5.42215 5.60996C2.04153 8.46236 1.40025 12.6021 1.40025 15.568H15.4002C15.4002 14.9622 15.4759 14.8211 15.425 14.9736C15.3592 15.1712 15.1094 15.7539 14.4503 16.31L5.42215 5.60996ZM1.40025 15.568V28H15.4002V15.568H1.40025ZM8.40025 21H0.192248V35H8.40025V21ZM7.19225 28V1.216H-6.80775V28H7.19225ZM0.192248 8.216H8.40025V-5.784H0.192248V8.216ZM1.40025 1.216V5.68H15.4002V1.216H1.40025Z" fill="#A6D5F4" fill-opacity="0.21" mask="url(#path-1-outside-1_81_87)"/>
</svg>
