<svg width="24" height="29" viewBox="0 0 24 29" fill="none" xmlns="http://www.w3.org/2000/svg">
<mask id="path-1-outside-1_81_87" maskUnits="userSpaceOnUse" x="-7.6748" y="-7" width="40" height="43" fill="black">
<rect fill="white" x="-7.6748" y="-7" width="40" height="43"/>
<path d="M12.9711 28.384C10.6351 28.384 8.55506 27.984 6.73106 27.184C4.90706 26.384 3.46706 25.296 2.41106 23.92C1.35506 22.512 0.76306 20.944 0.63506 19.216H8.74706C8.84306 20.144 9.27506 20.896 10.0431 21.472C10.8111 22.048 11.7551 22.336 12.8751 22.336C13.8991 22.336 14.6831 22.144 15.2271 21.76C15.8031 21.344 16.0911 20.816 16.0911 20.176C16.0911 19.408 15.6911 18.848 14.8911 18.496C14.0911 18.112 12.7951 17.696 11.0031 17.248C9.08306 16.8 7.48306 16.336 6.20306 15.856C4.92306 15.344 3.81906 14.56 2.89106 13.504C1.96306 12.416 1.49906 10.96 1.49906 9.136C1.49906 7.6 1.91506 6.208 2.74706 4.96C3.61106 3.68 4.85906 2.672 6.49106 1.936C8.15506 1.2 10.1231 0.831998 12.3951 0.831998C15.7551 0.831998 18.3951 1.664 20.3151 3.328C22.2671 4.992 23.3871 7.2 23.6751 9.952H16.0911C15.9631 9.024 15.5471 8.288 14.8431 7.744C14.1711 7.2 13.2751 6.928 12.1551 6.928C11.1951 6.928 10.4591 7.12 9.94706 7.504C9.43506 7.856 9.17906 8.352 9.17906 8.992C9.17906 9.76 9.57906 10.336 10.3791 10.72C11.2111 11.104 12.4911 11.488 14.2191 11.872C16.2031 12.384 17.8191 12.896 19.0671 13.408C20.3151 13.888 21.4031 14.688 22.3311 15.808C23.2911 16.896 23.7871 18.368 23.8191 20.224C23.8191 21.792 23.3711 23.2 22.4751 24.448C21.6111 25.664 20.3471 26.624 18.6831 27.328C17.0511 28.032 15.1471 28.384 12.9711 28.384Z"/>
</mask>
<path d="M12.9711 28.384C10.6351 28.384 8.55506 27.984 6.73106 27.184C4.90706 26.384 3.46706 25.296 2.41106 23.92C1.35506 22.512 0.76306 20.944 0.63506 19.216H8.74706C8.84306 20.144 9.27506 20.896 10.0431 21.472C10.8111 22.048 11.7551 22.336 12.8751 22.336C13.8991 22.336 14.6831 22.144 15.2271 21.76C15.8031 21.344 16.0911 20.816 16.0911 20.176C16.0911 19.408 15.6911 18.848 14.8911 18.496C14.0911 18.112 12.7951 17.696 11.0031 17.248C9.08306 16.8 7.48306 16.336 6.20306 15.856C4.92306 15.344 3.81906 14.56 2.89106 13.504C1.96306 12.416 1.49906 10.96 1.49906 9.136C1.49906 7.6 1.91506 6.208 2.74706 4.96C3.61106 3.68 4.85906 2.672 6.49106 1.936C8.15506 1.2 10.1231 0.831998 12.3951 0.831998C15.7551 0.831998 18.3951 1.664 20.3151 3.328C22.2671 4.992 23.3871 7.2 23.6751 9.952H16.0911C15.9631 9.024 15.5471 8.288 14.8431 7.744C14.1711 7.2 13.2751 6.928 12.1551 6.928C11.1951 6.928 10.4591 7.12 9.94706 7.504C9.43506 7.856 9.17906 8.352 9.17906 8.992C9.17906 9.76 9.57906 10.336 10.3791 10.72C11.2111 11.104 12.4911 11.488 14.2191 11.872C16.2031 12.384 17.8191 12.896 19.0671 13.408C20.3151 13.888 21.4031 14.688 22.3311 15.808C23.2911 16.896 23.7871 18.368 23.8191 20.224C23.8191 21.792 23.3711 23.2 22.4751 24.448C21.6111 25.664 20.3471 26.624 18.6831 27.328C17.0511 28.032 15.1471 28.384 12.9711 28.384Z" fill="#F2F2F2"/>
<path d="M6.73106 27.184L9.54269 20.7735L9.54269 20.7735L6.73106 27.184ZM2.41106 23.92L-3.18894 28.12L-3.16569 28.151L-3.1421 28.1817L2.41106 23.92ZM0.63506 19.216V12.216H-6.90264L-6.34581 19.7331L0.63506 19.216ZM8.74706 19.216L15.7099 18.4957L15.0603 12.216H8.74706V19.216ZM10.0431 21.472L14.2431 15.872L14.2431 15.872L10.0431 21.472ZM15.2271 21.76L19.2638 27.4788L19.2948 27.4569L19.3255 27.4348L15.2271 21.76ZM14.8911 18.496L11.8619 24.8067L11.9661 24.8567L12.0719 24.9032L14.8911 18.496ZM11.0031 17.248L12.7008 10.457L12.6473 10.4436L12.5937 10.4311L11.0031 17.248ZM6.20306 15.856L3.60332 22.3553L3.67396 22.3836L3.74519 22.4103L6.20306 15.856ZM2.89106 13.504L-2.43478 18.0466L-2.40122 18.086L-2.36709 18.1248L2.89106 13.504ZM2.74706 4.96L-3.05488 1.04369L-3.06613 1.06036L-3.07729 1.0771L2.74706 4.96ZM6.49106 1.936L3.65952 -4.46575L3.63638 -4.45551L3.61331 -4.44511L6.49106 1.936ZM20.3151 3.328L15.7305 8.61782L15.7522 8.63655L15.7739 8.65511L20.3151 3.328ZM23.6751 9.952V16.952H31.4458L30.637 9.22342L23.6751 9.952ZM16.0911 9.952L9.15671 10.9085L9.9903 16.952H16.0911V9.952ZM14.8431 7.744L10.4387 13.1847L10.5002 13.2346L10.5629 13.283L14.8431 7.744ZM9.94706 7.504L13.9128 13.2723L14.0316 13.1906L14.1471 13.104L9.94706 7.504ZM10.3791 10.72L7.34994 17.0307L7.39763 17.0535L7.44565 17.0757L10.3791 10.72ZM14.2191 11.872L15.9682 5.09406L15.8534 5.06442L15.7376 5.03869L14.2191 11.872ZM19.0671 13.408L16.4102 19.8842L16.4819 19.9136L16.5542 19.9414L19.0671 13.408ZM22.3311 15.808L16.9409 20.2741L17.0103 20.3578L17.0822 20.4393L22.3311 15.808ZM23.8191 20.224H30.8191V20.1637L30.818 20.1033L23.8191 20.224ZM22.4751 24.448L16.7888 20.3656L16.7788 20.3795L16.7688 20.3935L22.4751 24.448ZM18.6831 27.328L15.9556 20.8812L15.933 20.8908L15.9104 20.9005L18.6831 27.328ZM12.9711 21.384C11.4376 21.384 10.3405 21.1234 9.54269 20.7735L3.91943 33.5945C6.76965 34.8446 9.83253 35.384 12.9711 35.384V21.384ZM9.54269 20.7735C8.63713 20.3763 8.20161 19.9676 7.96423 19.6583L-3.1421 28.1817C-1.26749 30.6244 1.17699 32.3917 3.91943 33.5945L9.54269 20.7735ZM8.01106 19.72C7.74449 19.3646 7.64346 19.0704 7.61593 18.6989L-6.34581 19.7331C-6.11734 22.8176 -5.03437 25.6594 -3.18894 28.12L8.01106 19.72ZM0.63506 26.216H8.74706V12.216H0.63506V26.216ZM1.78422 19.9363C2.08746 22.8676 3.56564 25.3639 5.84306 27.072L14.2431 15.872C14.5376 16.0929 14.9071 16.457 15.2128 16.9891C15.521 17.5256 15.6648 18.06 15.7099 18.4957L1.78422 19.9363ZM5.84306 27.072C8.01672 28.7022 10.5023 29.336 12.8751 29.336V15.336C12.9156 15.336 13.0973 15.3416 13.3697 15.4247C13.6528 15.511 13.9587 15.6587 14.2431 15.872L5.84306 27.072ZM12.8751 29.336C14.618 29.336 17.0588 29.0353 19.2638 27.4788L11.1903 16.0412C11.7685 15.6331 12.2824 15.4624 12.566 15.3929C12.8417 15.3254 12.9682 15.336 12.8751 15.336V29.336ZM19.3255 27.4348C21.491 25.8708 23.0911 23.3362 23.0911 20.176H9.09106C9.09106 19.4022 9.27698 18.5302 9.72979 17.7C10.1689 16.8949 10.7218 16.379 11.1286 16.0852L19.3255 27.4348ZM23.0911 20.176C23.0911 18.5099 22.6325 16.7148 21.4872 15.1113C20.3831 13.5655 18.9555 12.6367 17.7102 12.0888L12.0719 24.9032C11.6266 24.7073 10.7991 24.2345 10.0949 23.2487C9.34962 22.2052 9.09106 21.0741 9.09106 20.176H23.0911ZM17.9202 12.1853C16.4452 11.4773 14.5704 10.9244 12.7008 10.457L9.30531 24.039C10.1012 24.238 10.7183 24.413 11.1797 24.5611C11.4079 24.6343 11.5793 24.695 11.7019 24.7418C11.8279 24.7899 11.8747 24.8128 11.8619 24.8067L17.9202 12.1853ZM12.5937 10.4311C10.8515 10.0246 9.56428 9.64045 8.66093 9.3017L3.74519 22.4103C5.40184 23.0315 7.31465 23.5754 9.41245 24.0649L12.5937 10.4311ZM8.8028 9.35666C8.56496 9.26153 8.36588 9.12974 8.14921 8.8832L-2.36709 18.1248C-0.727756 19.9903 1.28116 21.4265 3.60332 22.3553L8.8028 9.35666ZM8.2169 8.96137C8.30073 9.05965 8.36972 9.16174 8.4229 9.25892C8.47553 9.3551 8.50363 9.42991 8.51658 9.47055C8.5412 9.54781 8.49906 9.46205 8.49906 9.136H-5.50094C-5.50094 12.1549 -4.71371 15.3748 -2.43478 18.0466L8.2169 8.96137ZM8.49906 9.136C8.49906 9.00788 8.51516 8.95372 8.51796 8.94436C8.52035 8.93636 8.5287 8.90697 8.57141 8.8429L-3.07729 1.0771C-4.69523 3.504 -5.50094 6.25333 -5.50094 9.136H8.49906ZM8.549 8.87631C8.57647 8.83561 8.72938 8.60548 9.36881 8.31711L3.61331 -4.44511C0.988741 -3.26148 -1.35435 -1.47562 -3.05488 1.04369L8.549 8.87631ZM9.3226 8.33775C9.90221 8.08138 10.8631 7.832 12.3951 7.832V-6.168C9.38301 -6.168 6.40792 -5.68139 3.65952 -4.46575L9.3226 8.33775ZM12.3951 7.832C14.6219 7.832 15.4456 8.37086 15.7305 8.61782L24.8996 -1.96182C21.3445 -5.04286 16.8882 -6.168 12.3951 -6.168V7.832ZM15.7739 8.65511C16.2451 9.0568 16.5959 9.56099 16.7131 10.6806L30.637 9.22342C30.1782 4.83901 28.289 0.927201 24.8562 -1.99911L15.7739 8.65511ZM23.6751 2.952H16.0911V16.952H23.6751V2.952ZM23.0254 8.99554C22.6616 6.35797 21.3609 3.93411 19.1232 2.205L10.5629 13.283C10.2161 13.015 9.86394 12.6346 9.58912 12.1484C9.31795 11.6686 9.20035 11.2249 9.15671 10.9085L23.0254 8.99554ZM19.2474 2.30328C17.0015 0.485133 14.3988 -0.0720005 12.1551 -0.0720005V13.928C12.1513 13.928 11.3406 13.9149 10.4387 13.1847L19.2474 2.30328ZM12.1551 -0.0720005C10.4003 -0.0720005 7.94198 0.25781 5.74706 1.904L14.1471 13.104C13.5526 13.5498 12.9989 13.7543 12.65 13.8453C12.3136 13.9331 12.1233 13.928 12.1551 13.928V-0.0720005ZM5.98136 1.73571C3.50271 3.43978 2.17906 6.12965 2.17906 8.992H16.1791C16.1791 9.62433 16.0463 10.4692 15.5914 11.3505C15.1324 12.2398 14.4982 12.8698 13.9128 13.2723L5.98136 1.73571ZM2.17906 8.992C2.17906 10.661 2.63782 12.4208 3.72947 13.9928C4.78072 15.5066 6.14266 16.4512 7.34994 17.0307L13.4082 4.40934C13.8155 4.60483 14.5774 5.06942 15.2287 6.00723C15.9203 7.00321 16.1791 8.09098 16.1791 8.992H2.17906ZM7.44565 17.0757C8.97519 17.7817 10.8471 18.2934 12.7005 18.7053L15.7376 5.03869C14.9898 4.87252 14.4095 4.72171 13.9745 4.59121C13.7595 4.52671 13.5968 4.47217 13.4793 4.42944C13.3595 4.38588 13.309 4.36269 13.3125 4.36428L7.44565 17.0757ZM12.4699 18.6499C14.2858 19.1185 15.567 19.5383 16.4102 19.8842L21.724 6.93182C20.0711 6.25371 18.1203 5.64945 15.9682 5.09406L12.4699 18.6499ZM16.5542 19.9414C16.5848 19.9532 16.7097 19.9951 16.9409 20.2741L27.7212 11.3419C26.0964 9.38086 24.0454 7.82283 21.5799 6.87458L16.5542 19.9414ZM17.0822 20.4393C16.9994 20.3455 16.9315 20.2483 16.8793 20.1567C16.8278 20.066 16.801 19.9972 16.7895 19.9632C16.768 19.8995 16.8142 20.0002 16.8201 20.3447L30.818 20.1033C30.7655 17.0594 29.9194 13.8281 27.5799 11.1767L17.0822 20.4393ZM16.8191 20.224C16.8191 20.2818 16.815 20.315 16.8131 20.328C16.8112 20.3405 16.8102 20.3409 16.8126 20.3336C16.815 20.3261 16.8174 20.3211 16.8172 20.3214C16.8169 20.3221 16.8096 20.3366 16.7888 20.3656L28.1613 28.5304C29.9303 26.0666 30.8191 23.2244 30.8191 20.224H16.8191ZM16.7688 20.3935C16.7686 20.3938 16.7631 20.4017 16.7474 20.4178C16.7314 20.4342 16.6997 20.4642 16.6453 20.5055C16.5359 20.5886 16.3236 20.7255 15.9556 20.8812L21.4105 33.7748C24.0165 32.6722 26.4205 30.9807 28.1813 28.5025L16.7688 20.3935ZM15.9104 20.9005C15.327 21.1522 14.4019 21.384 12.9711 21.384V35.384C15.8922 35.384 18.7752 34.9118 21.4557 33.7555L15.9104 20.9005Z" fill="#A6D5F4" fill-opacity="0.21" mask="url(#path-1-outside-1_81_87)"/>
</svg>
