<svg width="577" height="53" viewBox="0 0 577 53" fill="none" xmlns="http://www.w3.org/2000/svg">
<mask id="path-1-outside-1_108_115" maskUnits="userSpaceOnUse" x="-4" y="-4" width="585" height="61" fill="black">
<rect fill="white" x="-4" y="-4" width="585" height="61"/>
<path d="M13.5024 39.336C11.0384 39.336 8.83038 38.936 6.87838 38.136C4.92638 37.336 3.35838 36.152 2.17438 34.584C1.02238 33.016 0.414381 31.128 0.350381 28.92H9.08638C9.21438 30.168 9.64638 31.128 10.3824 31.8C11.1184 32.44 12.0784 32.76 13.2624 32.76C14.4784 32.76 15.4384 32.488 16.1424 31.944C16.8464 31.368 17.1984 30.584 17.1984 29.592C17.1984 28.76 16.9104 28.072 16.3344 27.528C15.7904 26.984 15.1024 26.536 14.2704 26.184C13.4704 25.832 12.3184 25.432 10.8144 24.984C8.63838 24.312 6.86238 23.64 5.48638 22.968C4.11038 22.296 2.92638 21.304 1.93438 19.992C0.942381 18.68 0.446381 16.968 0.446381 14.856C0.446381 11.72 1.58238 9.272 3.85438 7.512C6.12638 5.72 9.08638 4.824 12.7344 4.824C16.4464 4.824 19.4384 5.72 21.7104 7.512C23.9824 9.272 25.1984 11.736 25.3584 14.904H16.4784C16.4144 13.816 16.0144 12.968 15.2784 12.36C14.5424 11.72 13.5984 11.4 12.4464 11.4C11.4544 11.4 10.6544 11.672 10.0464 12.216C9.43838 12.728 9.13438 13.48 9.13438 14.472C9.13438 15.56 9.64638 16.408 10.6704 17.016C11.6944 17.624 13.2944 18.28 15.4704 18.984C17.6464 19.72 19.4064 20.424 20.7504 21.096C22.1264 21.768 23.3104 22.744 24.3024 24.024C25.2944 25.304 25.7904 26.952 25.7904 28.968C25.7904 30.888 25.2944 32.632 24.3024 34.2C23.3424 35.768 21.9344 37.016 20.0784 37.944C18.2224 38.872 16.0304 39.336 13.5024 39.336ZM44.0896 9.432C42.6496 9.432 41.4656 9.016 40.5376 8.184C39.6416 7.32 39.1936 6.264 39.1936 5.016C39.1936 3.736 39.6416 2.68 40.5376 1.848C41.4656 0.983997 42.6496 0.551997 44.0896 0.551997C45.4976 0.551997 46.6496 0.983997 47.5456 1.848C48.4736 2.68 48.9376 3.736 48.9376 5.016C48.9376 6.264 48.4736 7.32 47.5456 8.184C46.6496 9.016 45.4976 9.432 44.0896 9.432ZM48.1696 12.216V39H39.9616V12.216H48.1696ZM61.6059 25.56C61.6059 22.808 62.1179 20.392 63.1419 18.312C64.1979 16.232 65.6219 14.632 67.4139 13.512C69.2059 12.392 71.2059 11.832 73.4139 11.832C75.3019 11.832 76.9499 12.216 78.3579 12.984C79.7979 13.752 80.9019 14.76 81.6699 16.008V12.216H89.8779V39H81.6699V35.208C80.8699 36.456 79.7499 37.464 78.3099 38.232C76.9019 39 75.2539 39.384 73.3659 39.384C71.1899 39.384 69.2059 38.824 67.4139 37.704C65.6219 36.552 64.1979 34.936 63.1419 32.856C62.1179 30.744 61.6059 28.312 61.6059 25.56ZM81.6699 25.608C81.6699 23.56 81.0939 21.944 79.9419 20.76C78.8219 19.576 77.4459 18.984 75.8139 18.984C74.1819 18.984 72.7899 19.576 71.6379 20.76C70.5179 21.912 69.9579 23.512 69.9579 25.56C69.9579 27.608 70.5179 29.24 71.6379 30.456C72.7899 31.64 74.1819 32.232 75.8139 32.232C77.4459 32.232 78.8219 31.64 79.9419 30.456C81.0939 29.272 81.6699 27.656 81.6699 25.608ZM113.144 16.008C113.944 14.76 115.048 13.752 116.456 12.984C117.864 12.216 119.512 11.832 121.4 11.832C123.608 11.832 125.608 12.392 127.4 13.512C129.192 14.632 130.6 16.232 131.624 18.312C132.68 20.392 133.208 22.808 133.208 25.56C133.208 28.312 132.68 30.744 131.624 32.856C130.6 34.936 129.192 36.552 127.4 37.704C125.608 38.824 123.608 39.384 121.4 39.384C119.544 39.384 117.896 39 116.456 38.232C115.048 37.464 113.944 36.472 113.144 35.256V51.768H104.936V12.216H113.144V16.008ZM124.856 25.56C124.856 23.512 124.28 21.912 123.128 20.76C122.008 19.576 120.616 18.984 118.952 18.984C117.32 18.984 115.928 19.576 114.776 20.76C113.656 21.944 113.096 23.56 113.096 25.608C113.096 27.656 113.656 29.272 114.776 30.456C115.928 31.64 117.32 32.232 118.952 32.232C120.584 32.232 121.976 31.64 123.128 30.456C124.28 29.24 124.856 27.608 124.856 25.56ZM145.002 25.56C145.002 22.808 145.514 20.392 146.538 18.312C147.594 16.232 149.018 14.632 150.81 13.512C152.602 12.392 154.602 11.832 156.81 11.832C158.698 11.832 160.346 12.216 161.754 12.984C163.194 13.752 164.298 14.76 165.066 16.008V12.216H173.274V39H165.066V35.208C164.266 36.456 163.146 37.464 161.706 38.232C160.298 39 158.65 39.384 156.762 39.384C154.586 39.384 152.602 38.824 150.81 37.704C149.018 36.552 147.594 34.936 146.538 32.856C145.514 30.744 145.002 28.312 145.002 25.56ZM165.066 25.608C165.066 23.56 164.49 21.944 163.338 20.76C162.218 19.576 160.842 18.984 159.21 18.984C157.578 18.984 156.186 19.576 155.034 20.76C153.914 21.912 153.354 23.512 153.354 25.56C153.354 27.608 153.914 29.24 155.034 30.456C156.186 31.64 157.578 32.232 159.21 32.232C160.842 32.232 162.218 31.64 163.338 30.456C164.49 29.272 165.066 27.656 165.066 25.608ZM228.6 33.048H216.024L214.008 39H205.416L217.608 5.304H227.112L239.304 39H230.616L228.6 33.048ZM226.488 26.712L222.312 14.376L218.184 26.712H226.488ZM263.031 39.384C260.695 39.384 258.615 38.984 256.791 38.184C254.967 37.384 253.527 36.296 252.471 34.92C251.415 33.512 250.823 31.944 250.695 30.216H258.807C258.903 31.144 259.335 31.896 260.103 32.472C260.871 33.048 261.815 33.336 262.935 33.336C263.959 33.336 264.743 33.144 265.287 32.76C265.863 32.344 266.151 31.816 266.151 31.176C266.151 30.408 265.751 29.848 264.951 29.496C264.151 29.112 262.855 28.696 261.063 28.248C259.143 27.8 257.543 27.336 256.263 26.856C254.983 26.344 253.879 25.56 252.951 24.504C252.023 23.416 251.559 21.96 251.559 20.136C251.559 18.6 251.975 17.208 252.807 15.96C253.671 14.68 254.919 13.672 256.551 12.936C258.215 12.2 260.183 11.832 262.455 11.832C265.815 11.832 268.455 12.664 270.375 14.328C272.327 15.992 273.447 18.2 273.735 20.952H266.151C266.023 20.024 265.607 19.288 264.903 18.744C264.231 18.2 263.335 17.928 262.215 17.928C261.255 17.928 260.519 18.12 260.007 18.504C259.495 18.856 259.239 19.352 259.239 19.992C259.239 20.76 259.639 21.336 260.439 21.72C261.271 22.104 262.551 22.488 264.279 22.872C266.263 23.384 267.879 23.896 269.127 24.408C270.375 24.888 271.463 25.688 272.391 26.808C273.351 27.896 273.847 29.368 273.879 31.224C273.879 32.792 273.431 34.2 272.535 35.448C271.671 36.664 270.407 37.624 268.743 38.328C267.111 39.032 265.207 39.384 263.031 39.384ZM296.228 16.008C296.996 14.76 298.1 13.752 299.54 12.984C300.98 12.216 302.628 11.832 304.484 11.832C306.692 11.832 308.692 12.392 310.484 13.512C312.276 14.632 313.684 16.232 314.708 18.312C315.764 20.392 316.292 22.808 316.292 25.56C316.292 28.312 315.764 30.744 314.708 32.856C313.684 34.936 312.276 36.552 310.484 37.704C308.692 38.824 306.692 39.384 304.484 39.384C302.596 39.384 300.948 39.016 299.54 38.28C298.132 37.512 297.028 36.504 296.228 35.256V39H288.02V3.48H296.228V16.008ZM307.94 25.56C307.94 23.512 307.364 21.912 306.212 20.76C305.092 19.576 303.7 18.984 302.036 18.984C300.404 18.984 299.012 19.576 297.86 20.76C296.74 21.944 296.18 23.56 296.18 25.608C296.18 27.656 296.74 29.272 297.86 30.456C299.012 31.64 300.404 32.232 302.036 32.232C303.668 32.232 305.06 31.64 306.212 30.456C307.364 29.24 307.94 27.608 307.94 25.56ZM337.926 16.68C338.886 15.208 340.086 14.056 341.526 13.224C342.966 12.36 344.566 11.928 346.326 11.928V20.616H344.07C342.022 20.616 340.486 21.064 339.462 21.96C338.438 22.824 337.926 24.36 337.926 26.568V39H329.718V12.216H337.926V16.68ZM357.738 25.56C357.738 22.808 358.25 20.392 359.274 18.312C360.33 16.232 361.754 14.632 363.546 13.512C365.338 12.392 367.338 11.832 369.546 11.832C371.434 11.832 373.082 12.216 374.49 12.984C375.93 13.752 377.034 14.76 377.802 16.008V12.216H386.01V39H377.802V35.208C377.002 36.456 375.882 37.464 374.442 38.232C373.034 39 371.386 39.384 369.498 39.384C367.322 39.384 365.338 38.824 363.546 37.704C361.754 36.552 360.33 34.936 359.274 32.856C358.25 30.744 357.738 28.312 357.738 25.56ZM377.802 25.608C377.802 23.56 377.226 21.944 376.074 20.76C374.954 19.576 373.578 18.984 371.946 18.984C370.314 18.984 368.922 19.576 367.77 20.76C366.65 21.912 366.09 23.512 366.09 25.56C366.09 27.608 366.65 29.24 367.77 30.456C368.922 31.64 370.314 32.232 371.946 32.232C373.578 32.232 374.954 31.64 376.074 30.456C377.226 29.272 377.802 27.656 377.802 25.608ZM411.244 11.832C413.132 11.832 414.78 12.216 416.188 12.984C417.628 13.752 418.732 14.76 419.5 16.008V12.216H427.708V38.952C427.708 41.416 427.212 43.64 426.22 45.624C425.26 47.64 423.772 49.24 421.756 50.424C419.772 51.608 417.292 52.2 414.316 52.2C410.348 52.2 407.132 51.256 404.668 49.368C402.204 47.512 400.796 44.984 400.444 41.784H408.556C408.812 42.808 409.42 43.608 410.38 44.184C411.34 44.792 412.524 45.096 413.932 45.096C415.628 45.096 416.972 44.6 417.964 43.608C418.988 42.648 419.5 41.096 419.5 38.952V35.16C418.7 36.408 417.596 37.432 416.188 38.232C414.78 39 413.132 39.384 411.244 39.384C409.036 39.384 407.036 38.824 405.244 37.704C403.452 36.552 402.028 34.936 400.972 32.856C399.948 30.744 399.436 28.312 399.436 25.56C399.436 22.808 399.948 20.392 400.972 18.312C402.028 16.232 403.452 14.632 405.244 13.512C407.036 12.392 409.036 11.832 411.244 11.832ZM419.5 25.608C419.5 23.56 418.924 21.944 417.772 20.76C416.652 19.576 415.276 18.984 413.644 18.984C412.012 18.984 410.62 19.576 409.468 20.76C408.348 21.912 407.788 23.512 407.788 25.56C407.788 27.608 408.348 29.24 409.468 30.456C410.62 31.64 412.012 32.232 413.644 32.232C415.276 32.232 416.652 31.64 417.772 30.456C418.924 29.272 419.5 27.656 419.5 25.608ZM441.134 25.56C441.134 22.808 441.646 20.392 442.67 18.312C443.726 16.232 445.15 14.632 446.942 13.512C448.734 12.392 450.734 11.832 452.942 11.832C454.83 11.832 456.478 12.216 457.886 12.984C459.326 13.752 460.43 14.76 461.198 16.008V12.216H469.406V39H461.198V35.208C460.398 36.456 459.278 37.464 457.838 38.232C456.43 39 454.782 39.384 452.894 39.384C450.718 39.384 448.734 38.824 446.942 37.704C445.15 36.552 443.726 34.936 442.67 32.856C441.646 30.744 441.134 28.312 441.134 25.56ZM461.198 25.608C461.198 23.56 460.622 21.944 459.47 20.76C458.35 19.576 456.974 18.984 455.342 18.984C453.71 18.984 452.318 19.576 451.166 20.76C450.046 21.912 449.486 23.512 449.486 25.56C449.486 27.608 450.046 29.24 451.166 30.456C452.318 31.64 453.71 32.232 455.342 32.232C456.974 32.232 458.35 31.64 459.47 30.456C460.622 29.272 461.198 27.656 461.198 25.608ZM492.672 16.68C493.632 15.208 494.832 14.056 496.272 13.224C497.712 12.36 499.312 11.928 501.072 11.928V20.616H498.816C496.768 20.616 495.232 21.064 494.208 21.96C493.184 22.824 492.672 24.36 492.672 26.568V39H484.464V12.216H492.672V16.68ZM512.483 25.56C512.483 22.808 512.995 20.392 514.019 18.312C515.075 16.232 516.499 14.632 518.291 13.512C520.083 12.392 522.083 11.832 524.291 11.832C526.179 11.832 527.827 12.216 529.235 12.984C530.675 13.752 531.779 14.76 532.547 16.008V12.216H540.755V39H532.547V35.208C531.747 36.456 530.627 37.464 529.187 38.232C527.779 39 526.131 39.384 524.243 39.384C522.067 39.384 520.083 38.824 518.291 37.704C516.499 36.552 515.075 34.936 514.019 32.856C512.995 30.744 512.483 28.312 512.483 25.56ZM532.547 25.608C532.547 23.56 531.971 21.944 530.819 20.76C529.699 19.576 528.323 18.984 526.691 18.984C525.059 18.984 523.667 19.576 522.515 20.76C521.395 21.912 520.835 23.512 520.835 25.56C520.835 27.608 521.395 29.24 522.515 30.456C523.667 31.64 525.059 32.232 526.691 32.232C528.323 32.232 529.699 31.64 530.819 30.456C531.971 29.272 532.547 27.656 532.547 25.608ZM565.654 3.432C569.078 3.432 571.814 4.328 573.862 6.12C575.942 7.912 576.982 10.44 576.982 13.704C576.982 16.712 575.99 19.064 574.006 20.76C572.054 22.424 569.462 23.272 566.23 23.304L565.99 26.904H558.79L558.55 17.976H561.43C563.894 17.976 565.766 17.672 567.046 17.064C568.358 16.456 569.014 15.352 569.014 13.752C569.014 12.632 568.71 11.752 568.102 11.112C567.494 10.472 566.646 10.152 565.558 10.152C564.406 10.152 563.51 10.488 562.87 11.16C562.23 11.8 561.91 12.68 561.91 13.8H554.182C554.118 11.848 554.518 10.088 555.382 8.52C556.278 6.952 557.59 5.72 559.318 4.824C561.078 3.896 563.19 3.432 565.654 3.432ZM562.486 39.384C561.046 39.384 559.862 38.968 558.934 38.136C558.038 37.272 557.59 36.216 557.59 34.968C557.59 33.688 558.038 32.616 558.934 31.752C559.862 30.888 561.046 30.456 562.486 30.456C563.894 30.456 565.046 30.888 565.942 31.752C566.87 32.616 567.334 33.688 567.334 34.968C567.334 36.216 566.87 37.272 565.942 38.136C565.046 38.968 563.894 39.384 562.486 39.384Z"/>
</mask>
<path d="M13.5024 39.336C11.0384 39.336 8.83038 38.936 6.87838 38.136C4.92638 37.336 3.35838 36.152 2.17438 34.584C1.02238 33.016 0.414381 31.128 0.350381 28.92H9.08638C9.21438 30.168 9.64638 31.128 10.3824 31.8C11.1184 32.44 12.0784 32.76 13.2624 32.76C14.4784 32.76 15.4384 32.488 16.1424 31.944C16.8464 31.368 17.1984 30.584 17.1984 29.592C17.1984 28.76 16.9104 28.072 16.3344 27.528C15.7904 26.984 15.1024 26.536 14.2704 26.184C13.4704 25.832 12.3184 25.432 10.8144 24.984C8.63838 24.312 6.86238 23.64 5.48638 22.968C4.11038 22.296 2.92638 21.304 1.93438 19.992C0.942381 18.68 0.446381 16.968 0.446381 14.856C0.446381 11.72 1.58238 9.272 3.85438 7.512C6.12638 5.72 9.08638 4.824 12.7344 4.824C16.4464 4.824 19.4384 5.72 21.7104 7.512C23.9824 9.272 25.1984 11.736 25.3584 14.904H16.4784C16.4144 13.816 16.0144 12.968 15.2784 12.36C14.5424 11.72 13.5984 11.4 12.4464 11.4C11.4544 11.4 10.6544 11.672 10.0464 12.216C9.43838 12.728 9.13438 13.48 9.13438 14.472C9.13438 15.56 9.64638 16.408 10.6704 17.016C11.6944 17.624 13.2944 18.28 15.4704 18.984C17.6464 19.72 19.4064 20.424 20.7504 21.096C22.1264 21.768 23.3104 22.744 24.3024 24.024C25.2944 25.304 25.7904 26.952 25.7904 28.968C25.7904 30.888 25.2944 32.632 24.3024 34.2C23.3424 35.768 21.9344 37.016 20.0784 37.944C18.2224 38.872 16.0304 39.336 13.5024 39.336ZM44.0896 9.432C42.6496 9.432 41.4656 9.016 40.5376 8.184C39.6416 7.32 39.1936 6.264 39.1936 5.016C39.1936 3.736 39.6416 2.68 40.5376 1.848C41.4656 0.983997 42.6496 0.551997 44.0896 0.551997C45.4976 0.551997 46.6496 0.983997 47.5456 1.848C48.4736 2.68 48.9376 3.736 48.9376 5.016C48.9376 6.264 48.4736 7.32 47.5456 8.184C46.6496 9.016 45.4976 9.432 44.0896 9.432ZM48.1696 12.216V39H39.9616V12.216H48.1696ZM61.6059 25.56C61.6059 22.808 62.1179 20.392 63.1419 18.312C64.1979 16.232 65.6219 14.632 67.4139 13.512C69.2059 12.392 71.2059 11.832 73.4139 11.832C75.3019 11.832 76.9499 12.216 78.3579 12.984C79.7979 13.752 80.9019 14.76 81.6699 16.008V12.216H89.8779V39H81.6699V35.208C80.8699 36.456 79.7499 37.464 78.3099 38.232C76.9019 39 75.2539 39.384 73.3659 39.384C71.1899 39.384 69.2059 38.824 67.4139 37.704C65.6219 36.552 64.1979 34.936 63.1419 32.856C62.1179 30.744 61.6059 28.312 61.6059 25.56ZM81.6699 25.608C81.6699 23.56 81.0939 21.944 79.9419 20.76C78.8219 19.576 77.4459 18.984 75.8139 18.984C74.1819 18.984 72.7899 19.576 71.6379 20.76C70.5179 21.912 69.9579 23.512 69.9579 25.56C69.9579 27.608 70.5179 29.24 71.6379 30.456C72.7899 31.64 74.1819 32.232 75.8139 32.232C77.4459 32.232 78.8219 31.64 79.9419 30.456C81.0939 29.272 81.6699 27.656 81.6699 25.608ZM113.144 16.008C113.944 14.76 115.048 13.752 116.456 12.984C117.864 12.216 119.512 11.832 121.4 11.832C123.608 11.832 125.608 12.392 127.4 13.512C129.192 14.632 130.6 16.232 131.624 18.312C132.68 20.392 133.208 22.808 133.208 25.56C133.208 28.312 132.68 30.744 131.624 32.856C130.6 34.936 129.192 36.552 127.4 37.704C125.608 38.824 123.608 39.384 121.4 39.384C119.544 39.384 117.896 39 116.456 38.232C115.048 37.464 113.944 36.472 113.144 35.256V51.768H104.936V12.216H113.144V16.008ZM124.856 25.56C124.856 23.512 124.28 21.912 123.128 20.76C122.008 19.576 120.616 18.984 118.952 18.984C117.32 18.984 115.928 19.576 114.776 20.76C113.656 21.944 113.096 23.56 113.096 25.608C113.096 27.656 113.656 29.272 114.776 30.456C115.928 31.64 117.32 32.232 118.952 32.232C120.584 32.232 121.976 31.64 123.128 30.456C124.28 29.24 124.856 27.608 124.856 25.56ZM145.002 25.56C145.002 22.808 145.514 20.392 146.538 18.312C147.594 16.232 149.018 14.632 150.81 13.512C152.602 12.392 154.602 11.832 156.81 11.832C158.698 11.832 160.346 12.216 161.754 12.984C163.194 13.752 164.298 14.76 165.066 16.008V12.216H173.274V39H165.066V35.208C164.266 36.456 163.146 37.464 161.706 38.232C160.298 39 158.65 39.384 156.762 39.384C154.586 39.384 152.602 38.824 150.81 37.704C149.018 36.552 147.594 34.936 146.538 32.856C145.514 30.744 145.002 28.312 145.002 25.56ZM165.066 25.608C165.066 23.56 164.49 21.944 163.338 20.76C162.218 19.576 160.842 18.984 159.21 18.984C157.578 18.984 156.186 19.576 155.034 20.76C153.914 21.912 153.354 23.512 153.354 25.56C153.354 27.608 153.914 29.24 155.034 30.456C156.186 31.64 157.578 32.232 159.21 32.232C160.842 32.232 162.218 31.64 163.338 30.456C164.49 29.272 165.066 27.656 165.066 25.608ZM228.6 33.048H216.024L214.008 39H205.416L217.608 5.304H227.112L239.304 39H230.616L228.6 33.048ZM226.488 26.712L222.312 14.376L218.184 26.712H226.488ZM263.031 39.384C260.695 39.384 258.615 38.984 256.791 38.184C254.967 37.384 253.527 36.296 252.471 34.92C251.415 33.512 250.823 31.944 250.695 30.216H258.807C258.903 31.144 259.335 31.896 260.103 32.472C260.871 33.048 261.815 33.336 262.935 33.336C263.959 33.336 264.743 33.144 265.287 32.76C265.863 32.344 266.151 31.816 266.151 31.176C266.151 30.408 265.751 29.848 264.951 29.496C264.151 29.112 262.855 28.696 261.063 28.248C259.143 27.8 257.543 27.336 256.263 26.856C254.983 26.344 253.879 25.56 252.951 24.504C252.023 23.416 251.559 21.96 251.559 20.136C251.559 18.6 251.975 17.208 252.807 15.96C253.671 14.68 254.919 13.672 256.551 12.936C258.215 12.2 260.183 11.832 262.455 11.832C265.815 11.832 268.455 12.664 270.375 14.328C272.327 15.992 273.447 18.2 273.735 20.952H266.151C266.023 20.024 265.607 19.288 264.903 18.744C264.231 18.2 263.335 17.928 262.215 17.928C261.255 17.928 260.519 18.12 260.007 18.504C259.495 18.856 259.239 19.352 259.239 19.992C259.239 20.76 259.639 21.336 260.439 21.72C261.271 22.104 262.551 22.488 264.279 22.872C266.263 23.384 267.879 23.896 269.127 24.408C270.375 24.888 271.463 25.688 272.391 26.808C273.351 27.896 273.847 29.368 273.879 31.224C273.879 32.792 273.431 34.2 272.535 35.448C271.671 36.664 270.407 37.624 268.743 38.328C267.111 39.032 265.207 39.384 263.031 39.384ZM296.228 16.008C296.996 14.76 298.1 13.752 299.54 12.984C300.98 12.216 302.628 11.832 304.484 11.832C306.692 11.832 308.692 12.392 310.484 13.512C312.276 14.632 313.684 16.232 314.708 18.312C315.764 20.392 316.292 22.808 316.292 25.56C316.292 28.312 315.764 30.744 314.708 32.856C313.684 34.936 312.276 36.552 310.484 37.704C308.692 38.824 306.692 39.384 304.484 39.384C302.596 39.384 300.948 39.016 299.54 38.28C298.132 37.512 297.028 36.504 296.228 35.256V39H288.02V3.48H296.228V16.008ZM307.94 25.56C307.94 23.512 307.364 21.912 306.212 20.76C305.092 19.576 303.7 18.984 302.036 18.984C300.404 18.984 299.012 19.576 297.86 20.76C296.74 21.944 296.18 23.56 296.18 25.608C296.18 27.656 296.74 29.272 297.86 30.456C299.012 31.64 300.404 32.232 302.036 32.232C303.668 32.232 305.06 31.64 306.212 30.456C307.364 29.24 307.94 27.608 307.94 25.56ZM337.926 16.68C338.886 15.208 340.086 14.056 341.526 13.224C342.966 12.36 344.566 11.928 346.326 11.928V20.616H344.07C342.022 20.616 340.486 21.064 339.462 21.96C338.438 22.824 337.926 24.36 337.926 26.568V39H329.718V12.216H337.926V16.68ZM357.738 25.56C357.738 22.808 358.25 20.392 359.274 18.312C360.33 16.232 361.754 14.632 363.546 13.512C365.338 12.392 367.338 11.832 369.546 11.832C371.434 11.832 373.082 12.216 374.49 12.984C375.93 13.752 377.034 14.76 377.802 16.008V12.216H386.01V39H377.802V35.208C377.002 36.456 375.882 37.464 374.442 38.232C373.034 39 371.386 39.384 369.498 39.384C367.322 39.384 365.338 38.824 363.546 37.704C361.754 36.552 360.33 34.936 359.274 32.856C358.25 30.744 357.738 28.312 357.738 25.56ZM377.802 25.608C377.802 23.56 377.226 21.944 376.074 20.76C374.954 19.576 373.578 18.984 371.946 18.984C370.314 18.984 368.922 19.576 367.77 20.76C366.65 21.912 366.09 23.512 366.09 25.56C366.09 27.608 366.65 29.24 367.77 30.456C368.922 31.64 370.314 32.232 371.946 32.232C373.578 32.232 374.954 31.64 376.074 30.456C377.226 29.272 377.802 27.656 377.802 25.608ZM411.244 11.832C413.132 11.832 414.78 12.216 416.188 12.984C417.628 13.752 418.732 14.76 419.5 16.008V12.216H427.708V38.952C427.708 41.416 427.212 43.64 426.22 45.624C425.26 47.64 423.772 49.24 421.756 50.424C419.772 51.608 417.292 52.2 414.316 52.2C410.348 52.2 407.132 51.256 404.668 49.368C402.204 47.512 400.796 44.984 400.444 41.784H408.556C408.812 42.808 409.42 43.608 410.38 44.184C411.34 44.792 412.524 45.096 413.932 45.096C415.628 45.096 416.972 44.6 417.964 43.608C418.988 42.648 419.5 41.096 419.5 38.952V35.16C418.7 36.408 417.596 37.432 416.188 38.232C414.78 39 413.132 39.384 411.244 39.384C409.036 39.384 407.036 38.824 405.244 37.704C403.452 36.552 402.028 34.936 400.972 32.856C399.948 30.744 399.436 28.312 399.436 25.56C399.436 22.808 399.948 20.392 400.972 18.312C402.028 16.232 403.452 14.632 405.244 13.512C407.036 12.392 409.036 11.832 411.244 11.832ZM419.5 25.608C419.5 23.56 418.924 21.944 417.772 20.76C416.652 19.576 415.276 18.984 413.644 18.984C412.012 18.984 410.62 19.576 409.468 20.76C408.348 21.912 407.788 23.512 407.788 25.56C407.788 27.608 408.348 29.24 409.468 30.456C410.62 31.64 412.012 32.232 413.644 32.232C415.276 32.232 416.652 31.64 417.772 30.456C418.924 29.272 419.5 27.656 419.5 25.608ZM441.134 25.56C441.134 22.808 441.646 20.392 442.67 18.312C443.726 16.232 445.15 14.632 446.942 13.512C448.734 12.392 450.734 11.832 452.942 11.832C454.83 11.832 456.478 12.216 457.886 12.984C459.326 13.752 460.43 14.76 461.198 16.008V12.216H469.406V39H461.198V35.208C460.398 36.456 459.278 37.464 457.838 38.232C456.43 39 454.782 39.384 452.894 39.384C450.718 39.384 448.734 38.824 446.942 37.704C445.15 36.552 443.726 34.936 442.67 32.856C441.646 30.744 441.134 28.312 441.134 25.56ZM461.198 25.608C461.198 23.56 460.622 21.944 459.47 20.76C458.35 19.576 456.974 18.984 455.342 18.984C453.71 18.984 452.318 19.576 451.166 20.76C450.046 21.912 449.486 23.512 449.486 25.56C449.486 27.608 450.046 29.24 451.166 30.456C452.318 31.64 453.71 32.232 455.342 32.232C456.974 32.232 458.35 31.64 459.47 30.456C460.622 29.272 461.198 27.656 461.198 25.608ZM492.672 16.68C493.632 15.208 494.832 14.056 496.272 13.224C497.712 12.36 499.312 11.928 501.072 11.928V20.616H498.816C496.768 20.616 495.232 21.064 494.208 21.96C493.184 22.824 492.672 24.36 492.672 26.568V39H484.464V12.216H492.672V16.68ZM512.483 25.56C512.483 22.808 512.995 20.392 514.019 18.312C515.075 16.232 516.499 14.632 518.291 13.512C520.083 12.392 522.083 11.832 524.291 11.832C526.179 11.832 527.827 12.216 529.235 12.984C530.675 13.752 531.779 14.76 532.547 16.008V12.216H540.755V39H532.547V35.208C531.747 36.456 530.627 37.464 529.187 38.232C527.779 39 526.131 39.384 524.243 39.384C522.067 39.384 520.083 38.824 518.291 37.704C516.499 36.552 515.075 34.936 514.019 32.856C512.995 30.744 512.483 28.312 512.483 25.56ZM532.547 25.608C532.547 23.56 531.971 21.944 530.819 20.76C529.699 19.576 528.323 18.984 526.691 18.984C525.059 18.984 523.667 19.576 522.515 20.76C521.395 21.912 520.835 23.512 520.835 25.56C520.835 27.608 521.395 29.24 522.515 30.456C523.667 31.64 525.059 32.232 526.691 32.232C528.323 32.232 529.699 31.64 530.819 30.456C531.971 29.272 532.547 27.656 532.547 25.608ZM565.654 3.432C569.078 3.432 571.814 4.328 573.862 6.12C575.942 7.912 576.982 10.44 576.982 13.704C576.982 16.712 575.99 19.064 574.006 20.76C572.054 22.424 569.462 23.272 566.23 23.304L565.99 26.904H558.79L558.55 17.976H561.43C563.894 17.976 565.766 17.672 567.046 17.064C568.358 16.456 569.014 15.352 569.014 13.752C569.014 12.632 568.71 11.752 568.102 11.112C567.494 10.472 566.646 10.152 565.558 10.152C564.406 10.152 563.51 10.488 562.87 11.16C562.23 11.8 561.91 12.68 561.91 13.8H554.182C554.118 11.848 554.518 10.088 555.382 8.52C556.278 6.952 557.59 5.72 559.318 4.824C561.078 3.896 563.19 3.432 565.654 3.432ZM562.486 39.384C561.046 39.384 559.862 38.968 558.934 38.136C558.038 37.272 557.59 36.216 557.59 34.968C557.59 33.688 558.038 32.616 558.934 31.752C559.862 30.888 561.046 30.456 562.486 30.456C563.894 30.456 565.046 30.888 565.942 31.752C566.87 32.616 567.334 33.688 567.334 34.968C567.334 36.216 566.87 37.272 565.942 38.136C565.046 38.968 563.894 39.384 562.486 39.384Z" fill="#457ABF"/>
<path d="M6.87838 38.136L5.36149 41.8372L6.87838 38.136ZM2.17438 34.584L-1.04915 36.9523L-1.0336 36.9735L-1.01778 36.9944L2.17438 34.584ZM0.350381 28.92V24.92H-3.76724L-3.64794 29.0359L0.350381 28.92ZM9.08638 28.92L13.0655 28.5119L12.6971 24.92H9.08638V28.92ZM10.3824 31.8L7.6853 34.7539L7.7211 34.7866L7.75767 34.8184L10.3824 31.8ZM16.1424 31.944L18.5882 35.1091L18.6322 35.0751L18.6753 35.0398L16.1424 31.944ZM16.3344 27.528L13.506 30.3564L13.5464 30.3968L13.5879 30.4361L16.3344 27.528ZM14.2704 26.184L12.6594 29.8453L12.6855 29.8568L12.7118 29.8679L14.2704 26.184ZM10.8144 24.984L9.63409 28.8059L9.65325 28.8118L9.67248 28.8175L10.8144 24.984ZM1.93438 19.992L5.12502 17.5796H5.12502L1.93438 19.992ZM3.85438 7.512L6.30397 10.6742L6.31779 10.6635L6.33152 10.6527L3.85438 7.512ZM21.7104 7.512L19.2332 10.6527L19.247 10.6635L19.2608 10.6742L21.7104 7.512ZM25.3584 14.904V18.904H29.5655L29.3533 14.7022L25.3584 14.904ZM16.4784 14.904L12.4853 15.1389L12.7068 18.904H16.4784V14.904ZM15.2784 12.36L12.6537 15.3784L12.6918 15.4116L12.7309 15.4438L15.2784 12.36ZM10.0464 12.216L12.6229 15.2756L12.6688 15.237L12.7136 15.197L10.0464 12.216ZM10.6704 17.016L12.7125 13.5766H12.7125L10.6704 17.016ZM15.4704 18.984L16.752 15.1949L16.7269 15.1864L16.7017 15.1782L15.4704 18.984ZM20.7504 21.096L18.9615 24.6737L18.9782 24.6821L18.995 24.6903L20.7504 21.096ZM24.3024 24.024L21.1407 26.4743L21.1407 26.4743L24.3024 24.024ZM24.3024 34.2L20.9221 32.0614L20.9063 32.0863L20.891 32.1114L24.3024 34.2ZM20.0784 37.944L18.2895 34.3663L20.0784 37.944ZM13.5024 35.336C11.4725 35.336 9.7921 35.0072 8.39528 34.4348L5.36149 41.8372C7.86867 42.8648 10.6043 43.336 13.5024 43.336V35.336ZM8.39528 34.4348C7.05667 33.8862 6.08616 33.1266 5.36655 32.1736L-1.01778 36.9944C0.630598 39.1774 2.79609 40.7858 5.36149 41.8372L8.39528 34.4348ZM5.39791 32.2157C4.7902 31.3885 4.39246 30.3139 4.3487 28.8041L-3.64794 29.0359C-3.5637 31.9421 -2.74543 34.6435 -1.04915 36.9523L5.39791 32.2157ZM0.350381 32.92H9.08638V24.92H0.350381V32.92ZM5.10726 29.3281C5.30861 31.2913 6.05039 33.2612 7.6853 34.7539L13.0795 28.8461C13.1035 28.868 13.1244 28.8921 13.1402 28.914C13.1555 28.9355 13.1588 28.945 13.1541 28.9345C13.1439 28.9119 13.0939 28.789 13.0655 28.5119L5.10726 29.3281ZM7.75767 34.8184C9.36927 36.2198 11.3293 36.76 13.2624 36.76V28.76C13.0289 28.76 12.9288 28.7284 12.9193 28.7253C12.9146 28.7237 12.9258 28.7271 12.9468 28.739C12.968 28.751 12.9892 28.766 13.0071 28.7816L7.75767 34.8184ZM13.2624 36.76C15.0428 36.76 16.9664 36.3623 18.5882 35.1091L13.6966 28.7789C13.7948 28.7029 13.8522 28.6938 13.804 28.7075C13.7462 28.7239 13.579 28.76 13.2624 28.76V36.76ZM18.6753 35.0398C20.3996 33.6291 21.1984 31.66 21.1984 29.592H13.1984C13.1984 29.6099 13.1969 29.4825 13.2853 29.2856C13.3781 29.0789 13.5102 28.9293 13.6094 28.8482L18.6753 35.0398ZM21.1984 29.592C21.1984 27.7214 20.5009 25.9611 19.0809 24.6199L13.5879 30.4361C13.4954 30.3487 13.3776 30.1996 13.2926 29.9966C13.2094 29.7978 13.1984 29.645 13.1984 29.592H21.1984ZM19.1628 24.6996C18.1969 23.7337 17.054 23.0184 15.8289 22.5001L12.7118 29.8679C13.1507 30.0536 13.3838 30.2343 13.506 30.3564L19.1628 24.6996ZM15.8813 22.5227C14.854 22.0707 13.5159 21.615 11.9563 21.1505L9.67248 28.8175C11.1209 29.249 12.0867 29.5933 12.6594 29.8453L15.8813 22.5227ZM11.9947 21.1621C9.93072 20.5247 8.36635 19.923 7.24172 19.3737L3.73104 26.5623C5.35841 27.357 7.34605 28.0993 9.63409 28.8059L11.9947 21.1621ZM7.24172 19.3737C6.47165 18.9977 5.76679 18.4284 5.12502 17.5796L-1.25626 22.4044C0.085969 24.1796 1.74911 25.5943 3.73104 26.5623L7.24172 19.3737ZM5.12502 17.5796C4.79085 17.1376 4.44638 16.3463 4.44638 14.856H-3.55362C-3.55362 17.5897 -2.90609 20.2224 -1.25626 22.4044L5.12502 17.5796ZM4.44638 14.856C4.44638 12.8274 5.10814 11.6005 6.30397 10.6742L1.40479 4.3498C-1.94338 6.94345 -3.55362 10.6126 -3.55362 14.856H4.44638ZM6.33152 10.6527C7.73085 9.54897 9.74654 8.824 12.7344 8.824V0.823999C8.42622 0.823999 4.52191 1.89103 1.37724 4.37134L6.33152 10.6527ZM12.7344 8.824C15.805 8.824 17.8455 9.55809 19.2332 10.6527L24.1875 4.37134C21.0313 1.8819 17.0878 0.823999 12.7344 0.823999V8.824ZM19.2608 10.6742C20.5082 11.6405 21.2554 12.9667 21.3635 15.1058L29.3533 14.7022C29.1413 10.5053 27.4565 6.90348 24.16 4.3498L19.2608 10.6742ZM25.3584 10.904H16.4784V18.904H25.3584V10.904ZM20.4715 14.6691C20.3524 12.6447 19.5434 10.695 17.8259 9.27615L12.7309 15.4438C12.6984 15.417 12.6565 15.3764 12.6137 15.3216C12.5708 15.2666 12.537 15.2101 12.5127 15.1585C12.4623 15.0518 12.4785 15.0232 12.4853 15.1389L20.4715 14.6691ZM17.9031 9.34158C16.3113 7.95744 14.3789 7.4 12.4464 7.4V15.4C12.5495 15.4 12.6218 15.4072 12.6677 15.4142C12.713 15.4211 12.7333 15.4279 12.7342 15.4283C12.7345 15.4284 12.7223 15.4241 12.7028 15.413C12.6832 15.4018 12.666 15.3892 12.6537 15.3784L17.9031 9.34158ZM12.4464 7.4C10.693 7.4 8.87121 7.90008 7.3792 9.23503L12.7136 15.197C12.6626 15.2426 12.605 15.2845 12.5441 15.3198C12.4835 15.3549 12.4299 15.3775 12.39 15.3911C12.3103 15.4182 12.3139 15.4 12.4464 15.4V7.4ZM7.46984 9.15635C5.74139 10.6119 5.13438 12.6182 5.13438 14.472H13.1344C13.1344 14.3785 13.1491 14.4695 13.0708 14.6632C12.9836 14.8789 12.8283 15.1027 12.6229 15.2756L7.46984 9.15635ZM5.13438 14.472C5.13438 17.1257 6.52908 19.209 8.62823 20.4554L12.7125 13.5766C12.6533 13.5414 12.7955 13.6129 12.9426 13.8565C13.0998 14.1168 13.1344 14.3612 13.1344 14.472H5.13438ZM8.62823 20.4554C10.0451 21.2967 11.9884 22.0616 14.2391 22.7898L16.7017 15.1782C14.6004 14.4984 13.3437 13.9513 12.7125 13.5766L8.62823 20.4554ZM14.1888 22.7731C16.2716 23.4776 17.8432 24.1145 18.9615 24.6737L22.5392 17.5183C20.9696 16.7335 19.0212 15.9624 16.752 15.1949L14.1888 22.7731ZM18.995 24.6903C19.7893 25.0782 20.5016 25.6497 21.1407 26.4743L27.464 21.5737C26.1191 19.8383 24.4634 18.4578 22.5057 17.5017L18.995 24.6903ZM21.1407 26.4743C21.4675 26.896 21.7904 27.6174 21.7904 28.968H29.7904C29.7904 26.2866 29.1212 23.712 27.464 21.5737L21.1407 26.4743ZM21.7904 28.968C21.7904 30.1586 21.4947 31.1563 20.9221 32.0614L27.6827 36.3386C29.0941 34.1077 29.7904 31.6174 29.7904 28.968H21.7904ZM20.891 32.1114C20.3704 32.9616 19.5645 33.7288 18.2895 34.3663L21.8672 41.5217C24.3043 40.3032 26.3143 38.5744 27.7138 36.2886L20.891 32.1114ZM18.2895 34.3663C17.0972 34.9625 15.5429 35.336 13.5024 35.336V43.336C16.5178 43.336 19.3476 42.7815 21.8672 41.5217L18.2895 34.3663ZM40.5376 8.184L37.7611 11.0634L37.8134 11.1138L37.8675 11.1623L40.5376 8.184ZM40.5376 1.848L43.2594 4.77917L43.2633 4.77557L40.5376 1.848ZM47.5456 1.848L44.7691 4.72738L44.8214 4.77779L44.8755 4.82627L47.5456 1.848ZM47.5456 8.184L50.2674 11.1152L50.2713 11.1116L47.5456 8.184ZM48.1696 12.216H52.1696V8.216H48.1696V12.216ZM48.1696 39V43H52.1696V39H48.1696ZM39.9616 39H35.9616V43H39.9616V39ZM39.9616 12.216V8.216H35.9616V12.216H39.9616ZM44.0896 5.432C43.472 5.432 43.289 5.27851 43.2078 5.20572L37.8675 11.1623C39.6423 12.7535 41.8272 13.432 44.0896 13.432V5.432ZM43.3142 5.30462C43.264 5.25623 43.2382 5.22272 43.2266 5.20615C43.2154 5.19024 43.2124 5.18291 43.212 5.1818C43.2115 5.18067 43.208 5.17283 43.2041 5.15252C43.2 5.1314 43.1936 5.08784 43.1936 5.016H35.1936C35.1936 7.34684 36.0809 9.44323 37.7611 11.0634L43.3142 5.30462ZM43.1936 5.016C43.1936 4.92978 43.2011 4.87706 43.206 4.85139C43.2108 4.82673 43.2143 4.82066 43.212 4.8262C43.2095 4.83204 43.2069 4.83575 43.2083 4.83372C43.2102 4.83109 43.2238 4.81228 43.2594 4.77917L37.8158 -1.08317C36.0627 0.544735 35.1936 2.68246 35.1936 5.016H43.1936ZM43.2633 4.77557C43.3495 4.69531 43.5133 4.552 44.0896 4.552V-3.448C41.7859 -3.448 39.5817 -2.72731 37.812 -1.07958L43.2633 4.77557ZM44.0896 4.552C44.6092 4.552 44.7183 4.67838 44.7691 4.72738L50.3222 -1.03138C48.581 -2.71039 46.3861 -3.448 44.0896 -3.448V4.552ZM44.8755 4.82627C44.9168 4.86337 44.9329 4.88472 44.9351 4.88772C44.9368 4.88999 44.9324 4.88406 44.9276 4.87309C44.9228 4.86232 44.9241 4.86132 44.9273 4.87729C44.9307 4.89434 44.9376 4.93828 44.9376 5.016H52.9376C52.9376 2.63435 52.0158 0.483486 50.2158 -1.13028L44.8755 4.82627ZM44.9376 5.016C44.9376 5.07912 44.9319 5.11379 44.9294 5.1263C44.927 5.13797 44.9258 5.13885 44.9276 5.1349C44.9292 5.13106 44.9278 5.13614 44.9162 5.15213C44.904 5.16889 44.8757 5.20454 44.82 5.25642L50.2713 11.1116C51.9973 9.50463 52.9376 7.39443 52.9376 5.016H44.9376ZM44.8238 5.25282C44.7797 5.29381 44.652 5.432 44.0896 5.432V13.432C46.3433 13.432 48.5196 12.7382 50.2674 11.1152L44.8238 5.25282ZM44.1696 12.216V39H52.1696V12.216H44.1696ZM48.1696 35H39.9616V43H48.1696V35ZM43.9616 39V12.216H35.9616V39H43.9616ZM39.9616 16.216H48.1696V8.216H39.9616V16.216ZM63.1419 18.312L59.5752 16.5012L59.5641 16.5232L59.5532 16.5453L63.1419 18.312ZM67.4139 13.512L69.5339 16.904L67.4139 13.512ZM78.3579 12.984L76.4425 16.4956L76.459 16.5046L76.4755 16.5134L78.3579 12.984ZM81.6699 16.008L78.2632 18.1044L85.6699 30.1402V16.008H81.6699ZM81.6699 12.216V8.216H77.6699V12.216H81.6699ZM89.8779 12.216H93.8779V8.216H89.8779V12.216ZM89.8779 39V43H93.8779V39H89.8779ZM81.6699 39H77.6699V43H81.6699V39ZM81.6699 35.208H85.6699V21.556L78.3024 33.0493L81.6699 35.208ZM78.3099 38.232L76.4275 34.7026L76.411 34.7114L76.3945 34.7204L78.3099 38.232ZM67.4139 37.704L65.2508 41.0687L65.2723 41.0825L65.2939 41.096L67.4139 37.704ZM63.1419 32.856L59.5426 34.6011L59.5586 34.6341L59.5752 34.6668L63.1419 32.856ZM79.9419 20.76L77.036 23.5088L77.0554 23.5292L77.075 23.5494L79.9419 20.76ZM71.6379 20.76L68.771 17.9706L68.7699 17.9717L71.6379 20.76ZM71.6379 30.456L68.6957 33.1659L68.7328 33.2062L68.771 33.2454L71.6379 30.456ZM79.9419 30.456L77.075 27.6666L77.0554 27.6868L77.036 27.7072L79.9419 30.456ZM65.6059 25.56C65.6059 23.307 66.0232 21.5155 66.7306 20.0787L59.5532 16.5453C58.2125 19.2685 57.6059 22.309 57.6059 25.56H65.6059ZM66.7085 20.1228C67.4704 18.6222 68.4218 17.599 69.5339 16.904L65.2939 10.12C62.822 11.665 60.9254 13.8418 59.5752 16.5012L66.7085 20.1228ZM69.5339 16.904C70.6609 16.1996 71.9203 15.832 73.4139 15.832V7.832C70.4915 7.832 67.7509 8.58438 65.2939 10.12L69.5339 16.904ZM73.4139 15.832C74.7514 15.832 75.7182 16.1005 76.4425 16.4956L80.2733 9.47241C78.1816 8.33148 75.8523 7.832 73.4139 7.832V15.832ZM76.4755 16.5134C77.3623 16.9863 77.9083 17.5276 78.2632 18.1044L85.0765 13.9116C83.8955 11.9924 82.2335 10.5177 80.2402 9.45459L76.4755 16.5134ZM85.6699 16.008V12.216H77.6699V16.008H85.6699ZM81.6699 16.216H89.8779V8.216H81.6699V16.216ZM85.8779 12.216V39H93.8779V12.216H85.8779ZM89.8779 35H81.6699V43H89.8779V35ZM85.6699 39V35.208H77.6699V39H85.6699ZM78.3024 33.0493C77.9083 33.664 77.3258 34.2235 76.4275 34.7026L80.1922 41.7614C82.174 40.7045 83.8314 39.248 85.0374 37.3667L78.3024 33.0493ZM76.3945 34.7204C75.6702 35.1155 74.7034 35.384 73.3659 35.384V43.384C75.8043 43.384 78.1336 42.8845 80.2253 41.7436L76.3945 34.7204ZM73.3659 35.384C71.9161 35.384 70.6705 35.0224 69.5339 34.312L65.2939 41.096C67.7412 42.6256 70.4637 43.384 73.3659 43.384V35.384ZM69.5769 34.3393C68.4383 33.6073 67.4744 32.5538 66.7085 31.0452L59.5752 34.6668C60.9213 37.3182 62.8054 39.4967 65.2508 41.0687L69.5769 34.3393ZM66.7411 31.1109C66.0227 29.629 65.6059 27.8112 65.6059 25.56H57.6059C57.6059 28.8128 58.2131 31.859 59.5426 34.6011L66.7411 31.1109ZM85.6699 25.608C85.6699 22.7815 84.8524 20.071 82.8088 17.9706L77.075 23.5494C77.3354 23.817 77.6699 24.3384 77.6699 25.608H85.6699ZM82.8478 18.0112C80.9711 16.0273 78.5436 14.984 75.8139 14.984V22.984C76.3482 22.984 76.6727 23.1247 77.036 23.5088L82.8478 18.0112ZM75.8139 14.984C73.0872 14.984 70.6656 16.0233 68.771 17.9706L74.5048 23.5494C74.9141 23.1287 75.2766 22.984 75.8139 22.984V14.984ZM68.7699 17.9717C66.7394 20.0602 65.9579 22.7695 65.9579 25.56H73.9579C73.9579 24.2545 74.2964 23.7638 74.5059 23.5483L68.7699 17.9717ZM65.9579 25.56C65.9579 28.3612 66.7427 31.0455 68.6957 33.1659L74.5801 27.7461C74.293 27.4345 73.9579 26.8548 73.9579 25.56H65.9579ZM68.771 33.2454C70.6656 35.1927 73.0872 36.232 75.8139 36.232V28.232C75.2766 28.232 74.9141 28.0873 74.5048 27.6666L68.771 33.2454ZM75.8139 36.232C78.5436 36.232 80.9711 35.1887 82.8478 33.2048L77.036 27.7072C76.6727 28.0913 76.3482 28.232 75.8139 28.232V36.232ZM82.8088 33.2454C84.8524 31.145 85.6699 28.4344 85.6699 25.608H77.6699C77.6699 26.8775 77.3354 27.399 77.075 27.6666L82.8088 33.2454ZM113.144 16.008H109.144V29.66L116.512 18.1667L113.144 16.008ZM116.456 12.984L114.541 9.47241V9.47242L116.456 12.984ZM127.4 13.512L125.28 16.904L127.4 13.512ZM131.624 18.312L128.035 20.0787L128.046 20.1008L128.057 20.1228L131.624 18.312ZM131.624 32.856L128.046 31.0671L128.041 31.0782L128.035 31.0893L131.624 32.856ZM127.4 37.704L129.52 41.096L129.542 41.0825L129.563 41.0687L127.4 37.704ZM116.456 38.232L114.541 41.7436L114.557 41.7526L114.574 41.7614L116.456 38.232ZM113.144 35.256L116.486 33.0575L109.144 21.8982V35.256H113.144ZM113.144 51.768V55.768H117.144V51.768H113.144ZM104.936 51.768H100.936V55.768H104.936V51.768ZM104.936 12.216V8.216H100.936V12.216H104.936ZM113.144 12.216H117.144V8.216H113.144V12.216ZM123.128 20.76L120.222 23.5088L120.26 23.5491L120.3 23.5884L123.128 20.76ZM114.776 20.76L111.909 17.9706L111.889 17.9908L111.87 18.0112L114.776 20.76ZM114.776 30.456L111.87 33.2048L111.889 33.2252L111.909 33.2454L114.776 30.456ZM123.128 30.456L125.995 33.2454L126.013 33.2263L126.032 33.207L123.128 30.456ZM116.512 18.1667C116.919 17.5302 117.504 16.9688 118.371 16.4956L114.541 9.47242C112.592 10.5352 110.969 11.9897 109.776 13.8493L116.512 18.1667ZM118.371 16.4956C119.096 16.1005 120.062 15.832 121.4 15.832V7.832C118.962 7.832 116.632 8.33147 114.541 9.47241L118.371 16.4956ZM121.4 15.832C122.894 15.832 124.153 16.1996 125.28 16.904L129.52 10.12C127.063 8.58438 124.322 7.832 121.4 7.832V15.832ZM125.28 16.904C126.38 17.5916 127.307 18.5995 128.035 20.0787L135.213 16.5453C133.893 13.8645 132.004 11.6724 129.52 10.12L125.28 16.904ZM128.057 20.1228C128.782 21.5492 129.208 23.3246 129.208 25.56H137.208C137.208 22.2914 136.579 19.2348 135.191 16.5012L128.057 20.1228ZM129.208 25.56C129.208 27.7936 128.782 29.5956 128.046 31.0671L135.202 34.6449C136.578 31.8924 137.208 28.8304 137.208 25.56H129.208ZM128.035 31.0893C127.303 32.5765 126.364 33.6149 125.237 34.3393L129.563 41.0687C132.02 39.4891 133.897 37.2955 135.213 34.6227L128.035 31.0893ZM125.28 34.312C124.153 35.0164 122.894 35.384 121.4 35.384V43.384C124.322 43.384 127.063 42.6316 129.52 41.096L125.28 34.312ZM121.4 35.384C120.109 35.384 119.124 35.1214 118.338 34.7026L114.574 41.7614C116.668 42.8786 118.979 43.384 121.4 43.384V35.384ZM118.371 34.7204C117.479 34.2339 116.889 33.6713 116.486 33.0575L109.802 37.4545C110.999 39.2727 112.617 40.6941 114.541 41.7436L118.371 34.7204ZM109.144 35.256V51.768H117.144V35.256H109.144ZM113.144 47.768H104.936V55.768H113.144V47.768ZM108.936 51.768V12.216H100.936V51.768H108.936ZM104.936 16.216H113.144V8.216H104.936V16.216ZM109.144 12.216V16.008H117.144V12.216H109.144ZM128.856 25.56C128.856 22.7387 128.04 20.0151 125.956 17.9316L120.3 23.5884C120.52 23.8089 120.856 24.2853 120.856 25.56H128.856ZM126.034 18.0112C124.141 16.0098 121.689 14.984 118.952 14.984V22.984C119.543 22.984 119.875 23.1422 120.222 23.5088L126.034 18.0112ZM118.952 14.984C116.225 14.984 113.804 16.0233 111.909 17.9706L117.643 23.5494C118.052 23.1287 118.415 22.984 118.952 22.984V14.984ZM111.87 18.0112C109.879 20.1158 109.096 22.8119 109.096 25.608H117.096C117.096 24.3081 117.433 23.7722 117.682 23.5088L111.87 18.0112ZM109.096 25.608C109.096 28.4041 109.879 31.1002 111.87 33.2048L117.682 27.7072C117.433 27.4438 117.096 26.9079 117.096 25.608H109.096ZM111.909 33.2454C113.804 35.1927 116.225 36.232 118.952 36.232V28.232C118.415 28.232 118.052 28.0873 117.643 27.6666L111.909 33.2454ZM118.952 36.232C121.679 36.232 124.1 35.1927 125.995 33.2454L120.261 27.6666C119.852 28.0873 119.489 28.232 118.952 28.232V36.232ZM126.032 33.207C128.037 31.0901 128.856 28.391 128.856 25.56H120.856C120.856 26.825 120.523 27.3899 120.224 27.705L126.032 33.207ZM146.538 18.312L142.971 16.5012L142.96 16.5232L142.949 16.5453L146.538 18.312ZM150.81 13.512L152.93 16.904L150.81 13.512ZM161.754 12.984L159.839 16.4956L159.855 16.5046L159.872 16.5134L161.754 12.984ZM165.066 16.008L161.66 18.1044L169.066 30.1402V16.008H165.066ZM165.066 12.216V8.216H161.066V12.216H165.066ZM173.274 12.216H177.274V8.216H173.274V12.216ZM173.274 39V43H177.274V39H173.274ZM165.066 39H161.066V43H165.066V39ZM165.066 35.208H169.066V21.556L161.699 33.0493L165.066 35.208ZM161.706 38.232L159.824 34.7026L159.807 34.7114L159.791 34.7204L161.706 38.232ZM150.81 37.704L148.647 41.0687L148.669 41.0825L148.69 41.096L150.81 37.704ZM146.538 32.856L142.939 34.6011L142.955 34.6341L142.971 34.6668L146.538 32.856ZM163.338 20.76L160.432 23.5088L160.452 23.5292L160.471 23.5494L163.338 20.76ZM155.034 20.76L152.167 17.9706L152.166 17.9717L155.034 20.76ZM155.034 30.456L152.092 33.1659L152.129 33.2062L152.167 33.2454L155.034 30.456ZM163.338 30.456L160.471 27.6666L160.452 27.6868L160.432 27.7072L163.338 30.456ZM149.002 25.56C149.002 23.307 149.419 21.5155 150.127 20.0787L142.949 16.5453C141.609 19.2685 141.002 22.309 141.002 25.56H149.002ZM150.105 20.1228C150.867 18.6222 151.818 17.599 152.93 16.904L148.69 10.12C146.218 11.665 144.322 13.8418 142.971 16.5012L150.105 20.1228ZM152.93 16.904C154.057 16.1996 155.317 15.832 156.81 15.832V7.832C153.888 7.832 151.147 8.58438 148.69 10.12L152.93 16.904ZM156.81 15.832C158.148 15.832 159.114 16.1005 159.839 16.4956L163.67 9.47241C161.578 8.33148 159.249 7.832 156.81 7.832V15.832ZM159.872 16.5134C160.759 16.9863 161.305 17.5276 161.66 18.1044L168.473 13.9116C167.292 11.9924 165.63 10.5177 163.636 9.45459L159.872 16.5134ZM169.066 16.008V12.216H161.066V16.008H169.066ZM165.066 16.216H173.274V8.216H165.066V16.216ZM169.274 12.216V39H177.274V12.216H169.274ZM173.274 35H165.066V43H173.274V35ZM169.066 39V35.208H161.066V39H169.066ZM161.699 33.0493C161.305 33.664 160.722 34.2235 159.824 34.7026L163.588 41.7614C165.57 40.7045 167.228 39.248 168.434 37.3667L161.699 33.0493ZM159.791 34.7204C159.066 35.1155 158.1 35.384 156.762 35.384V43.384C159.201 43.384 161.53 42.8845 163.622 41.7436L159.791 34.7204ZM156.762 35.384C155.312 35.384 154.067 35.0224 152.93 34.312L148.69 41.096C151.137 42.6256 153.86 43.384 156.762 43.384V35.384ZM152.973 34.3393C151.835 33.6073 150.871 32.5538 150.105 31.0452L142.971 34.6668C144.318 37.3182 146.202 39.4967 148.647 41.0687L152.973 34.3393ZM150.137 31.1109C149.419 29.629 149.002 27.8112 149.002 25.56H141.002C141.002 28.8128 141.609 31.859 142.939 34.6011L150.137 31.1109ZM169.066 25.608C169.066 22.7815 168.249 20.071 166.205 17.9706L160.471 23.5494C160.732 23.817 161.066 24.3384 161.066 25.608H169.066ZM166.244 18.0112C164.367 16.0273 161.94 14.984 159.21 14.984V22.984C159.744 22.984 160.069 23.1247 160.432 23.5088L166.244 18.0112ZM159.21 14.984C156.483 14.984 154.062 16.0233 152.167 17.9706L157.901 23.5494C158.31 23.1287 158.673 22.984 159.21 22.984V14.984ZM152.166 17.9717C150.136 20.0602 149.354 22.7695 149.354 25.56H157.354C157.354 24.2545 157.693 23.7638 157.902 23.5483L152.166 17.9717ZM149.354 25.56C149.354 28.3612 150.139 31.0455 152.092 33.1659L157.976 27.7461C157.689 27.4345 157.354 26.8548 157.354 25.56H149.354ZM152.167 33.2454C154.062 35.1927 156.483 36.232 159.21 36.232V28.232C158.673 28.232 158.31 28.0873 157.901 27.6666L152.167 33.2454ZM159.21 36.232C161.94 36.232 164.367 35.1887 166.244 33.2048L160.432 27.7072C160.069 28.0913 159.744 28.232 159.21 28.232V36.232ZM166.205 33.2454C168.249 31.145 169.066 28.4344 169.066 25.608H161.066C161.066 26.8775 160.732 27.399 160.471 27.6666L166.205 33.2454ZM228.6 33.048L232.389 31.7648L231.469 29.048H228.6V33.048ZM216.024 33.048V29.048H213.156L212.236 31.7648L216.024 33.048ZM214.008 39V43H216.877L217.797 40.2832L214.008 39ZM205.416 39L201.655 37.6391L199.715 43H205.416V39ZM217.608 5.304V1.304H214.802L213.847 3.94305L217.608 5.304ZM227.112 5.304L230.873 3.94305L229.919 1.304H227.112V5.304ZM239.304 39V43H245.005L243.065 37.6391L239.304 39ZM230.616 39L226.828 40.2832L227.748 43H230.616V39ZM226.488 26.712V30.712H232.065L230.277 25.4294L226.488 26.712ZM222.312 14.376L226.101 13.0934L222.29 1.83649L218.519 13.1067L222.312 14.376ZM218.184 26.712L214.391 25.4427L212.628 30.712H218.184V26.712ZM228.6 29.048H216.024V37.048H228.6V29.048ZM212.236 31.7648L210.22 37.7168L217.797 40.2832L219.813 34.3312L212.236 31.7648ZM214.008 35H205.416V43H214.008V35ZM209.177 40.3609L221.369 6.66495L213.847 3.94305L201.655 37.6391L209.177 40.3609ZM217.608 9.304H227.112V1.304H217.608V9.304ZM223.351 6.66495L235.543 40.3609L243.065 37.6391L230.873 3.94305L223.351 6.66495ZM239.304 35H230.616V43H239.304V35ZM234.405 37.7168L232.389 31.7648L224.812 34.3312L226.828 40.2832L234.405 37.7168ZM230.277 25.4294L226.101 13.0934L218.523 15.6586L222.699 27.9946L230.277 25.4294ZM218.519 13.1067L214.391 25.4427L221.977 27.9813L226.105 15.6453L218.519 13.1067ZM218.184 30.712H226.488V22.712H218.184V30.712ZM256.791 38.184L258.397 34.5208L256.791 38.184ZM252.471 34.92L249.271 37.32L249.284 37.3377L249.298 37.3553L252.471 34.92ZM250.695 30.216V26.216H246.388L246.706 30.5115L250.695 30.216ZM258.807 30.216L262.786 29.8044L262.414 26.216H258.807V30.216ZM260.103 32.472L262.503 29.272L260.103 32.472ZM265.287 32.76L267.593 36.0279L267.611 36.0154L267.629 36.0027L265.287 32.76ZM264.951 29.496L263.22 33.1021L263.279 33.1307L263.34 33.1573L264.951 29.496ZM261.063 28.248L262.033 24.3674L262.002 24.3598L261.972 24.3526L261.063 28.248ZM256.263 26.856L254.777 30.5699L254.818 30.5861L254.858 30.6013L256.263 26.856ZM252.951 24.504L249.907 27.0998L249.927 27.1223L249.946 27.1445L252.951 24.504ZM252.807 15.96L249.491 13.7221L249.485 13.7316L249.479 13.7412L252.807 15.96ZM256.551 12.936L254.933 9.27786L254.919 9.28371L254.906 9.28965L256.551 12.936ZM270.375 14.328L267.755 17.3508L267.767 17.3615L267.78 17.3721L270.375 14.328ZM273.735 20.952V24.952H278.175L277.713 20.5357L273.735 20.952ZM266.151 20.952L262.188 21.4985L262.665 24.952H266.151V20.952ZM264.903 18.744L262.386 21.853L262.421 21.8815L262.457 21.9091L264.903 18.744ZM260.007 18.504L262.273 21.8002L262.341 21.7535L262.407 21.704L260.007 18.504ZM260.439 21.72L258.708 25.3261L258.735 25.3392L258.763 25.3518L260.439 21.72ZM264.279 22.872L265.278 18.9989L265.213 18.982L265.146 18.9673L264.279 22.872ZM269.127 24.408L267.609 28.1087L267.65 28.1255L267.691 28.1414L269.127 24.408ZM272.391 26.808L269.311 29.3601L269.35 29.4079L269.391 29.4545L272.391 26.808ZM273.879 31.224H277.879V31.1895L277.878 31.155L273.879 31.224ZM272.535 35.448L269.285 33.1152L269.28 33.1232L269.274 33.1312L272.535 35.448ZM268.743 38.328L267.184 34.6441L267.171 34.6496L267.158 34.6552L268.743 38.328ZM263.031 35.384C261.153 35.384 259.635 35.0636 258.397 34.5208L255.184 41.8472C257.595 42.9044 260.236 43.384 263.031 43.384V35.384ZM258.397 34.5208C257.098 33.951 256.232 33.2512 255.644 32.4847L249.298 37.3553C250.821 39.3408 252.835 40.817 255.184 41.8472L258.397 34.5208ZM255.671 32.52C255.066 31.7135 254.754 30.8734 254.684 29.9205L246.706 30.5115C246.891 33.0146 247.764 35.3105 249.271 37.32L255.671 32.52ZM250.695 34.216H258.807V26.216H250.695V34.216ZM254.828 30.6276C255.042 32.7004 256.072 34.4491 257.703 35.672L262.503 29.272C262.501 29.271 262.523 29.2874 262.558 29.3252C262.592 29.3638 262.633 29.4168 262.671 29.4835C262.755 29.6289 262.78 29.7543 262.786 29.8044L254.828 30.6276ZM257.703 35.672C259.274 36.8504 261.099 37.336 262.935 37.336V29.336C262.718 29.336 262.601 29.3083 262.554 29.2941C262.513 29.2817 262.505 29.2736 262.503 29.272L257.703 35.672ZM262.935 37.336C264.37 37.336 266.1 37.0819 267.593 36.0279L262.98 29.4921C263.194 29.3412 263.345 29.3053 263.339 29.3068C263.337 29.3072 263.305 29.315 263.235 29.3224C263.166 29.3297 263.067 29.336 262.935 29.336V37.336ZM267.629 36.0027C269.113 34.9307 270.151 33.2561 270.151 31.176H262.151C262.151 30.871 262.226 30.4978 262.423 30.1366C262.612 29.7897 262.836 29.596 262.945 29.5173L267.629 36.0027ZM270.151 31.176C270.151 30.0594 269.846 28.8913 269.106 27.855C268.389 26.8517 267.445 26.2233 266.562 25.8347L263.34 33.1573C263.257 33.1207 262.912 32.9483 262.596 32.505C262.256 32.0287 262.151 31.5246 262.151 31.176H270.151ZM266.682 25.8899C265.496 25.3208 263.869 24.8265 262.033 24.3674L260.093 32.1286C261.84 32.5655 262.806 32.9032 263.22 33.1021L266.682 25.8899ZM261.972 24.3526C260.153 23.9283 258.732 23.51 257.667 23.1107L254.858 30.6013C256.353 31.162 258.132 31.6717 260.154 32.1434L261.972 24.3526ZM257.748 23.1421C257.064 22.8683 256.477 22.457 255.955 21.8635L249.946 27.1445C251.281 28.663 252.902 29.8197 254.777 30.5699L257.748 23.1421ZM255.994 21.9082C255.838 21.7253 255.559 21.2772 255.559 20.136H247.559C247.559 22.6428 248.207 25.1067 249.907 27.0998L255.994 21.9082ZM255.559 20.136C255.559 19.3695 255.752 18.7531 256.135 18.1788L249.479 13.7412C248.197 15.6629 247.559 17.8305 247.559 20.136H255.559ZM256.122 18.1979C256.508 17.6261 257.13 17.0626 258.195 16.5823L254.906 9.28965C252.707 10.2814 250.833 11.7339 249.491 13.7221L256.122 18.1979ZM258.169 16.5941C259.213 16.1322 260.606 15.832 262.455 15.832V7.832C259.76 7.832 257.216 8.26778 254.933 9.27786L258.169 16.5941ZM262.455 15.832C265.167 15.832 266.769 16.4965 267.755 17.3508L272.994 11.3052C270.14 8.83151 266.462 7.832 262.455 7.832V15.832ZM267.78 17.3721C268.886 18.3147 269.566 19.5491 269.756 21.3683L277.713 20.5357C277.327 16.8509 275.768 13.6693 272.97 11.2839L267.78 17.3721ZM273.735 16.952H266.151V24.952H273.735V16.952ZM270.113 20.4055C269.85 18.5006 268.929 16.8001 267.349 15.5789L262.457 21.9091C262.41 21.8726 262.328 21.7924 262.26 21.6722C262.195 21.5558 262.186 21.4805 262.188 21.4985L270.113 20.4055ZM267.42 15.635C265.848 14.3629 263.977 13.928 262.215 13.928V21.928C262.456 21.928 262.559 21.9577 262.565 21.9595C262.566 21.96 262.546 21.9538 262.51 21.9353C262.474 21.9164 262.431 21.8892 262.386 21.853L267.42 15.635ZM262.215 13.928C260.801 13.928 259.08 14.1987 257.607 15.304L262.407 21.704C262.177 21.8765 261.994 21.9316 261.952 21.9425C261.918 21.9515 261.991 21.928 262.215 21.928V13.928ZM257.741 15.2078C256.105 16.3324 255.239 18.0821 255.239 19.992H263.239C263.239 20.2162 263.19 20.5772 262.985 20.9746C262.778 21.3765 262.498 21.6456 262.273 21.8002L257.741 15.2078ZM255.239 19.992C255.239 21.1103 255.544 22.2599 256.253 23.2816C256.94 24.27 257.847 24.9127 258.708 25.3261L262.17 18.1139C262.231 18.1433 262.538 18.306 262.824 18.7184C263.134 19.1641 263.239 19.6417 263.239 19.992H255.239ZM258.763 25.3518C259.993 25.9198 261.611 26.3768 263.411 26.7767L265.146 18.9673C263.49 18.5992 262.548 18.2882 262.115 18.0882L258.763 25.3518ZM263.279 26.7451C265.167 27.2323 266.592 27.6916 267.609 28.1087L270.645 20.7073C269.166 20.1004 267.358 19.5357 265.278 18.9989L263.279 26.7451ZM267.691 28.1414C268.243 28.3538 268.781 28.7206 269.311 29.3601L275.471 24.2559C274.145 22.6553 272.506 21.4222 270.563 20.6746L267.691 28.1414ZM269.391 29.4545C269.563 29.6491 269.859 30.1158 269.879 31.293L277.878 31.155C277.834 28.6202 277.138 26.1429 275.39 24.1615L269.391 29.4545ZM269.879 31.224C269.879 31.9735 269.683 32.562 269.285 33.1152L275.784 37.7808C277.179 35.8381 277.879 33.6105 277.879 31.224H269.879ZM269.274 33.1312C268.923 33.6259 268.31 34.1679 267.184 34.6441L270.301 42.0119C272.504 41.0801 274.419 39.7021 275.795 37.7648L269.274 33.1312ZM267.158 34.6552C266.126 35.1007 264.781 35.384 263.031 35.384V43.384C265.633 43.384 268.096 42.9633 270.327 42.0008L267.158 34.6552ZM296.228 16.008H292.228V30.1402L299.635 18.1044L296.228 16.008ZM299.54 12.984L297.658 9.45459L299.54 12.984ZM310.484 13.512L308.364 16.904L310.484 13.512ZM314.708 18.312L311.12 20.0787L311.131 20.1008L311.142 20.1228L314.708 18.312ZM314.708 32.856L311.131 31.0671L311.125 31.0782L311.12 31.0893L314.708 32.856ZM310.484 37.704L312.604 41.096L312.626 41.0825L312.647 41.0687L310.484 37.704ZM299.54 38.28L297.625 41.7916L297.656 41.8085L297.687 41.8249L299.54 38.28ZM296.228 35.256L299.596 33.0973L292.228 21.604V35.256H296.228ZM296.228 39V43H300.228V39H296.228ZM288.02 39H284.02V43H288.02V39ZM288.02 3.48V-0.52H284.02V3.48H288.02ZM296.228 3.48H300.228V-0.52H296.228V3.48ZM306.212 20.76L303.306 23.5088L303.345 23.5491L303.384 23.5884L306.212 20.76ZM297.86 20.76L294.993 17.9706L294.974 17.9908L294.954 18.0112L297.86 20.76ZM297.86 30.456L294.954 33.2048L294.974 33.2252L294.993 33.2454L297.86 30.456ZM306.212 30.456L309.079 33.2454L309.098 33.2263L309.116 33.207L306.212 30.456ZM299.635 18.1044C299.99 17.5276 300.536 16.9863 301.423 16.5134L297.658 9.45459C295.665 10.5177 294.003 11.9924 292.822 13.9116L299.635 18.1044ZM301.423 16.5134C302.208 16.0946 303.194 15.832 304.484 15.832V7.832C302.063 7.832 299.753 8.33742 297.658 9.45459L301.423 16.5134ZM304.484 15.832C305.978 15.832 307.237 16.1996 308.364 16.904L312.604 10.12C310.147 8.58438 307.407 7.832 304.484 7.832V15.832ZM308.364 16.904C309.465 17.5916 310.391 18.5995 311.12 20.0787L318.297 16.5453C316.977 13.8645 315.088 11.6724 312.604 10.12L308.364 16.904ZM311.142 20.1228C311.866 21.5492 312.292 23.3246 312.292 25.56H320.292C320.292 22.2914 319.663 19.2348 318.275 16.5012L311.142 20.1228ZM312.292 25.56C312.292 27.7936 311.866 29.5956 311.131 31.0671L318.286 34.6449C319.662 31.8924 320.292 28.8304 320.292 25.56H312.292ZM311.12 31.0893C310.388 32.5765 309.448 33.6149 308.321 34.3393L312.647 41.0687C315.105 39.4891 316.981 37.2955 318.297 34.6227L311.12 31.0893ZM308.364 34.312C307.237 35.0164 305.978 35.384 304.484 35.384V43.384C307.407 43.384 310.147 42.6316 312.604 41.096L308.364 34.312ZM304.484 35.384C303.121 35.384 302.131 35.1207 301.393 34.7351L297.687 41.8249C299.766 42.9113 302.072 43.384 304.484 43.384V35.384ZM301.456 34.7684C300.588 34.2952 300.004 33.7337 299.596 33.0973L292.861 37.4147C294.053 39.2743 295.677 40.7288 297.625 41.7916L301.456 34.7684ZM292.228 35.256V39H300.228V35.256H292.228ZM296.228 35H288.02V43H296.228V35ZM292.02 39V3.48H284.02V39H292.02ZM288.02 7.48H296.228V-0.52H288.02V7.48ZM292.228 3.48V16.008H300.228V3.48H292.228ZM311.94 25.56C311.94 22.7387 311.124 20.0151 309.041 17.9316L303.384 23.5884C303.604 23.8089 303.94 24.2853 303.94 25.56H311.94ZM309.118 18.0112C307.225 16.0098 304.774 14.984 302.036 14.984V22.984C302.627 22.984 302.96 23.1422 303.306 23.5088L309.118 18.0112ZM302.036 14.984C299.31 14.984 296.888 16.0233 294.993 17.9706L300.727 23.5494C301.137 23.1287 301.499 22.984 302.036 22.984V14.984ZM294.954 18.0112C292.964 20.1158 292.18 22.8119 292.18 25.608H300.18C300.18 24.3081 300.517 23.7722 300.766 23.5088L294.954 18.0112ZM292.18 25.608C292.18 28.4041 292.964 31.1002 294.954 33.2048L300.766 27.7072C300.517 27.4438 300.18 26.9079 300.18 25.608H292.18ZM294.993 33.2454C296.888 35.1927 299.31 36.232 302.036 36.232V28.232C301.499 28.232 301.137 28.0873 300.727 27.6666L294.993 33.2454ZM302.036 36.232C304.763 36.232 307.185 35.1927 309.079 33.2454L303.345 27.6666C302.936 28.0873 302.574 28.232 302.036 28.232V36.232ZM309.116 33.207C311.122 31.0901 311.94 28.391 311.94 25.56H303.94C303.94 26.825 303.607 27.3899 303.309 27.705L309.116 33.207ZM337.926 16.68H333.926V30.1357L341.277 18.8651L337.926 16.68ZM341.526 13.224L343.528 16.6875L343.556 16.671L343.584 16.654L341.526 13.224ZM346.327 11.928H350.327V7.928H346.327V11.928ZM346.327 20.616V24.616H350.327V20.616H346.327ZM339.462 21.96L342.042 25.0172L342.069 24.994L342.096 24.9703L339.462 21.96ZM337.926 39V43H341.926V39H337.926ZM329.719 39H325.719V43H329.719V39ZM329.719 12.216V8.216H325.719V12.216H329.719ZM337.926 12.216H341.926V8.216H337.926V12.216ZM341.277 18.8651C341.914 17.8886 342.662 17.1874 343.528 16.6875L339.525 9.76054C337.511 10.9246 335.859 12.5274 334.576 14.4949L341.277 18.8651ZM343.584 16.654C344.372 16.1813 345.255 15.928 346.327 15.928V7.928C343.878 7.928 341.561 8.53875 339.469 9.79403L343.584 16.654ZM342.327 11.928V20.616H350.327V11.928H342.327ZM346.327 16.616H344.07V24.616H346.327V16.616ZM344.07 16.616C341.527 16.616 338.873 17.1608 336.828 18.9497L342.096 24.9703C342.1 24.9672 342.518 24.616 344.07 24.616V16.616ZM336.883 18.9028C334.512 20.9031 333.926 23.9269 333.926 26.568H341.926C341.926 25.7487 342.025 25.2669 342.105 25.0249C342.177 24.8087 342.199 24.8845 342.042 25.0172L336.883 18.9028ZM333.926 26.568V39H341.926V26.568H333.926ZM337.926 35H329.719V43H337.926V35ZM333.719 39V12.216H325.719V39H333.719ZM329.719 16.216H337.926V8.216H329.719V16.216ZM333.926 12.216V16.68H341.926V12.216H333.926ZM359.274 18.312L355.707 16.5012L355.696 16.5232L355.685 16.5453L359.274 18.312ZM363.546 13.512L365.666 16.904L363.546 13.512ZM374.49 12.984L372.574 16.4956L372.591 16.5046L372.607 16.5134L374.49 12.984ZM377.802 16.008L374.395 18.1044L381.802 30.1402V16.008H377.802ZM377.802 12.216V8.216H373.802V12.216H377.802ZM386.01 12.216H390.01V8.216H386.01V12.216ZM386.01 39V43H390.01V39H386.01ZM377.802 39H373.802V43H377.802V39ZM377.802 35.208H381.802V21.556L374.434 33.0493L377.802 35.208ZM374.442 38.232L372.559 34.7026L372.543 34.7114L372.526 34.7204L374.442 38.232ZM363.546 37.704L361.383 41.0687L361.404 41.0825L361.426 41.096L363.546 37.704ZM359.274 32.856L355.674 34.6011L355.69 34.6341L355.707 34.6668L359.274 32.856ZM376.074 20.76L373.168 23.5088L373.187 23.5292L373.207 23.5494L376.074 20.76ZM367.77 20.76L364.903 17.9706L364.902 17.9717L367.77 20.76ZM367.77 30.456L364.828 33.1659L364.865 33.2062L364.903 33.2454L367.77 30.456ZM376.074 30.456L373.207 27.6666L373.187 27.6868L373.168 27.7072L376.074 30.456ZM361.738 25.56C361.738 23.307 362.155 21.5155 362.862 20.0787L355.685 16.5453C354.344 19.2685 353.738 22.309 353.738 25.56H361.738ZM362.84 20.1228C363.602 18.6222 364.554 17.599 365.666 16.904L361.426 10.12C358.954 11.665 357.057 13.8418 355.707 16.5012L362.84 20.1228ZM365.666 16.904C366.793 16.1996 368.052 15.832 369.546 15.832V7.832C366.623 7.832 363.883 8.58438 361.426 10.12L365.666 16.904ZM369.546 15.832C370.883 15.832 371.85 16.1005 372.574 16.4956L376.405 9.47241C374.313 8.33148 371.984 7.832 369.546 7.832V15.832ZM372.607 16.5134C373.494 16.9863 374.04 17.5276 374.395 18.1044L381.208 13.9116C380.027 11.9924 378.365 10.5177 376.372 9.45459L372.607 16.5134ZM381.802 16.008V12.216H373.802V16.008H381.802ZM377.802 16.216H386.01V8.216H377.802V16.216ZM382.01 12.216V39H390.01V12.216H382.01ZM386.01 35H377.802V43H386.01V35ZM381.802 39V35.208H373.802V39H381.802ZM374.434 33.0493C374.04 33.664 373.458 34.2235 372.559 34.7026L376.324 41.7614C378.306 40.7045 379.963 39.248 381.169 37.3667L374.434 33.0493ZM372.526 34.7204C371.802 35.1155 370.835 35.384 369.498 35.384V43.384C371.936 43.384 374.265 42.8845 376.357 41.7436L372.526 34.7204ZM369.498 35.384C368.048 35.384 366.802 35.0224 365.666 34.312L361.426 41.096C363.873 42.6256 366.596 43.384 369.498 43.384V35.384ZM365.709 34.3393C364.57 33.6073 363.606 32.5538 362.84 31.0452L355.707 34.6668C357.053 37.3182 358.937 39.4967 361.383 41.0687L365.709 34.3393ZM362.873 31.1109C362.155 29.629 361.738 27.8112 361.738 25.56H353.738C353.738 28.8128 354.345 31.859 355.674 34.6011L362.873 31.1109ZM381.802 25.608C381.802 22.7815 380.984 20.071 378.941 17.9706L373.207 23.5494C373.467 23.817 373.802 24.3384 373.802 25.608H381.802ZM378.98 18.0112C377.103 16.0273 374.676 14.984 371.946 14.984V22.984C372.48 22.984 372.805 23.1247 373.168 23.5088L378.98 18.0112ZM371.946 14.984C369.219 14.984 366.798 16.0233 364.903 17.9706L370.637 23.5494C371.046 23.1287 371.408 22.984 371.946 22.984V14.984ZM364.902 17.9717C362.871 20.0602 362.09 22.7695 362.09 25.56H370.09C370.09 24.2545 370.428 23.7638 370.638 23.5483L364.902 17.9717ZM362.09 25.56C362.09 28.3612 362.875 31.0455 364.828 33.1659L370.712 27.7461C370.425 27.4345 370.09 26.8548 370.09 25.56H362.09ZM364.903 33.2454C366.798 35.1927 369.219 36.232 371.946 36.232V28.232C371.408 28.232 371.046 28.0873 370.637 27.6666L364.903 33.2454ZM371.946 36.232C374.676 36.232 377.103 35.1887 378.98 33.2048L373.168 27.7072C372.805 28.0913 372.48 28.232 371.946 28.232V36.232ZM378.941 33.2454C380.984 31.145 381.802 28.4344 381.802 25.608H373.802C373.802 26.8775 373.467 27.399 373.207 27.6666L378.941 33.2454ZM416.188 12.984L414.272 16.4956L414.289 16.5046L414.306 16.5134L416.188 12.984ZM419.5 16.008L416.093 18.1044L423.5 30.1402V16.008H419.5ZM419.5 12.216V8.216H415.5V12.216H419.5ZM427.708 12.216H431.708V8.216H427.708V12.216ZM426.22 45.624L422.642 43.8351L422.625 43.8695L422.608 43.9043L426.22 45.624ZM421.756 50.424L419.73 46.9749L419.718 46.982L419.706 46.9892L421.756 50.424ZM404.668 49.368L407.101 46.1929L407.088 46.1829L407.075 46.173L404.668 49.368ZM400.444 41.784V37.784H395.98L396.468 42.2214L400.444 41.784ZM408.556 41.784L412.436 40.8139L411.679 37.784H408.556V41.784ZM410.38 44.184L412.52 40.8047L412.479 40.7789L412.438 40.754L410.38 44.184ZM417.964 43.608L415.228 40.6899L415.181 40.734L415.135 40.7796L417.964 43.608ZM419.5 35.16H423.5V21.508L416.132 33.0013L419.5 35.16ZM416.188 38.232L418.103 41.7436L418.134 41.727L418.164 41.7098L416.188 38.232ZM405.244 37.704L403.081 41.0687L403.102 41.0825L403.124 41.096L405.244 37.704ZM400.972 32.856L397.373 34.6011L397.389 34.6341L397.405 34.6668L400.972 32.856ZM400.972 18.312L397.405 16.5012L397.394 16.5232L397.383 16.5453L400.972 18.312ZM405.244 13.512L407.364 16.904L405.244 13.512ZM417.772 20.76L414.866 23.5088L414.885 23.5292L414.905 23.5494L417.772 20.76ZM409.468 20.76L406.601 17.9706L406.6 17.9717L409.468 20.76ZM409.468 30.456L406.526 33.1659L406.563 33.2062L406.601 33.2454L409.468 30.456ZM417.772 30.456L414.905 27.6666L414.885 27.6868L414.866 27.7072L417.772 30.456ZM411.244 15.832C412.581 15.832 413.548 16.1005 414.272 16.4956L418.103 9.47241C416.012 8.33148 413.682 7.832 411.244 7.832V15.832ZM414.306 16.5134C415.192 16.9863 415.738 17.5276 416.093 18.1044L422.907 13.9116C421.725 11.9924 420.064 10.5177 418.07 9.45459L414.306 16.5134ZM423.5 16.008V12.216H415.5V16.008H423.5ZM419.5 16.216H427.708V8.216H419.5V16.216ZM423.708 12.216V38.952H431.708V12.216H423.708ZM423.708 38.952C423.708 40.8647 423.327 42.4657 422.642 43.8351L429.798 47.4129C431.097 44.8143 431.708 41.9673 431.708 38.952H423.708ZM422.608 43.9043C422.009 45.1631 421.091 46.1757 419.73 46.9749L423.782 53.8731C426.453 52.3043 428.511 50.1169 429.831 47.3437L422.608 43.9043ZM419.706 46.9892C418.496 47.7111 416.774 48.2 414.316 48.2V56.2C417.81 56.2 421.048 55.5049 423.806 53.8588L419.706 46.9892ZM414.316 48.2C410.98 48.2 408.693 47.4128 407.101 46.1929L402.235 52.5431C405.571 55.0992 409.716 56.2 414.316 56.2V48.2ZM407.075 46.173C405.534 45.0124 404.657 43.5042 404.42 41.3466L396.468 42.2214C396.935 46.4638 398.874 50.0116 402.261 52.563L407.075 46.173ZM400.444 45.784H408.556V37.784H400.444V45.784ZM404.675 42.7541C405.205 44.8746 406.513 46.5289 408.322 47.614L412.438 40.754C412.389 40.7246 412.367 40.7062 412.364 40.7035C412.362 40.7014 412.372 40.7105 412.389 40.7317C412.405 40.7531 412.419 40.7765 412.429 40.7977C412.439 40.8184 412.439 40.826 412.436 40.8139L404.675 42.7541ZM408.24 47.5633C409.977 48.6638 411.947 49.096 413.932 49.096V41.096C413.101 41.096 412.702 40.9202 412.52 40.8047L408.24 47.5633ZM413.932 49.096C416.452 49.096 418.898 48.3308 420.792 46.4364L415.135 40.7796C415.046 40.8692 414.804 41.096 413.932 41.096V49.096ZM420.7 46.5261C422.872 44.4893 423.5 41.6238 423.5 38.952H415.5C415.5 40.5682 415.103 40.8067 415.228 40.6899L420.7 46.5261ZM423.5 38.952V35.16H415.5V38.952H423.5ZM416.132 33.0013C415.714 33.654 415.109 34.2443 414.212 34.7542L418.164 41.7098C420.083 40.6197 421.686 39.162 422.867 37.3187L416.132 33.0013ZM414.272 34.7204C413.548 35.1155 412.581 35.384 411.244 35.384V43.384C413.682 43.384 416.012 42.8845 418.103 41.7436L414.272 34.7204ZM411.244 35.384C409.75 35.384 408.491 35.0164 407.364 34.312L403.124 41.096C405.581 42.6316 408.322 43.384 411.244 43.384V35.384ZM407.407 34.3393C406.268 33.6073 405.304 32.5538 404.539 31.0452L397.405 34.6668C398.751 37.3182 400.635 39.4967 403.081 41.0687L407.407 34.3393ZM404.571 31.1109C403.853 29.629 403.436 27.8112 403.436 25.56H395.436C395.436 28.8128 396.043 31.859 397.373 34.6011L404.571 31.1109ZM403.436 25.56C403.436 23.307 403.853 21.5155 404.561 20.0787L397.383 16.5453C396.043 19.2685 395.436 22.309 395.436 25.56H403.436ZM404.539 20.1228C405.3 18.6222 406.252 17.599 407.364 16.904L403.124 10.12C400.652 11.665 398.755 13.8418 397.405 16.5012L404.539 20.1228ZM407.364 16.904C408.491 16.1996 409.75 15.832 411.244 15.832V7.832C408.322 7.832 405.581 8.58438 403.124 10.12L407.364 16.904ZM423.5 25.608C423.5 22.7815 422.682 20.071 420.639 17.9706L414.905 23.5494C415.165 23.817 415.5 24.3384 415.5 25.608H423.5ZM420.678 18.0112C418.801 16.0273 416.374 14.984 413.644 14.984V22.984C414.178 22.984 414.503 23.1247 414.866 23.5088L420.678 18.0112ZM413.644 14.984C410.917 14.984 408.496 16.0233 406.601 17.9706L412.335 23.5494C412.744 23.1287 413.107 22.984 413.644 22.984V14.984ZM406.6 17.9717C404.569 20.0602 403.788 22.7695 403.788 25.56H411.788C411.788 24.2545 412.126 23.7638 412.336 23.5483L406.6 17.9717ZM403.788 25.56C403.788 28.3612 404.573 31.0455 406.526 33.1659L412.41 27.7461C412.123 27.4345 411.788 26.8548 411.788 25.56H403.788ZM406.601 33.2454C408.496 35.1927 410.917 36.232 413.644 36.232V28.232C413.107 28.232 412.744 28.0873 412.335 27.6666L406.601 33.2454ZM413.644 36.232C416.374 36.232 418.801 35.1887 420.678 33.2048L414.866 27.7072C414.503 28.0913 414.178 28.232 413.644 28.232V36.232ZM420.639 33.2454C422.682 31.145 423.5 28.4344 423.5 25.608H415.5C415.5 26.8775 415.165 27.399 414.905 27.6666L420.639 33.2454ZM442.67 18.312L439.103 16.5012L439.092 16.5232L439.081 16.5453L442.67 18.312ZM446.942 13.512L449.062 16.904L446.942 13.512ZM457.886 12.984L455.971 16.4956L455.987 16.5046L456.004 16.5134L457.886 12.984ZM461.198 16.008L457.791 18.1044L465.198 30.1402V16.008H461.198ZM461.198 12.216V8.216H457.198V12.216H461.198ZM469.406 12.216H473.406V8.216H469.406V12.216ZM469.406 39V43H473.406V39H469.406ZM461.198 39H457.198V43H461.198V39ZM461.198 35.208H465.198V21.556L457.831 33.0493L461.198 35.208ZM457.838 38.232L455.956 34.7026L455.939 34.7114L455.923 34.7204L457.838 38.232ZM446.942 37.704L444.779 41.0687L444.8 41.0825L444.822 41.096L446.942 37.704ZM442.67 32.856L439.071 34.6011L439.087 34.6341L439.103 34.6668L442.67 32.856ZM459.47 20.76L456.564 23.5088L456.583 23.5292L456.603 23.5494L459.47 20.76ZM451.166 20.76L448.299 17.9706L448.298 17.9717L451.166 20.76ZM451.166 30.456L448.224 33.1659L448.261 33.2062L448.299 33.2454L451.166 30.456ZM459.47 30.456L456.603 27.6666L456.583 27.6868L456.564 27.7072L459.47 30.456ZM445.134 25.56C445.134 23.307 445.551 21.5155 446.259 20.0787L439.081 16.5453C437.741 19.2685 437.134 22.309 437.134 25.56H445.134ZM446.237 20.1228C446.999 18.6222 447.95 17.599 449.062 16.904L444.822 10.12C442.35 11.665 440.454 13.8418 439.103 16.5012L446.237 20.1228ZM449.062 16.904C450.189 16.1996 451.448 15.832 452.942 15.832V7.832C450.02 7.832 447.279 8.58438 444.822 10.12L449.062 16.904ZM452.942 15.832C454.28 15.832 455.246 16.1005 455.971 16.4956L459.801 9.47241C457.71 8.33148 455.38 7.832 452.942 7.832V15.832ZM456.004 16.5134C456.89 16.9863 457.436 17.5276 457.791 18.1044L464.605 13.9116C463.424 11.9924 461.762 10.5177 459.768 9.45459L456.004 16.5134ZM465.198 16.008V12.216H457.198V16.008H465.198ZM461.198 16.216H469.406V8.216H461.198V16.216ZM465.406 12.216V39H473.406V12.216H465.406ZM469.406 35H461.198V43H469.406V35ZM465.198 39V35.208H457.198V39H465.198ZM457.831 33.0493C457.436 33.664 456.854 34.2235 455.956 34.7026L459.72 41.7614C461.702 40.7045 463.36 39.248 464.566 37.3667L457.831 33.0493ZM455.923 34.7204C455.198 35.1155 454.232 35.384 452.894 35.384V43.384C455.332 43.384 457.662 42.8845 459.753 41.7436L455.923 34.7204ZM452.894 35.384C451.444 35.384 450.199 35.0224 449.062 34.312L444.822 41.096C447.269 42.6256 449.992 43.384 452.894 43.384V35.384ZM449.105 34.3393C447.966 33.6073 447.003 32.5538 446.237 31.0452L439.103 34.6668C440.449 37.3182 442.334 39.4967 444.779 41.0687L449.105 34.3393ZM446.269 31.1109C445.551 29.629 445.134 27.8112 445.134 25.56H437.134C437.134 28.8128 437.741 31.859 439.071 34.6011L446.269 31.1109ZM465.198 25.608C465.198 22.7815 464.381 20.071 462.337 17.9706L456.603 23.5494C456.863 23.817 457.198 24.3384 457.198 25.608H465.198ZM462.376 18.0112C460.499 16.0273 458.072 14.984 455.342 14.984V22.984C455.876 22.984 456.201 23.1247 456.564 23.5088L462.376 18.0112ZM455.342 14.984C452.615 14.984 450.194 16.0233 448.299 17.9706L454.033 23.5494C454.442 23.1287 454.805 22.984 455.342 22.984V14.984ZM448.298 17.9717C446.268 20.0602 445.486 22.7695 445.486 25.56H453.486C453.486 24.2545 453.824 23.7638 454.034 23.5483L448.298 17.9717ZM445.486 25.56C445.486 28.3612 446.271 31.0455 448.224 33.1659L454.108 27.7461C453.821 27.4345 453.486 26.8548 453.486 25.56H445.486ZM448.299 33.2454C450.194 35.1927 452.615 36.232 455.342 36.232V28.232C454.805 28.232 454.442 28.0873 454.033 27.6666L448.299 33.2454ZM455.342 36.232C458.072 36.232 460.499 35.1887 462.376 33.2048L456.564 27.7072C456.201 28.0913 455.876 28.232 455.342 28.232V36.232ZM462.337 33.2454C464.381 31.145 465.198 28.4344 465.198 25.608H457.198C457.198 26.8775 456.863 27.399 456.603 27.6666L462.337 33.2454ZM492.672 16.68H488.672V30.1357L496.023 18.8651L492.672 16.68ZM496.272 13.224L498.273 16.6875L498.302 16.671L498.33 16.654L496.272 13.224ZM501.072 11.928H505.072V7.928H501.072V11.928ZM501.072 20.616V24.616H505.072V20.616H501.072ZM494.208 21.96L496.788 25.0172L496.815 24.994L496.842 24.9703L494.208 21.96ZM492.672 39V43H496.672V39H492.672ZM484.464 39H480.464V43H484.464V39ZM484.464 12.216V8.216H480.464V12.216H484.464ZM492.672 12.216H496.672V8.216H492.672V12.216ZM496.023 18.8651C496.659 17.8886 497.408 17.1874 498.273 16.6875L494.271 9.76054C492.256 10.9246 490.605 12.5274 489.322 14.4949L496.023 18.8651ZM498.33 16.654C499.118 16.1813 500.001 15.928 501.072 15.928V7.928C498.624 7.928 496.306 8.53875 494.214 9.79403L498.33 16.654ZM497.072 11.928V20.616H505.072V11.928H497.072ZM501.072 16.616H498.816V24.616H501.072V16.616ZM498.816 16.616C496.273 16.616 493.619 17.1608 491.574 18.9497L496.842 24.9703C496.846 24.9672 497.263 24.616 498.816 24.616V16.616ZM491.629 18.9028C489.258 20.9031 488.672 23.9269 488.672 26.568H496.672C496.672 25.7487 496.77 25.2669 496.851 25.0249C496.923 24.8087 496.945 24.8845 496.788 25.0172L491.629 18.9028ZM488.672 26.568V39H496.672V26.568H488.672ZM492.672 35H484.464V43H492.672V35ZM488.464 39V12.216H480.464V39H488.464ZM484.464 16.216H492.672V8.216H484.464V16.216ZM488.672 12.216V16.68H496.672V12.216H488.672ZM514.019 18.312L510.453 16.5012L510.442 16.5232L510.431 16.5453L514.019 18.312ZM518.291 13.512L520.411 16.904L518.291 13.512ZM529.235 12.984L527.32 16.4956L527.336 16.5046L527.353 16.5134L529.235 12.984ZM532.547 16.008L529.141 18.1044L536.547 30.1402V16.008H532.547ZM532.547 12.216V8.216H528.547V12.216H532.547ZM540.755 12.216H544.755V8.216H540.755V12.216ZM540.755 39V43H544.755V39H540.755ZM532.547 39H528.547V43H532.547V39ZM532.547 35.208H536.547V21.556L529.18 33.0493L532.547 35.208ZM529.187 38.232L527.305 34.7026L527.289 34.7114L527.272 34.7204L529.187 38.232ZM518.291 37.704L516.128 41.0687L516.15 41.0825L516.171 41.096L518.291 37.704ZM514.019 32.856L510.42 34.6011L510.436 34.6341L510.453 34.6668L514.019 32.856ZM530.819 20.76L527.914 23.5088L527.933 23.5292L527.953 23.5494L530.819 20.76ZM522.515 20.76L519.648 17.9706L519.647 17.9717L522.515 20.76ZM522.515 30.456L519.573 33.1659L519.61 33.2062L519.648 33.2454L522.515 30.456ZM530.819 30.456L527.953 27.6666L527.933 27.6868L527.914 27.7072L530.819 30.456ZM516.483 25.56C516.483 23.307 516.901 21.5155 517.608 20.0787L510.431 16.5453C509.09 19.2685 508.483 22.309 508.483 25.56H516.483ZM517.586 20.1228C518.348 18.6222 519.299 17.599 520.411 16.904L516.171 10.12C513.699 11.665 511.803 13.8418 510.453 16.5012L517.586 20.1228ZM520.411 16.904C521.538 16.1996 522.798 15.832 524.291 15.832V7.832C521.369 7.832 518.628 8.58438 516.171 10.12L520.411 16.904ZM524.291 15.832C525.629 15.832 526.596 16.1005 527.32 16.4956L531.151 9.47241C529.059 8.33148 526.73 7.832 524.291 7.832V15.832ZM527.353 16.5134C528.24 16.9863 528.786 17.5276 529.141 18.1044L535.954 13.9116C534.773 11.9924 533.111 10.5177 531.118 9.45459L527.353 16.5134ZM536.547 16.008V12.216H528.547V16.008H536.547ZM532.547 16.216H540.755V8.216H532.547V16.216ZM536.755 12.216V39H544.755V12.216H536.755ZM540.755 35H532.547V43H540.755V35ZM536.547 39V35.208H528.547V39H536.547ZM529.18 33.0493C528.786 33.664 528.203 34.2235 527.305 34.7026L531.07 41.7614C533.052 40.7045 534.709 39.248 535.915 37.3667L529.18 33.0493ZM527.272 34.7204C526.548 35.1155 525.581 35.384 524.243 35.384V43.384C526.682 43.384 529.011 42.8845 531.103 41.7436L527.272 34.7204ZM524.243 35.384C522.794 35.384 521.548 35.0224 520.411 34.312L516.171 41.096C518.619 42.6256 521.341 43.384 524.243 43.384V35.384ZM520.454 34.3393C519.316 33.6073 518.352 32.5538 517.586 31.0452L510.453 34.6668C511.799 37.3182 513.683 39.4967 516.128 41.0687L520.454 34.3393ZM517.619 31.1109C516.9 29.629 516.483 27.8112 516.483 25.56H508.483C508.483 28.8128 509.091 31.859 510.42 34.6011L517.619 31.1109ZM536.547 25.608C536.547 22.7815 535.73 20.071 533.686 17.9706L527.953 23.5494C528.213 23.817 528.547 24.3384 528.547 25.608H536.547ZM533.725 18.0112C531.849 16.0273 529.421 14.984 526.691 14.984V22.984C527.226 22.984 527.55 23.1247 527.914 23.5088L533.725 18.0112ZM526.691 14.984C523.965 14.984 521.543 16.0233 519.648 17.9706L525.382 23.5494C525.792 23.1287 526.154 22.984 526.691 22.984V14.984ZM519.647 17.9717C517.617 20.0602 516.835 22.7695 516.835 25.56H524.835C524.835 24.2545 525.174 23.7638 525.383 23.5483L519.647 17.9717ZM516.835 25.56C516.835 28.3612 517.62 31.0455 519.573 33.1659L525.458 27.7461C525.171 27.4345 524.835 26.8548 524.835 25.56H516.835ZM519.648 33.2454C521.543 35.1927 523.965 36.232 526.691 36.232V28.232C526.154 28.232 525.792 28.0873 525.382 27.6666L519.648 33.2454ZM526.691 36.232C529.421 36.232 531.849 35.1887 533.725 33.2048L527.914 27.7072C527.55 28.0913 527.226 28.232 526.691 28.232V36.232ZM533.686 33.2454C535.73 31.145 536.547 28.4344 536.547 25.608H528.547C528.547 26.8775 528.213 27.399 527.953 27.6666L533.686 33.2454ZM573.862 6.12L571.227 9.1303L571.239 9.14041L571.251 9.15043L573.862 6.12ZM574.006 20.76L576.6 23.8041L576.605 23.8005L574.006 20.76ZM566.23 23.304L566.19 19.3042L562.485 19.3409L562.238 23.0379L566.23 23.304ZM565.99 26.904V30.904H569.732L569.981 27.1701L565.99 26.904ZM558.79 26.904L554.791 27.0115L554.896 30.904H558.79V26.904ZM558.549 17.976V13.976H554.441L554.551 18.0835L558.549 17.976ZM567.046 17.064L565.364 13.4348L565.346 13.4427L565.329 13.4509L567.046 17.064ZM562.87 11.16L565.698 13.9884L565.732 13.9539L565.766 13.9186L562.87 11.16ZM561.91 13.8V17.8H565.91V13.8H561.91ZM554.182 13.8L550.184 13.9311L550.311 17.8H554.182V13.8ZM555.382 8.52L551.909 6.53544L551.893 6.56239L551.878 6.58958L555.382 8.52ZM559.318 4.824L561.159 8.37502L561.171 8.36869L561.183 8.36227L559.318 4.824ZM558.934 38.136L556.157 41.0154L556.209 41.0658L556.263 41.1143L558.934 38.136ZM558.934 31.752L556.208 28.8244L556.182 28.8483L556.157 28.8726L558.934 31.752ZM565.942 31.752L563.165 34.6314L563.19 34.6557L563.216 34.6796L565.942 31.752ZM565.942 38.136L568.663 41.0672L568.667 41.0636L565.942 38.136ZM565.654 7.432C568.367 7.432 570.082 8.12816 571.227 9.1303L576.496 3.10969C573.545 0.527834 569.788 -0.568003 565.654 -0.568003V7.432ZM571.251 9.15043C572.281 10.0378 572.982 11.3623 572.982 13.704H580.982C580.982 9.51771 579.602 5.78625 576.472 3.08956L571.251 9.15043ZM572.982 13.704C572.982 15.7407 572.361 16.9035 571.406 17.7195L576.605 23.8005C579.618 21.2245 580.982 17.6833 580.982 13.704H572.982ZM571.411 17.7159C570.342 18.627 568.735 19.279 566.19 19.3042L566.269 27.3038C570.188 27.265 573.765 26.221 576.6 23.8041L571.411 17.7159ZM562.238 23.0379L561.998 26.6379L569.981 27.1701L570.221 23.5701L562.238 23.0379ZM565.99 22.904H558.79V30.904H565.99V22.904ZM562.788 26.7965L562.548 17.8685L554.551 18.0835L554.791 27.0115L562.788 26.7965ZM558.549 21.976H561.43V13.976H558.549V21.976ZM561.43 21.976C564.111 21.976 566.686 21.663 568.762 20.6771L565.329 13.4509C564.845 13.681 563.676 13.976 561.43 13.976V21.976ZM568.727 20.6932C570.02 20.0943 571.169 19.1546 571.96 17.8233C572.736 16.5179 573.014 15.0958 573.014 13.752H565.014C565.014 14.0082 564.963 13.9381 565.083 13.7367C565.14 13.6409 565.211 13.5582 565.281 13.4971C565.348 13.4387 565.387 13.4241 565.364 13.4348L568.727 20.6932ZM573.014 13.752C573.014 11.894 572.492 9.92546 571.002 8.357L565.202 13.867C565.151 13.8139 565.107 13.755 565.071 13.695C565.035 13.6355 565.015 13.587 565.005 13.5581C564.986 13.5025 565.014 13.549 565.014 13.752H573.014ZM571.002 8.357C569.469 6.74391 567.469 6.152 565.557 6.152V14.152C565.713 14.152 565.705 14.1751 565.597 14.1344C565.543 14.1139 565.474 14.0809 565.399 14.0315C565.323 13.9818 565.257 13.925 565.202 13.867L571.002 8.357ZM565.557 6.152C563.593 6.152 561.543 6.75336 559.973 8.40137L565.766 13.9186C565.717 13.9697 565.658 14.0197 565.592 14.0632C565.526 14.1064 565.468 14.1336 565.426 14.1493C565.344 14.1802 565.366 14.152 565.557 14.152V6.152ZM560.041 8.33157C558.481 9.89147 557.91 11.8861 557.91 13.8H565.91C565.91 13.6172 565.936 13.5924 565.909 13.667C565.895 13.7049 565.871 13.759 565.831 13.821C565.792 13.8833 565.746 13.9403 565.698 13.9884L560.041 8.33157ZM561.91 9.8H554.182V17.8H561.91V9.8ZM558.179 13.6689C558.137 12.3686 558.399 11.3316 558.885 10.4504L551.878 6.58958C550.636 8.84439 550.098 11.3274 550.184 13.9311L558.179 13.6689ZM558.854 10.5046C559.339 9.65711 560.059 8.94551 561.159 8.37502L557.476 1.27298C555.12 2.49449 553.216 4.24688 551.909 6.53544L558.854 10.5046ZM561.183 8.36227C562.247 7.80144 563.687 7.432 565.654 7.432V-0.568003C562.692 -0.568003 559.908 -0.00944614 557.452 1.28572L561.183 8.36227ZM562.486 35.384C561.868 35.384 561.685 35.2305 561.604 35.1577L556.263 41.1143C558.038 42.7055 560.223 43.384 562.486 43.384V35.384ZM561.71 35.2566C561.66 35.2082 561.634 35.1747 561.622 35.1581C561.611 35.1422 561.608 35.1349 561.608 35.1338C561.607 35.1327 561.604 35.1248 561.6 35.1045C561.596 35.0834 561.59 35.0398 561.59 34.968H553.59C553.59 37.2988 554.477 39.3952 556.157 41.0154L561.71 35.2566ZM561.59 34.968C561.59 34.882 561.597 34.8264 561.603 34.7954C561.609 34.7654 561.614 34.7511 561.616 34.7464C561.618 34.7419 561.622 34.7341 561.631 34.7201C561.641 34.7055 561.664 34.6753 561.71 34.6314L556.157 28.8726C554.455 30.5142 553.59 32.6366 553.59 34.968H561.59ZM561.659 34.6796C561.745 34.5993 561.909 34.456 562.486 34.456V26.456C560.182 26.456 557.978 27.1767 556.208 28.8244L561.659 34.6796ZM562.486 34.456C563.005 34.456 563.114 34.5824 563.165 34.6314L568.718 28.8726C566.977 27.1936 564.782 26.456 562.486 26.456V34.456ZM563.216 34.6796C563.267 34.7271 563.292 34.7594 563.303 34.7741C563.308 34.7818 563.311 34.7867 563.313 34.789C563.314 34.7912 563.314 34.7923 563.315 34.7929C563.315 34.7934 563.316 34.7952 563.317 34.7988C563.318 34.8024 563.32 34.8096 563.322 34.8212C563.327 34.8436 563.333 34.8904 563.333 34.968H571.333C571.333 32.5896 570.417 30.4532 568.667 28.8244L563.216 34.6796ZM563.333 34.968C563.333 35.0311 563.328 35.0658 563.325 35.0783C563.323 35.09 563.322 35.0909 563.323 35.0869C563.325 35.0831 563.324 35.0881 563.312 35.1041C563.3 35.1209 563.272 35.1565 563.216 35.2084L568.667 41.0636C570.393 39.4566 571.333 37.3464 571.333 34.968H563.333ZM563.22 35.2048C563.176 35.2458 563.048 35.384 562.486 35.384V43.384C564.739 43.384 566.915 42.6902 568.663 41.0672L563.22 35.2048Z" fill="#D1EDFF" mask="url(#path-1-outside-1_108_115)"/>
</svg>
