<svg width="27" height="28" viewBox="0 0 27 28" fill="none" xmlns="http://www.w3.org/2000/svg">
<mask id="path-1-outside-1_81_87" maskUnits="userSpaceOnUse" x="-7.6748" y="-7" width="42" height="42" fill="black">
<rect fill="white" x="-7.6748" y="-7" width="42" height="42"/>
<path d="M26.734 0.215999V27H18.526V23.352C17.694 24.536 16.558 25.496 15.118 26.232C13.71 26.936 12.142 27.288 10.414 27.288C8.366 27.288 6.558 26.84 4.99 25.944C3.422 25.016 2.206 23.688 1.342 21.96C0.477998 20.232 0.0459977 18.2 0.0459977 15.864V0.215999H8.206V14.76C8.206 16.552 8.67 17.944 9.598 18.936C10.526 19.928 11.774 20.424 13.342 20.424C14.942 20.424 16.206 19.928 17.134 18.936C18.062 17.944 18.526 16.552 18.526 14.76V0.215999H26.734Z"/>
</mask>
<path d="M26.734 0.215999V27H18.526V23.352C17.694 24.536 16.558 25.496 15.118 26.232C13.71 26.936 12.142 27.288 10.414 27.288C8.366 27.288 6.558 26.84 4.99 25.944C3.422 25.016 2.206 23.688 1.342 21.96C0.477998 20.232 0.0459977 18.2 0.0459977 15.864V0.215999H8.206V14.76C8.206 16.552 8.67 17.944 9.598 18.936C10.526 19.928 11.774 20.424 13.342 20.424C14.942 20.424 16.206 19.928 17.134 18.936C18.062 17.944 18.526 16.552 18.526 14.76V0.215999H26.734Z" fill="#F2F2F2"/>
<path d="M26.734 0.215999H33.734V-6.784H26.734V0.215999ZM26.734 27V34H33.734V27H26.734ZM18.526 27H11.526V34H18.526V27ZM18.526 23.352H25.526V1.21541L12.7987 19.3274L18.526 23.352ZM15.118 26.232L18.2485 32.493L18.2762 32.4791L18.3038 32.465L15.118 26.232ZM4.99 25.944L1.42475 31.968L1.47068 31.9952L1.51703 32.0217L4.99 25.944ZM1.342 21.96L-4.91899 25.0905L-4.91899 25.0905L1.342 21.96ZM0.0459977 0.215999V-6.784H-6.954V0.215999H0.0459977ZM8.206 0.215999H15.206V-6.784H8.206V0.215999ZM9.598 18.936L4.4861 23.7181L4.4861 23.7181L9.598 18.936ZM18.526 0.215999V-6.784H11.526V0.215999H18.526ZM19.734 0.215999V27H33.734V0.215999H19.734ZM26.734 20H18.526V34H26.734V20ZM25.526 27V23.352H11.526V27H25.526ZM12.7987 19.3274C12.6955 19.4742 12.479 19.7195 11.9322 19.999L18.3038 32.465C20.637 31.2725 22.6925 29.5978 24.2533 27.3766L12.7987 19.3274ZM11.9875 19.971C11.6436 20.143 11.1632 20.288 10.414 20.288V34.288C13.1208 34.288 15.7764 33.729 18.2485 32.493L11.9875 19.971ZM10.414 20.288C9.41808 20.288 8.83785 20.0805 8.46297 19.8663L1.51703 32.0217C4.27815 33.5995 7.31391 34.288 10.414 34.288V20.288ZM8.55524 19.92C8.21641 19.7194 7.90327 19.4301 7.60299 18.8295L-4.91899 25.0905C-3.49128 27.9459 -1.37241 30.3126 1.42475 31.968L8.55524 19.92ZM7.60299 18.8295C7.31627 18.2561 7.046 17.3377 7.046 15.864H-6.954C-6.954 19.0623 -6.36027 22.2079 -4.91899 25.0905L7.60299 18.8295ZM7.046 15.864V0.215999H-6.954V15.864H7.046ZM0.0459977 7.216H8.206V-6.784H0.0459977V7.216ZM1.206 0.215999V14.76H15.206V0.215999H1.206ZM1.206 14.76C1.206 17.7459 1.99854 21.059 4.4861 23.7181L14.7099 14.1539C14.9884 14.4516 15.134 14.7519 15.1948 14.9344C15.2466 15.0899 15.206 15.0641 15.206 14.76H1.206ZM4.4861 23.7181C6.94585 26.3475 10.1638 27.424 13.342 27.424V13.424C13.2973 13.424 13.491 13.418 13.8153 13.5469C14.1616 13.6845 14.4774 13.9053 14.7099 14.1539L4.4861 23.7181ZM13.342 27.424C16.5045 27.424 19.7582 26.3773 22.2459 23.7181L12.0221 14.1539C12.2697 13.8892 12.5945 13.6686 12.933 13.5357C13.2469 13.4125 13.42 13.424 13.342 13.424V27.424ZM22.2459 23.7181C24.7335 21.059 25.526 17.7459 25.526 14.76H11.526C11.526 15.0641 11.4854 15.0899 11.5372 14.9344C11.598 14.7519 11.7436 14.4516 12.0221 14.1539L22.2459 23.7181ZM25.526 14.76V0.215999H11.526V14.76H25.526ZM18.526 7.216H26.734V-6.784H18.526V7.216Z" fill="#A6D5F4" fill-opacity="0.21" mask="url(#path-1-outside-1_81_87)"/>
</svg>
