<svg width="283" height="37" viewBox="0 0 283 37" fill="none" xmlns="http://www.w3.org/2000/svg">
<mask id="path-1-outside-1_81_75" maskUnits="userSpaceOnUse" x="-5" y="-4.17432" width="293" height="45" fill="black">
<rect fill="white" x="-5" y="-4.17432" width="293" height="45"/>
<path d="M23.952 29.8737H11.376L9.36 35.8257H0.768L12.96 2.12968H22.464L34.656 35.8257H25.968L23.952 29.8737ZM21.84 23.5377L17.664 11.2017L13.536 23.5377H21.84ZM55.6946 12.8337C56.4626 11.5857 57.5666 10.5777 59.0066 9.80968C60.4466 9.04168 62.0946 8.65768 63.9506 8.65768C66.1586 8.65768 68.1586 9.21768 69.9506 10.3377C71.7426 11.4577 73.1506 13.0577 74.1746 15.1377C75.2306 17.2177 75.7586 19.6337 75.7586 22.3857C75.7586 25.1377 75.2306 27.5697 74.1746 29.6817C73.1506 31.7617 71.7426 33.3777 69.9506 34.5297C68.1586 35.6497 66.1586 36.2097 63.9506 36.2097C62.0626 36.2097 60.4146 35.8417 59.0066 35.1057C57.5986 34.3377 56.4946 33.3297 55.6946 32.0817V35.8257H47.4866V0.305683H55.6946V12.8337ZM67.4066 22.3857C67.4066 20.3377 66.8306 18.7377 65.6786 17.5857C64.5586 16.4017 63.1666 15.8097 61.5026 15.8097C59.8706 15.8097 58.4786 16.4017 57.3266 17.5857C56.2066 18.7697 55.6466 20.3857 55.6466 22.4337C55.6466 24.4817 56.2066 26.0977 57.3266 27.2817C58.4786 28.4657 59.8706 29.0577 61.5026 29.0577C63.1346 29.0577 64.5266 28.4657 65.6786 27.2817C66.8306 26.0657 67.4066 24.4337 67.4066 22.3857ZM101.377 36.2097C98.7527 36.2097 96.3847 35.6497 94.2727 34.5297C92.1927 33.4097 90.5447 31.8097 89.3287 29.7297C88.1447 27.6497 87.5527 25.2177 87.5527 22.4337C87.5527 19.6817 88.1607 17.2657 89.3767 15.1857C90.5927 13.0737 92.2567 11.4577 94.3687 10.3377C96.4807 9.21768 98.8487 8.65768 101.473 8.65768C104.097 8.65768 106.465 9.21768 108.577 10.3377C110.689 11.4577 112.353 13.0737 113.569 15.1857C114.785 17.2657 115.393 19.6817 115.393 22.4337C115.393 25.1857 114.769 27.6177 113.521 29.7297C112.305 31.8097 110.625 33.4097 108.481 34.5297C106.369 35.6497 104.001 36.2097 101.377 36.2097ZM101.377 29.1057C102.945 29.1057 104.273 28.5297 105.361 27.3777C106.481 26.2257 107.041 24.5777 107.041 22.4337C107.041 20.2897 106.497 18.6417 105.409 17.4897C104.353 16.3377 103.041 15.7617 101.473 15.7617C99.8727 15.7617 98.5447 16.3377 97.4887 17.4897C96.4327 18.6097 95.9047 20.2577 95.9047 22.4337C95.9047 24.5777 96.4167 26.2257 97.4407 27.3777C98.4967 28.5297 99.8087 29.1057 101.377 29.1057ZM155.315 9.04168V35.8257H147.107V32.1777C146.275 33.3617 145.139 34.3217 143.699 35.0577C142.291 35.7617 140.723 36.1137 138.995 36.1137C136.947 36.1137 135.139 35.6657 133.571 34.7697C132.003 33.8417 130.787 32.5137 129.923 30.7857C129.059 29.0577 128.627 27.0257 128.627 24.6897V9.04168H136.787V23.5857C136.787 25.3777 137.251 26.7697 138.179 27.7617C139.107 28.7537 140.355 29.2497 141.923 29.2497C143.523 29.2497 144.787 28.7537 145.715 27.7617C146.643 26.7697 147.107 25.3777 147.107 23.5857V9.04168H155.315ZM185.259 28.8657V35.8257H181.083C178.107 35.8257 175.787 35.1057 174.123 33.6657C172.459 32.1937 171.627 29.8097 171.627 26.5137V15.8577H168.363V9.04168H171.627V2.51368H179.835V9.04168H185.211V15.8577H179.835V26.6097C179.835 27.4097 180.027 27.9857 180.411 28.3377C180.795 28.6897 181.435 28.8657 182.331 28.8657H185.259ZM226.307 2.12968V22.2897C226.307 24.3057 226.803 25.8577 227.795 26.9457C228.787 28.0337 230.243 28.5777 232.163 28.5777C234.083 28.5777 235.555 28.0337 236.579 26.9457C237.603 25.8577 238.115 24.3057 238.115 22.2897V2.12968H246.323V22.2417C246.323 25.2497 245.683 27.7937 244.403 29.8737C243.123 31.9537 241.395 33.5217 239.219 34.5777C237.075 35.6337 234.675 36.1617 232.019 36.1617C229.363 36.1617 226.979 35.6497 224.867 34.6257C222.787 33.5697 221.139 32.0017 219.923 29.9217C218.707 27.8097 218.099 25.2497 218.099 22.2417V2.12968H226.307ZM272.103 36.2097C269.767 36.2097 267.687 35.8097 265.863 35.0097C264.039 34.2097 262.599 33.1217 261.543 31.7457C260.487 30.3377 259.895 28.7697 259.767 27.0417H267.879C267.975 27.9697 268.407 28.7217 269.175 29.2977C269.943 29.8737 270.887 30.1617 272.007 30.1617C273.031 30.1617 273.815 29.9697 274.359 29.5857C274.935 29.1697 275.223 28.6417 275.223 28.0017C275.223 27.2337 274.823 26.6737 274.023 26.3217C273.223 25.9377 271.927 25.5217 270.135 25.0737C268.215 24.6257 266.615 24.1617 265.335 23.6817C264.055 23.1697 262.951 22.3857 262.023 21.3297C261.095 20.2417 260.631 18.7857 260.631 16.9617C260.631 15.4257 261.047 14.0337 261.879 12.7857C262.743 11.5057 263.991 10.4977 265.623 9.76168C267.287 9.02568 269.255 8.65768 271.527 8.65768C274.887 8.65768 277.527 9.48968 279.447 11.1537C281.399 12.8177 282.519 15.0257 282.807 17.7777H275.223C275.095 16.8497 274.679 16.1137 273.975 15.5697C273.303 15.0257 272.407 14.7537 271.287 14.7537C270.327 14.7537 269.591 14.9457 269.079 15.3297C268.567 15.6817 268.311 16.1777 268.311 16.8177C268.311 17.5857 268.711 18.1617 269.511 18.5457C270.343 18.9297 271.623 19.3137 273.351 19.6977C275.335 20.2097 276.951 20.7217 278.199 21.2337C279.447 21.7137 280.535 22.5137 281.463 23.6337C282.423 24.7217 282.919 26.1937 282.951 28.0497C282.951 29.6177 282.503 31.0257 281.607 32.2737C280.743 33.4897 279.479 34.4497 277.815 35.1537C276.183 35.8577 274.279 36.2097 272.103 36.2097Z"/>
</mask>
<path d="M23.952 29.8737H11.376L9.36 35.8257H0.768L12.96 2.12968H22.464L34.656 35.8257H25.968L23.952 29.8737ZM21.84 23.5377L17.664 11.2017L13.536 23.5377H21.84ZM55.6946 12.8337C56.4626 11.5857 57.5666 10.5777 59.0066 9.80968C60.4466 9.04168 62.0946 8.65768 63.9506 8.65768C66.1586 8.65768 68.1586 9.21768 69.9506 10.3377C71.7426 11.4577 73.1506 13.0577 74.1746 15.1377C75.2306 17.2177 75.7586 19.6337 75.7586 22.3857C75.7586 25.1377 75.2306 27.5697 74.1746 29.6817C73.1506 31.7617 71.7426 33.3777 69.9506 34.5297C68.1586 35.6497 66.1586 36.2097 63.9506 36.2097C62.0626 36.2097 60.4146 35.8417 59.0066 35.1057C57.5986 34.3377 56.4946 33.3297 55.6946 32.0817V35.8257H47.4866V0.305683H55.6946V12.8337ZM67.4066 22.3857C67.4066 20.3377 66.8306 18.7377 65.6786 17.5857C64.5586 16.4017 63.1666 15.8097 61.5026 15.8097C59.8706 15.8097 58.4786 16.4017 57.3266 17.5857C56.2066 18.7697 55.6466 20.3857 55.6466 22.4337C55.6466 24.4817 56.2066 26.0977 57.3266 27.2817C58.4786 28.4657 59.8706 29.0577 61.5026 29.0577C63.1346 29.0577 64.5266 28.4657 65.6786 27.2817C66.8306 26.0657 67.4066 24.4337 67.4066 22.3857ZM101.377 36.2097C98.7527 36.2097 96.3847 35.6497 94.2727 34.5297C92.1927 33.4097 90.5447 31.8097 89.3287 29.7297C88.1447 27.6497 87.5527 25.2177 87.5527 22.4337C87.5527 19.6817 88.1607 17.2657 89.3767 15.1857C90.5927 13.0737 92.2567 11.4577 94.3687 10.3377C96.4807 9.21768 98.8487 8.65768 101.473 8.65768C104.097 8.65768 106.465 9.21768 108.577 10.3377C110.689 11.4577 112.353 13.0737 113.569 15.1857C114.785 17.2657 115.393 19.6817 115.393 22.4337C115.393 25.1857 114.769 27.6177 113.521 29.7297C112.305 31.8097 110.625 33.4097 108.481 34.5297C106.369 35.6497 104.001 36.2097 101.377 36.2097ZM101.377 29.1057C102.945 29.1057 104.273 28.5297 105.361 27.3777C106.481 26.2257 107.041 24.5777 107.041 22.4337C107.041 20.2897 106.497 18.6417 105.409 17.4897C104.353 16.3377 103.041 15.7617 101.473 15.7617C99.8727 15.7617 98.5447 16.3377 97.4887 17.4897C96.4327 18.6097 95.9047 20.2577 95.9047 22.4337C95.9047 24.5777 96.4167 26.2257 97.4407 27.3777C98.4967 28.5297 99.8087 29.1057 101.377 29.1057ZM155.315 9.04168V35.8257H147.107V32.1777C146.275 33.3617 145.139 34.3217 143.699 35.0577C142.291 35.7617 140.723 36.1137 138.995 36.1137C136.947 36.1137 135.139 35.6657 133.571 34.7697C132.003 33.8417 130.787 32.5137 129.923 30.7857C129.059 29.0577 128.627 27.0257 128.627 24.6897V9.04168H136.787V23.5857C136.787 25.3777 137.251 26.7697 138.179 27.7617C139.107 28.7537 140.355 29.2497 141.923 29.2497C143.523 29.2497 144.787 28.7537 145.715 27.7617C146.643 26.7697 147.107 25.3777 147.107 23.5857V9.04168H155.315ZM185.259 28.8657V35.8257H181.083C178.107 35.8257 175.787 35.1057 174.123 33.6657C172.459 32.1937 171.627 29.8097 171.627 26.5137V15.8577H168.363V9.04168H171.627V2.51368H179.835V9.04168H185.211V15.8577H179.835V26.6097C179.835 27.4097 180.027 27.9857 180.411 28.3377C180.795 28.6897 181.435 28.8657 182.331 28.8657H185.259ZM226.307 2.12968V22.2897C226.307 24.3057 226.803 25.8577 227.795 26.9457C228.787 28.0337 230.243 28.5777 232.163 28.5777C234.083 28.5777 235.555 28.0337 236.579 26.9457C237.603 25.8577 238.115 24.3057 238.115 22.2897V2.12968H246.323V22.2417C246.323 25.2497 245.683 27.7937 244.403 29.8737C243.123 31.9537 241.395 33.5217 239.219 34.5777C237.075 35.6337 234.675 36.1617 232.019 36.1617C229.363 36.1617 226.979 35.6497 224.867 34.6257C222.787 33.5697 221.139 32.0017 219.923 29.9217C218.707 27.8097 218.099 25.2497 218.099 22.2417V2.12968H226.307ZM272.103 36.2097C269.767 36.2097 267.687 35.8097 265.863 35.0097C264.039 34.2097 262.599 33.1217 261.543 31.7457C260.487 30.3377 259.895 28.7697 259.767 27.0417H267.879C267.975 27.9697 268.407 28.7217 269.175 29.2977C269.943 29.8737 270.887 30.1617 272.007 30.1617C273.031 30.1617 273.815 29.9697 274.359 29.5857C274.935 29.1697 275.223 28.6417 275.223 28.0017C275.223 27.2337 274.823 26.6737 274.023 26.3217C273.223 25.9377 271.927 25.5217 270.135 25.0737C268.215 24.6257 266.615 24.1617 265.335 23.6817C264.055 23.1697 262.951 22.3857 262.023 21.3297C261.095 20.2417 260.631 18.7857 260.631 16.9617C260.631 15.4257 261.047 14.0337 261.879 12.7857C262.743 11.5057 263.991 10.4977 265.623 9.76168C267.287 9.02568 269.255 8.65768 271.527 8.65768C274.887 8.65768 277.527 9.48968 279.447 11.1537C281.399 12.8177 282.519 15.0257 282.807 17.7777H275.223C275.095 16.8497 274.679 16.1137 273.975 15.5697C273.303 15.0257 272.407 14.7537 271.287 14.7537C270.327 14.7537 269.591 14.9457 269.079 15.3297C268.567 15.6817 268.311 16.1777 268.311 16.8177C268.311 17.5857 268.711 18.1617 269.511 18.5457C270.343 18.9297 271.623 19.3137 273.351 19.6977C275.335 20.2097 276.951 20.7217 278.199 21.2337C279.447 21.7137 280.535 22.5137 281.463 23.6337C282.423 24.7217 282.919 26.1937 282.951 28.0497C282.951 29.6177 282.503 31.0257 281.607 32.2737C280.743 33.4897 279.479 34.4497 277.815 35.1537C276.183 35.8577 274.279 36.2097 272.103 36.2097Z" fill="#457ABF"/>
<path d="M23.952 29.8737L27.7406 28.5905L26.8204 25.8737H23.952V29.8737ZM11.376 29.8737V25.8737H8.50762L7.58742 28.5905L11.376 29.8737ZM9.36 35.8257V39.8257H12.2284L13.1486 37.1089L9.36 35.8257ZM0.768 35.8257L-2.99336 34.4647L-4.93307 39.8257H0.768V35.8257ZM12.96 2.12968V-1.87032H10.1535L9.19864 0.768736L12.96 2.12968ZM22.464 2.12968L26.2254 0.768734L25.2705 -1.87032H22.464V2.12968ZM34.656 35.8257V39.8257H40.3571L38.4174 34.4647L34.656 35.8257ZM25.968 35.8257L22.1794 37.1089L23.0996 39.8257H25.968V35.8257ZM21.84 23.5377V27.5377H27.4171L25.6288 22.2551L21.84 23.5377ZM17.664 11.2017L21.4528 9.9191L17.6421 -1.33782L13.8707 9.93234L17.664 11.2017ZM13.536 23.5377L9.74275 22.2683L7.97946 27.5377H13.536V23.5377ZM23.952 25.8737H11.376V33.8737H23.952V25.8737ZM7.58742 28.5905L5.57142 34.5425L13.1486 37.1089L15.1646 31.1569L7.58742 28.5905ZM9.36 31.8257H0.768V39.8257H9.36V31.8257ZM4.52936 37.1866L16.7214 3.49063L9.19864 0.768736L-2.99336 34.4647L4.52936 37.1866ZM12.96 6.12968H22.464V-1.87032H12.96V6.12968ZM18.7026 3.49063L30.8946 37.1866L38.4174 34.4647L26.2254 0.768734L18.7026 3.49063ZM34.656 31.8257H25.968V39.8257H34.656V31.8257ZM29.7566 34.5425L27.7406 28.5905L20.1634 31.1569L22.1794 37.1089L29.7566 34.5425ZM25.6288 22.2551L21.4528 9.9191L13.8752 12.4843L18.0512 24.8203L25.6288 22.2551ZM13.8707 9.93234L9.74275 22.2683L17.3293 24.807L21.4573 12.471L13.8707 9.93234ZM13.536 27.5377H21.84V19.5377H13.536V27.5377ZM55.6946 12.8337H51.6946V26.9658L59.1013 14.9301L55.6946 12.8337ZM59.0066 9.80968L57.1243 6.28027H57.1243L59.0066 9.80968ZM69.9506 10.3377L67.8306 13.7297L69.9506 10.3377ZM74.1746 15.1377L70.5859 16.9044L70.5968 16.9265L70.608 16.9485L74.1746 15.1377ZM74.1746 29.6817L70.5969 27.8928L70.5914 27.9039L70.5859 27.9149L74.1746 29.6817ZM69.9506 34.5297L72.0706 37.9217L72.0922 37.9082L72.1137 37.8944L69.9506 34.5297ZM59.0066 35.1057L57.0912 38.6173L57.1223 38.6342L57.1536 38.6506L59.0066 35.1057ZM55.6946 32.0817L59.0621 29.923L51.6946 18.4297V32.0817H55.6946ZM55.6946 35.8257V39.8257H59.6946V35.8257H55.6946ZM47.4866 35.8257H43.4866V39.8257H47.4866V35.8257ZM47.4866 0.305683V-3.69432H43.4866V0.305683H47.4866ZM55.6946 0.305683H59.6946V-3.69432H55.6946V0.305683ZM65.6786 17.5857L62.7728 20.3345L62.8109 20.3748L62.8502 20.4141L65.6786 17.5857ZM57.3266 17.5857L54.4597 14.7963L54.4401 14.8164L54.4208 14.8369L57.3266 17.5857ZM57.3266 27.2817L54.4208 30.0305L54.4401 30.0509L54.4597 30.0711L57.3266 27.2817ZM65.6786 27.2817L68.5455 30.0711L68.5641 30.052L68.5824 30.0327L65.6786 27.2817ZM59.1013 14.9301C59.4562 14.3533 60.0022 13.812 60.889 13.3391L57.1243 6.28027C55.131 7.34334 53.469 8.81811 52.288 10.7373L59.1013 14.9301ZM60.889 13.3391C61.6743 12.9203 62.6601 12.6577 63.9506 12.6577V4.65768C61.5291 4.65768 59.219 5.1631 57.1243 6.28027L60.889 13.3391ZM63.9506 12.6577C65.4442 12.6577 66.7036 13.0253 67.8306 13.7297L72.0706 6.94569C69.6136 5.41006 66.873 4.65768 63.9506 4.65768V12.6577ZM67.8306 13.7297C68.9308 14.4173 69.8577 15.4252 70.5859 16.9044L77.7633 13.3709C76.4435 10.6902 74.5544 8.49807 72.0706 6.94569L67.8306 13.7297ZM70.608 16.9485C71.3321 18.3749 71.7586 20.1503 71.7586 22.3857H79.7586C79.7586 19.1171 79.1291 16.0605 77.7413 13.3269L70.608 16.9485ZM71.7586 22.3857C71.7586 24.6193 71.3327 26.4213 70.5969 27.8928L77.7523 31.4705C79.1286 28.7181 79.7586 25.6561 79.7586 22.3857H71.7586ZM70.5859 27.9149C69.8538 29.4022 68.9145 30.4406 67.7876 31.165L72.1137 37.8944C74.5708 36.3148 76.4475 34.1212 77.7633 31.4484L70.5859 27.9149ZM67.8306 31.1377C66.7036 31.8421 65.4442 32.2097 63.9506 32.2097V40.2097C66.873 40.2097 69.6136 39.4573 72.0706 37.9217L67.8306 31.1377ZM63.9506 32.2097C62.5869 32.2097 61.5973 31.9464 60.8596 31.5608L57.1536 38.6506C59.232 39.737 61.5383 40.2097 63.9506 40.2097V32.2097ZM60.922 31.5941C60.0544 31.1208 59.4701 30.5594 59.0621 29.923L52.3271 34.2403C53.5191 36.0999 55.1429 37.5545 57.0912 38.6173L60.922 31.5941ZM51.6946 32.0817V35.8257H59.6946V32.0817H51.6946ZM55.6946 31.8257H47.4866V39.8257H55.6946V31.8257ZM51.4866 35.8257V0.305683H43.4866V35.8257H51.4866ZM47.4866 4.30568H55.6946V-3.69432H47.4866V4.30568ZM51.6946 0.305683V12.8337H59.6946V0.305683H51.6946ZM71.4066 22.3857C71.4066 19.5644 70.5906 16.8408 68.507 14.7573L62.8502 20.4141C63.0706 20.6345 63.4066 21.111 63.4066 22.3857H71.4066ZM68.5845 14.8369C66.6912 12.8354 64.2399 11.8097 61.5026 11.8097V19.8097C62.0933 19.8097 62.426 19.9679 62.7728 20.3345L68.5845 14.8369ZM61.5026 11.8097C58.7759 11.8097 56.3544 12.849 54.4597 14.7963L60.1935 20.3751C60.6029 19.9544 60.9653 19.8097 61.5026 19.8097V11.8097ZM54.4208 14.8369C52.4299 16.9415 51.6466 19.6375 51.6466 22.4337H59.6466C59.6466 21.1338 59.9833 20.5979 60.2325 20.3345L54.4208 14.8369ZM51.6466 22.4337C51.6466 25.2298 52.4299 27.9259 54.4208 30.0305L60.2325 24.5329C59.9833 24.2695 59.6466 23.7335 59.6466 22.4337H51.6466ZM54.4597 30.0711C56.3544 32.0184 58.7759 33.0577 61.5026 33.0577V25.0577C60.9653 25.0577 60.6029 24.913 60.1935 24.4923L54.4597 30.0711ZM61.5026 33.0577C64.2293 33.0577 66.6509 32.0184 68.5455 30.0711L62.8117 24.4923C62.4024 24.913 62.04 25.0577 61.5026 25.0577V33.0577ZM68.5824 30.0327C70.5879 27.9158 71.4066 25.2167 71.4066 22.3857H63.4066C63.4066 23.6507 63.0733 24.2156 62.7748 24.5307L68.5824 30.0327ZM94.2728 34.5297L92.3764 38.0516L92.3875 38.0576L92.3987 38.0635L94.2728 34.5297ZM89.3288 29.7297L85.8525 31.7085L85.8639 31.7285L85.8756 31.7485L89.3288 29.7297ZM89.3767 15.1857L92.8299 17.2045L92.8366 17.193L92.8432 17.1815L89.3767 15.1857ZM94.3688 10.3377L96.2428 13.8715L94.3688 10.3377ZM108.577 10.3377L106.703 13.8715L108.577 10.3377ZM113.569 15.1857L110.102 17.1815L110.109 17.193L110.116 17.2045L113.569 15.1857ZM113.521 29.7297L110.077 27.6948L110.072 27.7028L110.068 27.7109L113.521 29.7297ZM108.481 34.5297L106.629 30.9843L106.618 30.99L106.607 30.9958L108.481 34.5297ZM105.361 27.3777L102.493 24.5894L102.473 24.6101L102.453 24.6312L105.361 27.3777ZM105.409 17.4897L102.46 20.1926L102.48 20.2145L102.501 20.2362L105.409 17.4897ZM97.4887 17.4897L100.399 20.2337L100.418 20.2133L100.437 20.1926L97.4887 17.4897ZM97.4408 27.3777L94.4511 30.0351L94.4715 30.058L94.4921 30.0806L97.4408 27.3777ZM101.377 32.2097C99.341 32.2097 97.6266 31.7806 96.1468 30.9958L92.3987 38.0635C95.1429 39.5187 98.1645 40.2097 101.377 40.2097V32.2097ZM96.1692 31.0078C94.7498 30.2435 93.6347 29.1696 92.7819 27.7109L85.8756 31.7485C87.4548 34.4497 89.6357 36.5759 92.3764 38.0516L96.1692 31.0078ZM92.805 27.7509C92.0167 26.366 91.5527 24.6381 91.5527 22.4337H83.5527C83.5527 25.7972 84.2728 28.9334 85.8525 31.7085L92.805 27.7509ZM91.5527 22.4337C91.5527 20.2886 92.0205 18.589 92.8299 17.2045L85.9236 13.1669C84.301 15.9423 83.5527 19.0748 83.5527 22.4337H91.5527ZM92.8432 17.1815C93.6914 15.7084 94.8092 14.6317 96.2428 13.8715L92.4947 6.80383C89.7043 8.28363 87.4941 10.4389 85.9103 13.1898L92.8432 17.1815ZM96.2428 13.8715C97.7226 13.0868 99.437 12.6577 101.473 12.6577V4.65768C98.2605 4.65768 95.2389 5.34861 92.4947 6.80383L96.2428 13.8715ZM101.473 12.6577C103.508 12.6577 105.223 13.0868 106.703 13.8715L110.451 6.80383C107.707 5.34861 104.685 4.65768 101.473 4.65768V12.6577ZM106.703 13.8715C108.136 14.6317 109.254 15.7084 110.102 17.1815L117.035 13.1898C115.451 10.4389 113.241 8.28363 110.451 6.80383L106.703 13.8715ZM110.116 17.2045C110.925 18.589 111.393 20.2886 111.393 22.4337H119.393C119.393 19.0748 118.645 15.9423 117.022 13.1669L110.116 17.2045ZM111.393 22.4337C111.393 24.5591 110.918 26.2716 110.077 27.6948L116.964 31.7646C118.62 28.9637 119.393 25.8123 119.393 22.4337H111.393ZM110.068 27.7109C109.233 29.1389 108.109 30.2111 106.629 30.9843L110.333 38.0751C113.141 36.6083 115.377 34.4805 116.974 31.7485L110.068 27.7109ZM106.607 30.9958C105.127 31.7806 103.412 32.2097 101.377 32.2097V40.2097C104.589 40.2097 107.611 39.5188 110.355 38.0635L106.607 30.9958ZM101.377 33.1057C104.058 33.1057 106.434 32.0667 108.269 30.1242L102.453 24.6312C102.111 24.9927 101.831 25.1057 101.377 25.1057V33.1057ZM108.229 30.166C110.291 28.0449 111.041 25.2609 111.041 22.4337H103.041C103.041 23.8944 102.671 24.4065 102.493 24.5894L108.229 30.166ZM111.041 22.4337C111.041 19.6357 110.323 16.8675 108.317 14.7432L102.501 20.2362C102.67 20.4158 103.041 20.9436 103.041 22.4337H111.041ZM108.357 14.7868C106.541 12.8051 104.158 11.7617 101.473 11.7617V19.7617C101.924 19.7617 102.165 19.8703 102.46 20.1926L108.357 14.7868ZM101.473 11.7617C98.7819 11.7617 96.374 12.7862 94.5401 14.7868L100.437 20.1926C100.715 19.8892 100.964 19.7617 101.473 19.7617V11.7617ZM94.5784 14.7456C92.5782 16.8671 91.9047 19.6604 91.9047 22.4337H99.9047C99.9047 20.8549 100.287 20.3523 100.399 20.2337L94.5784 14.7456ZM91.9047 22.4337C91.9047 25.1743 92.5602 27.9079 94.4511 30.0351L100.43 24.7202C100.273 24.5435 99.9047 23.981 99.9047 22.4337H91.9047ZM94.4921 30.0806C96.3087 32.0623 98.6918 33.1057 101.377 33.1057V25.1057C100.926 25.1057 100.685 24.9971 100.389 24.6748L94.4921 30.0806ZM155.315 9.04168H159.315V5.04168H155.315V9.04168ZM155.315 35.8257V39.8257H159.315V35.8257H155.315ZM147.107 35.8257H143.107V39.8257H147.107V35.8257ZM147.107 32.1777H151.107V19.5282L143.834 29.8779L147.107 32.1777ZM143.699 35.0577L145.488 38.6354L145.504 38.6275L145.52 38.6194L143.699 35.0577ZM133.571 34.7697L131.534 38.212L131.56 38.2275L131.587 38.2427L133.571 34.7697ZM129.923 30.7857L126.346 32.5745L129.923 30.7857ZM128.627 9.04168V5.04168H124.627V9.04168H128.627ZM136.787 9.04168H140.787V5.04168H136.787V9.04168ZM138.179 27.7617L135.258 30.4943L138.179 27.7617ZM147.107 9.04168V5.04168H143.107V9.04168H147.107ZM151.315 9.04168V35.8257H159.315V9.04168H151.315ZM155.315 31.8257H147.107V39.8257H155.315V31.8257ZM151.107 35.8257V32.1777H143.107V35.8257H151.107ZM143.834 29.8779C143.419 30.4692 142.808 31.0208 141.879 31.4959L145.52 38.6194C147.47 37.6225 149.132 36.2541 150.38 34.4775L143.834 29.8779ZM141.91 31.48C141.11 31.8799 140.164 32.1137 138.995 32.1137V40.1137C141.283 40.1137 143.472 39.6434 145.488 38.6354L141.91 31.48ZM138.995 32.1137C137.548 32.1137 136.442 31.8031 135.556 31.2967L131.587 38.2427C133.836 39.5282 136.346 40.1137 138.995 40.1137V32.1137ZM135.609 31.3274C134.743 30.8151 134.043 30.0806 133.501 28.9968L126.346 32.5745C127.532 34.9468 129.264 36.8683 131.534 38.212L135.609 31.3274ZM133.501 28.9968C132.967 27.9286 132.627 26.5329 132.627 24.6897H124.627C124.627 27.5184 125.152 30.1868 126.346 32.5745L133.501 28.9968ZM132.627 24.6897V9.04168H124.627V24.6897H132.627ZM128.627 13.0417H136.787V5.04168H128.627V13.0417ZM132.787 9.04168V23.5857H140.787V9.04168H132.787ZM132.787 23.5857C132.787 26.0599 133.439 28.5497 135.258 30.4943L141.1 25.0291C141.064 24.9897 140.787 24.6955 140.787 23.5857H132.787ZM135.258 30.4943C137.061 32.422 139.435 33.2497 141.923 33.2497V25.2497C141.275 25.2497 141.153 25.0854 141.1 25.0291L135.258 30.4943ZM141.923 33.2497C144.416 33.2497 146.817 32.439 148.636 30.4943L142.794 25.0291C142.757 25.0684 142.63 25.2497 141.923 25.2497V33.2497ZM148.636 30.4943C150.456 28.5497 151.107 26.0599 151.107 23.5857H143.107C143.107 24.6955 142.831 24.9897 142.794 25.0291L148.636 30.4943ZM151.107 23.5857V9.04168H143.107V23.5857H151.107ZM147.107 13.0417H155.315V5.04168H147.107V13.0417ZM185.259 28.8657H189.259V24.8657H185.259V28.8657ZM185.259 35.8257V39.8257H189.259V35.8257H185.259ZM174.123 33.6657L171.473 36.6617L171.489 36.6761L171.505 36.6904L174.123 33.6657ZM171.627 15.8577H175.627V11.8577H171.627V15.8577ZM168.363 15.8577H164.363V19.8577H168.363V15.8577ZM168.363 9.04168V5.04168H164.363V9.04168H168.363ZM171.627 9.04168V13.0417H175.627V9.04168H171.627ZM171.627 2.51368V-1.48632H167.627V2.51368H171.627ZM179.835 2.51368H183.835V-1.48632H179.835V2.51368ZM179.835 9.04168H175.835V13.0417H179.835V9.04168ZM185.211 9.04168H189.211V5.04168H185.211V9.04168ZM185.211 15.8577V19.8577H189.211V15.8577H185.211ZM179.835 15.8577V11.8577H175.835V15.8577H179.835ZM180.411 28.3377L177.708 31.2863V31.2863L180.411 28.3377ZM181.259 28.8657V35.8257H189.259V28.8657H181.259ZM185.259 31.8257H181.083V39.8257H185.259V31.8257ZM181.083 31.8257C178.727 31.8257 177.456 31.2599 176.741 30.641L171.505 36.6904C174.118 38.9515 177.487 39.8257 181.083 39.8257V31.8257ZM176.773 30.6697C176.313 30.2627 175.627 29.2246 175.627 26.5137H167.627C167.627 30.3947 168.605 34.1247 171.473 36.6617L176.773 30.6697ZM175.627 26.5137V15.8577H167.627V26.5137H175.627ZM171.627 11.8577H168.363V19.8577H171.627V11.8577ZM172.363 15.8577V9.04168H164.363V15.8577H172.363ZM168.363 13.0417H171.627V5.04168H168.363V13.0417ZM175.627 9.04168V2.51368H167.627V9.04168H175.627ZM171.627 6.51368H179.835V-1.48632H171.627V6.51368ZM175.835 2.51368V9.04168H183.835V2.51368H175.835ZM179.835 13.0417H185.211V5.04168H179.835V13.0417ZM181.211 9.04168V15.8577H189.211V9.04168H181.211ZM185.211 11.8577H179.835V19.8577H185.211V11.8577ZM175.835 15.8577V26.6097H183.835V15.8577H175.835ZM175.835 26.6097C175.835 27.9349 176.142 29.8507 177.708 31.2863L183.114 25.3891C183.5 25.7433 183.691 26.1273 183.774 26.3768C183.849 26.6028 183.835 26.7081 183.835 26.6097H175.835ZM177.708 31.2863C179.205 32.6583 181.098 32.8657 182.331 32.8657V24.8657C182.125 24.8657 182.118 24.8433 182.24 24.8769C182.368 24.9122 182.728 25.0351 183.114 25.3891L177.708 31.2863ZM182.331 32.8657H185.259V24.8657H182.331V32.8657ZM226.307 2.12968H230.307V-1.87032H226.307V2.12968ZM227.795 26.9457L224.839 29.6407V29.6407L227.795 26.9457ZM236.579 26.9457L239.492 29.6871L236.579 26.9457ZM238.115 2.12968V-1.87032H234.115V2.12968H238.115ZM246.323 2.12968H250.323V-1.87032H246.323V2.12968ZM244.403 29.8737L247.81 31.9701V31.9701L244.403 29.8737ZM239.219 34.5777L237.472 30.9791L237.462 30.9842L237.451 30.9893L239.219 34.5777ZM224.867 34.6257L223.056 38.1924L223.089 38.2089L223.122 38.2249L224.867 34.6257ZM219.923 29.9217L216.456 31.9175L216.463 31.929L216.47 31.9405L219.923 29.9217ZM218.099 2.12968V-1.87032H214.099V2.12968H218.099ZM222.307 2.12968V22.2897H230.307V2.12968H222.307ZM222.307 22.2897C222.307 24.9312 222.961 27.581 224.839 29.6407L230.751 24.2507C230.645 24.1344 230.307 23.6802 230.307 22.2897H222.307ZM224.839 29.6407C226.802 31.794 229.479 32.5777 232.163 32.5777V24.5777C231.006 24.5777 230.771 24.2733 230.751 24.2507L224.839 29.6407ZM232.163 32.5777C234.854 32.5777 237.511 31.7918 239.492 29.6871L233.666 24.2042C233.599 24.2756 233.312 24.5777 232.163 24.5777V32.5777ZM239.492 29.6871C241.428 27.6295 242.115 24.9618 242.115 22.2897H234.115C234.115 23.6496 233.777 24.0859 233.666 24.2042L239.492 29.6871ZM242.115 22.2897V2.12968H234.115V22.2897H242.115ZM238.115 6.12968H246.323V-1.87032H238.115V6.12968ZM242.323 2.12968V22.2417H250.323V2.12968H242.323ZM242.323 22.2417C242.323 24.6807 241.807 26.4592 240.996 27.7773L247.81 31.9701C249.558 29.1282 250.323 25.8187 250.323 22.2417H242.323ZM240.996 27.7773C240.111 29.2154 238.956 30.259 237.472 30.9791L240.965 38.1763C243.833 36.7844 246.135 34.6919 247.81 31.9701L240.996 27.7773ZM237.451 30.9893C235.916 31.7456 234.131 32.1617 232.019 32.1617V40.1617C235.219 40.1617 238.234 39.5218 240.986 38.166L237.451 30.9893ZM232.019 32.1617C229.887 32.1617 228.112 31.7539 226.612 31.0264L223.122 38.2249C225.845 39.5455 228.838 40.1617 232.019 40.1617V32.1617ZM226.678 31.059C225.306 30.3625 224.218 29.343 223.376 27.9029L216.47 31.9405C218.06 34.6604 220.268 36.7769 223.056 38.1924L226.678 31.059ZM223.389 27.9258C222.596 26.5479 222.099 24.7119 222.099 22.2417H214.099C214.099 25.7874 214.818 29.0714 216.456 31.9175L223.389 27.9258ZM222.099 22.2417V2.12968H214.099V22.2417H222.099ZM218.099 6.12968H226.307V-1.87032H218.099V6.12968ZM265.863 35.0097L267.469 31.3465L265.863 35.0097ZM261.543 31.7457L258.343 34.1457L258.356 34.1634L258.369 34.181L261.543 31.7457ZM259.767 27.0417V23.0417H255.459L255.778 27.3372L259.767 27.0417ZM267.879 27.0417L271.857 26.6301L271.486 23.0417H267.879V27.0417ZM269.175 29.2977L271.575 26.0977L269.175 29.2977ZM274.359 29.5857L276.665 32.8536L276.683 32.8411L276.701 32.8284L274.359 29.5857ZM274.023 26.3217L272.292 29.9278L272.351 29.9563L272.412 29.9829L274.023 26.3217ZM270.135 25.0737L271.105 21.1931L271.074 21.1855L271.044 21.1783L270.135 25.0737ZM265.335 23.6817L263.849 27.3956L263.889 27.4117L263.93 27.427L265.335 23.6817ZM262.023 21.3297L258.979 23.9255L258.998 23.9479L259.018 23.9701L262.023 21.3297ZM261.879 12.7857L258.563 10.5478L258.557 10.5573L258.55 10.5669L261.879 12.7857ZM265.623 9.76168L264.005 6.10354L263.991 6.10939L263.978 6.11533L265.623 9.76168ZM279.447 11.1537L276.827 14.1764L276.839 14.1871L276.852 14.1977L279.447 11.1537ZM282.807 17.7777V21.7777H287.247L286.785 17.3614L282.807 17.7777ZM275.223 17.7777L271.26 18.3242L271.736 21.7777H275.223V17.7777ZM273.975 15.5697L271.458 18.6787L271.493 18.7071L271.529 18.7348L273.975 15.5697ZM269.079 15.3297L271.345 18.6259L271.413 18.5791L271.479 18.5297L269.079 15.3297ZM269.511 18.5457L267.78 22.1518L267.807 22.1649L267.834 22.1775L269.511 18.5457ZM273.351 19.6977L274.35 15.8246L274.285 15.8076L274.218 15.7929L273.351 19.6977ZM278.199 21.2337L276.68 24.9344L276.721 24.9512L276.763 24.9671L278.199 21.2337ZM281.463 23.6337L278.383 26.1858L278.422 26.2336L278.463 26.2802L281.463 23.6337ZM282.951 28.0497H286.951V28.0152L286.95 27.9807L282.951 28.0497ZM281.607 32.2737L278.357 29.9409L278.352 29.9488L278.346 29.9569L281.607 32.2737ZM277.815 35.1537L276.256 31.4698L276.243 31.4753L276.23 31.4808L277.815 35.1537ZM272.103 32.2097C270.225 32.2097 268.707 31.8893 267.469 31.3465L264.256 38.6728C266.666 39.73 269.308 40.2097 272.103 40.2097V32.2097ZM267.469 31.3465C266.17 30.7767 265.304 30.0769 264.716 29.3104L258.369 34.181C259.893 36.1665 261.907 37.6427 264.256 38.6728L267.469 31.3465ZM264.743 29.3457C264.138 28.5392 263.826 27.6991 263.756 26.7462L255.778 27.3372C255.963 29.8403 256.836 32.1362 258.343 34.1457L264.743 29.3457ZM259.767 31.0417H267.879V23.0417H259.767V31.0417ZM263.9 27.4533C264.114 29.526 265.144 31.2748 266.775 32.4977L271.575 26.0977C271.573 26.0967 271.595 26.1131 271.629 26.1509C271.664 26.1894 271.705 26.2425 271.743 26.3092C271.827 26.4546 271.852 26.58 271.857 26.6301L263.9 27.4533ZM266.775 32.4977C268.346 33.6761 270.171 34.1617 272.007 34.1617V26.1617C271.79 26.1617 271.672 26.134 271.626 26.1198C271.585 26.1074 271.577 26.0992 271.575 26.0977L266.775 32.4977ZM272.007 34.1617C273.441 34.1617 275.172 33.9076 276.665 32.8536L272.052 26.3178C272.266 26.1669 272.417 26.131 272.411 26.1325C272.409 26.1329 272.377 26.1407 272.307 26.148C272.238 26.1554 272.139 26.1617 272.007 26.1617V34.1617ZM276.701 32.8284C278.185 31.7564 279.223 30.0818 279.223 28.0017H271.223C271.223 27.6967 271.298 27.3235 271.495 26.9623C271.684 26.6154 271.908 26.4217 272.017 26.343L276.701 32.8284ZM279.223 28.0017C279.223 26.885 278.918 25.717 278.178 24.6807C277.461 23.6774 276.517 23.049 275.634 22.6604L272.412 29.9829C272.329 29.9464 271.984 29.7739 271.668 29.3306C271.328 28.8544 271.223 28.3503 271.223 28.0017H279.223ZM275.754 22.7156C274.568 22.1465 272.941 21.6522 271.105 21.1931L269.164 28.9543C270.912 29.3912 271.877 29.7289 272.292 29.9278L275.754 22.7156ZM271.044 21.1783C269.225 20.754 267.804 20.3357 266.739 19.9364L263.93 27.427C265.425 27.9877 267.204 28.4973 269.226 28.969L271.044 21.1783ZM266.82 19.9678C266.136 19.694 265.549 19.2827 265.027 18.6892L259.018 23.9701C260.352 25.4887 261.974 26.6454 263.849 27.3956L266.82 19.9678ZM265.066 18.7339C264.91 18.551 264.631 18.1029 264.631 16.9617H256.631C256.631 19.4685 257.279 21.9324 258.979 23.9255L265.066 18.7339ZM264.631 16.9617C264.631 16.1952 264.824 15.5788 265.207 15.0045L258.55 10.5669C257.269 12.4885 256.631 14.6562 256.631 16.9617H264.631ZM265.194 15.0236C265.58 14.4517 266.202 13.8882 267.267 13.408L263.978 6.11533C261.779 7.10712 259.905 8.55962 258.563 10.5478L265.194 15.0236ZM267.241 13.4198C268.285 12.9579 269.678 12.6577 271.527 12.6577V4.65768C268.832 4.65768 266.288 5.09346 264.005 6.10354L267.241 13.4198ZM271.527 12.6577C274.239 12.6577 275.841 13.3222 276.827 14.1764L282.066 8.13093C279.212 5.65719 275.534 4.65768 271.527 4.65768V12.6577ZM276.852 14.1977C277.958 15.1404 278.638 16.3748 278.828 18.194L286.785 17.3614C286.399 13.6765 284.84 10.4949 282.042 8.10962L276.852 14.1977ZM282.807 13.7777H275.223V21.7777H282.807V13.7777ZM279.185 17.2311C278.922 15.3262 278.001 13.6257 276.42 12.4045L271.529 18.7348C271.482 18.6982 271.4 18.618 271.332 18.4979C271.267 18.3815 271.258 18.3062 271.26 18.3242L279.185 17.2311ZM276.491 12.4607C274.92 11.1886 273.049 10.7537 271.287 10.7537V18.7537C271.528 18.7537 271.631 18.7834 271.637 18.7852C271.638 18.7857 271.618 18.7795 271.582 18.761C271.546 18.7421 271.503 18.7149 271.458 18.6787L276.491 12.4607ZM271.287 10.7537C269.872 10.7537 268.152 11.0244 266.679 12.1297L271.479 18.5297C271.249 18.7022 271.066 18.7573 271.024 18.7682C270.99 18.7772 271.063 18.7537 271.287 18.7537V10.7537ZM266.812 12.0335C265.177 13.1581 264.311 14.9078 264.311 16.8177H272.311C272.311 17.0419 272.262 17.4029 272.057 17.8003C271.85 18.2021 271.57 18.4713 271.345 18.6259L266.812 12.0335ZM264.311 16.8177C264.311 17.936 264.616 19.0856 265.325 20.1073C266.012 21.0957 266.918 21.7383 267.78 22.1518L271.242 14.9396C271.303 14.969 271.61 15.1316 271.896 15.5441C272.206 15.9898 272.311 16.4674 272.311 16.8177H264.311ZM267.834 22.1775C269.065 22.7455 270.683 23.2025 272.483 23.6024L274.218 15.7929C272.562 15.4249 271.62 15.1139 271.187 14.9138L267.834 22.1775ZM272.351 23.5708C274.239 24.058 275.664 24.5173 276.68 24.9344L279.717 17.533C278.237 16.9261 276.43 16.3614 274.35 15.8246L272.351 23.5708ZM276.763 24.9671C277.315 25.1795 277.853 25.5463 278.383 26.1858L284.543 21.0816C283.217 19.481 281.578 18.2479 279.635 17.5003L276.763 24.9671ZM278.463 26.2802C278.635 26.4748 278.931 26.9415 278.951 28.1186L286.95 27.9807C286.906 25.4459 286.21 22.9686 284.462 20.9872L278.463 26.2802ZM278.951 28.0497C278.951 28.7992 278.755 29.3876 278.357 29.9409L284.856 34.6065C286.251 32.6637 286.951 30.4362 286.951 28.0497H278.951ZM278.346 29.9569C277.994 30.4516 277.382 30.9935 276.256 31.4698L279.373 38.8376C281.575 37.9058 283.491 36.5278 284.867 34.5905L278.346 29.9569ZM276.23 31.4808C275.197 31.9264 273.853 32.2097 272.103 32.2097V40.2097C274.704 40.2097 277.168 39.789 279.399 38.8265L276.23 31.4808Z" fill="#D1EEFF" mask="url(#path-1-outside-1_81_75)"/>
</svg>
