<svg width="452" height="40" viewBox="0 0 452 40" fill="none" xmlns="http://www.w3.org/2000/svg">
<mask id="path-1-outside-1_81_97" maskUnits="userSpaceOnUse" x="-3" y="-3" width="458" height="46" fill="black">
<rect fill="white" x="-3" y="-3" width="458" height="46"/>
<path d="M0.584 22.104C0.584 18.776 1.304 15.816 2.744 13.224C4.184 10.6 6.184 8.568 8.744 7.128C11.336 5.656 14.264 4.92 17.528 4.92C21.528 4.92 24.952 5.976 27.8 8.088C30.648 10.2 32.552 13.08 33.512 16.728H24.488C23.816 15.32 22.856 14.248 21.608 13.512C20.392 12.776 19 12.408 17.432 12.408C14.904 12.408 12.856 13.288 11.288 15.048C9.72 16.808 8.936 19.16 8.936 22.104C8.936 25.048 9.72 27.4 11.288 29.16C12.856 30.92 14.904 31.8 17.432 31.8C19 31.8 20.392 31.432 21.608 30.696C22.856 29.96 23.816 28.888 24.488 27.48H33.512C32.552 31.128 30.648 34.008 27.8 36.12C24.952 38.2 21.528 39.24 17.528 39.24C14.264 39.24 11.336 38.52 8.744 37.08C6.184 35.608 4.184 33.576 2.744 30.984C1.304 28.392 0.584 25.432 0.584 22.104ZM54.0905 39.384C51.4665 39.384 49.0985 38.824 46.9865 37.704C44.9065 36.584 43.2585 34.984 42.0425 32.904C40.8585 30.824 40.2665 28.392 40.2665 25.608C40.2665 22.856 40.8745 20.44 42.0905 18.36C43.3065 16.248 44.9705 14.632 47.0825 13.512C49.1945 12.392 51.5625 11.832 54.1865 11.832C56.8105 11.832 59.1785 12.392 61.2905 13.512C63.4025 14.632 65.0665 16.248 66.2825 18.36C67.4985 20.44 68.1065 22.856 68.1065 25.608C68.1065 28.36 67.4825 30.792 66.2345 32.904C65.0185 34.984 63.3385 36.584 61.1945 37.704C59.0825 38.824 56.7145 39.384 54.0905 39.384ZM54.0905 32.28C55.6585 32.28 56.9865 31.704 58.0745 30.552C59.1945 29.4 59.7545 27.752 59.7545 25.608C59.7545 23.464 59.2105 21.816 58.1225 20.664C57.0665 19.512 55.7545 18.936 54.1865 18.936C52.5865 18.936 51.2585 19.512 50.2025 20.664C49.1465 21.784 48.6185 23.432 48.6185 25.608C48.6185 27.752 49.1305 29.4 50.1545 30.552C51.2105 31.704 52.5225 32.28 54.0905 32.28ZM92.141 11.928C95.277 11.928 97.773 12.952 99.629 15C101.517 17.016 102.461 19.8 102.461 23.352V39H94.301V24.456C94.301 22.664 93.837 21.272 92.909 20.28C91.981 19.288 90.733 18.792 89.165 18.792C87.597 18.792 86.349 19.288 85.421 20.28C84.493 21.272 84.029 22.664 84.029 24.456V39H75.821V12.216H84.029V15.768C84.861 14.584 85.981 13.656 87.389 12.984C88.797 12.28 90.381 11.928 92.141 11.928ZM127.845 11.928C130.981 11.928 133.477 12.952 135.333 15C137.221 17.016 138.165 19.8 138.165 23.352V39H130.005V24.456C130.005 22.664 129.541 21.272 128.613 20.28C127.685 19.288 126.437 18.792 124.869 18.792C123.301 18.792 122.053 19.288 121.125 20.28C120.197 21.272 119.733 22.664 119.733 24.456V39H111.525V12.216H119.733V15.768C120.565 14.584 121.685 13.656 123.093 12.984C124.501 12.28 126.085 11.928 127.845 11.928ZM172.477 25.176C172.477 25.944 172.429 26.744 172.333 27.576H153.757C153.885 29.24 154.413 30.52 155.341 31.416C156.301 32.28 157.469 32.712 158.845 32.712C160.893 32.712 162.317 31.848 163.117 30.12H171.853C171.405 31.88 170.589 33.464 169.405 34.872C168.253 36.28 166.797 37.384 165.037 38.184C163.277 38.984 161.309 39.384 159.133 39.384C156.509 39.384 154.173 38.824 152.125 37.704C150.077 36.584 148.477 34.984 147.325 32.904C146.173 30.824 145.597 28.392 145.597 25.608C145.597 22.824 146.157 20.392 147.277 18.312C148.429 16.232 150.029 14.632 152.077 13.512C154.125 12.392 156.477 11.832 159.133 11.832C161.725 11.832 164.029 12.376 166.045 13.464C168.061 14.552 169.629 16.104 170.749 18.12C171.901 20.136 172.477 22.488 172.477 25.176ZM164.077 23.016C164.077 21.608 163.597 20.488 162.637 19.656C161.677 18.824 160.477 18.408 159.037 18.408C157.661 18.408 156.493 18.808 155.533 19.608C154.605 20.408 154.029 21.544 153.805 23.016H164.077ZM178.535 25.608C178.535 22.824 179.095 20.392 180.215 18.312C181.367 16.232 182.951 14.632 184.967 13.512C187.015 12.392 189.351 11.832 191.975 11.832C195.335 11.832 198.135 12.712 200.375 14.472C202.647 16.232 204.135 18.712 204.839 21.912H196.103C195.367 19.864 193.943 18.84 191.831 18.84C190.327 18.84 189.127 19.432 188.231 20.616C187.335 21.768 186.887 23.432 186.887 25.608C186.887 27.784 187.335 29.464 188.231 30.648C189.127 31.8 190.327 32.376 191.831 32.376C193.943 32.376 195.367 31.352 196.103 29.304H204.839C204.135 32.44 202.647 34.904 200.375 36.696C198.103 38.488 195.303 39.384 191.975 39.384C189.351 39.384 187.015 38.824 184.967 37.704C182.951 36.584 181.367 34.984 180.215 32.904C179.095 30.824 178.535 28.392 178.535 25.608ZM227.517 32.04V39H223.341C220.365 39 218.045 38.28 216.381 36.84C214.717 35.368 213.885 32.984 213.885 29.688V19.032H210.621V12.216H213.885V5.688H222.093V12.216H227.469V19.032H222.093V29.784C222.093 30.584 222.285 31.16 222.669 31.512C223.053 31.864 223.693 32.04 224.589 32.04H227.517ZM295.349 5.304L286.565 39H276.629L271.253 16.824L265.685 39H255.749L247.205 5.304H255.989L260.837 29.832L266.837 5.304H275.861L281.621 29.832L286.517 5.304H295.349ZM306.953 9.432C305.513 9.432 304.329 9.016 303.401 8.184C302.505 7.32 302.057 6.264 302.057 5.016C302.057 3.736 302.505 2.68 303.401 1.848C304.329 0.983997 305.513 0.551997 306.953 0.551997C308.361 0.551997 309.513 0.983997 310.409 1.848C311.337 2.68 311.801 3.736 311.801 5.016C311.801 6.264 311.337 7.32 310.409 8.184C309.513 9.016 308.361 9.432 306.953 9.432ZM311.033 12.216V39H302.825V12.216H311.033ZM335.27 32.04V39H331.094C328.118 39 325.798 38.28 324.134 36.84C322.47 35.368 321.638 32.984 321.638 29.688V19.032H318.374V12.216H321.638V5.688H329.846V12.216H335.222V19.032H329.846V29.784C329.846 30.584 330.038 31.16 330.422 31.512C330.806 31.864 331.446 32.04 332.342 32.04H335.27ZM359.666 11.928C362.738 11.928 365.202 12.952 367.058 15C368.914 17.016 369.842 19.8 369.842 23.352V39H361.682V24.456C361.682 22.664 361.218 21.272 360.29 20.28C359.362 19.288 358.114 18.792 356.546 18.792C354.978 18.792 353.73 19.288 352.802 20.28C351.874 21.272 351.41 22.664 351.41 24.456V39H343.202V3.48H351.41V15.816C352.242 14.632 353.378 13.688 354.818 12.984C356.258 12.28 357.874 11.928 359.666 11.928ZM400.501 5.304V25.464C400.501 27.48 400.997 29.032 401.989 30.12C402.981 31.208 404.437 31.752 406.357 31.752C408.277 31.752 409.749 31.208 410.773 30.12C411.797 29.032 412.309 27.48 412.309 25.464V5.304H420.517V25.416C420.517 28.424 419.877 30.968 418.597 33.048C417.317 35.128 415.589 36.696 413.413 37.752C411.269 38.808 408.869 39.336 406.213 39.336C403.557 39.336 401.173 38.824 399.061 37.8C396.981 36.744 395.333 35.176 394.117 33.096C392.901 30.984 392.293 28.424 392.293 25.416V5.304H400.501ZM440.537 39.384C438.201 39.384 436.121 38.984 434.297 38.184C432.473 37.384 431.033 36.296 429.977 34.92C428.921 33.512 428.329 31.944 428.201 30.216H436.313C436.409 31.144 436.841 31.896 437.609 32.472C438.377 33.048 439.321 33.336 440.441 33.336C441.465 33.336 442.249 33.144 442.793 32.76C443.369 32.344 443.657 31.816 443.657 31.176C443.657 30.408 443.257 29.848 442.457 29.496C441.657 29.112 440.361 28.696 438.569 28.248C436.649 27.8 435.049 27.336 433.769 26.856C432.489 26.344 431.385 25.56 430.457 24.504C429.529 23.416 429.065 21.96 429.065 20.136C429.065 18.6 429.481 17.208 430.313 15.96C431.177 14.68 432.425 13.672 434.057 12.936C435.721 12.2 437.689 11.832 439.961 11.832C443.321 11.832 445.961 12.664 447.881 14.328C449.833 15.992 450.953 18.2 451.241 20.952H443.657C443.529 20.024 443.113 19.288 442.409 18.744C441.737 18.2 440.841 17.928 439.721 17.928C438.761 17.928 438.025 18.12 437.513 18.504C437.001 18.856 436.745 19.352 436.745 19.992C436.745 20.76 437.145 21.336 437.945 21.72C438.777 22.104 440.057 22.488 441.785 22.872C443.769 23.384 445.385 23.896 446.633 24.408C447.881 24.888 448.969 25.688 449.897 26.808C450.857 27.896 451.353 29.368 451.385 31.224C451.385 32.792 450.937 34.2 450.041 35.448C449.177 36.664 447.913 37.624 446.249 38.328C444.617 39.032 442.713 39.384 440.537 39.384Z"/>
</mask>
<path d="M0.584 22.104C0.584 18.776 1.304 15.816 2.744 13.224C4.184 10.6 6.184 8.568 8.744 7.128C11.336 5.656 14.264 4.92 17.528 4.92C21.528 4.92 24.952 5.976 27.8 8.088C30.648 10.2 32.552 13.08 33.512 16.728H24.488C23.816 15.32 22.856 14.248 21.608 13.512C20.392 12.776 19 12.408 17.432 12.408C14.904 12.408 12.856 13.288 11.288 15.048C9.72 16.808 8.936 19.16 8.936 22.104C8.936 25.048 9.72 27.4 11.288 29.16C12.856 30.92 14.904 31.8 17.432 31.8C19 31.8 20.392 31.432 21.608 30.696C22.856 29.96 23.816 28.888 24.488 27.48H33.512C32.552 31.128 30.648 34.008 27.8 36.12C24.952 38.2 21.528 39.24 17.528 39.24C14.264 39.24 11.336 38.52 8.744 37.08C6.184 35.608 4.184 33.576 2.744 30.984C1.304 28.392 0.584 25.432 0.584 22.104ZM54.0905 39.384C51.4665 39.384 49.0985 38.824 46.9865 37.704C44.9065 36.584 43.2585 34.984 42.0425 32.904C40.8585 30.824 40.2665 28.392 40.2665 25.608C40.2665 22.856 40.8745 20.44 42.0905 18.36C43.3065 16.248 44.9705 14.632 47.0825 13.512C49.1945 12.392 51.5625 11.832 54.1865 11.832C56.8105 11.832 59.1785 12.392 61.2905 13.512C63.4025 14.632 65.0665 16.248 66.2825 18.36C67.4985 20.44 68.1065 22.856 68.1065 25.608C68.1065 28.36 67.4825 30.792 66.2345 32.904C65.0185 34.984 63.3385 36.584 61.1945 37.704C59.0825 38.824 56.7145 39.384 54.0905 39.384ZM54.0905 32.28C55.6585 32.28 56.9865 31.704 58.0745 30.552C59.1945 29.4 59.7545 27.752 59.7545 25.608C59.7545 23.464 59.2105 21.816 58.1225 20.664C57.0665 19.512 55.7545 18.936 54.1865 18.936C52.5865 18.936 51.2585 19.512 50.2025 20.664C49.1465 21.784 48.6185 23.432 48.6185 25.608C48.6185 27.752 49.1305 29.4 50.1545 30.552C51.2105 31.704 52.5225 32.28 54.0905 32.28ZM92.141 11.928C95.277 11.928 97.773 12.952 99.629 15C101.517 17.016 102.461 19.8 102.461 23.352V39H94.301V24.456C94.301 22.664 93.837 21.272 92.909 20.28C91.981 19.288 90.733 18.792 89.165 18.792C87.597 18.792 86.349 19.288 85.421 20.28C84.493 21.272 84.029 22.664 84.029 24.456V39H75.821V12.216H84.029V15.768C84.861 14.584 85.981 13.656 87.389 12.984C88.797 12.28 90.381 11.928 92.141 11.928ZM127.845 11.928C130.981 11.928 133.477 12.952 135.333 15C137.221 17.016 138.165 19.8 138.165 23.352V39H130.005V24.456C130.005 22.664 129.541 21.272 128.613 20.28C127.685 19.288 126.437 18.792 124.869 18.792C123.301 18.792 122.053 19.288 121.125 20.28C120.197 21.272 119.733 22.664 119.733 24.456V39H111.525V12.216H119.733V15.768C120.565 14.584 121.685 13.656 123.093 12.984C124.501 12.28 126.085 11.928 127.845 11.928ZM172.477 25.176C172.477 25.944 172.429 26.744 172.333 27.576H153.757C153.885 29.24 154.413 30.52 155.341 31.416C156.301 32.28 157.469 32.712 158.845 32.712C160.893 32.712 162.317 31.848 163.117 30.12H171.853C171.405 31.88 170.589 33.464 169.405 34.872C168.253 36.28 166.797 37.384 165.037 38.184C163.277 38.984 161.309 39.384 159.133 39.384C156.509 39.384 154.173 38.824 152.125 37.704C150.077 36.584 148.477 34.984 147.325 32.904C146.173 30.824 145.597 28.392 145.597 25.608C145.597 22.824 146.157 20.392 147.277 18.312C148.429 16.232 150.029 14.632 152.077 13.512C154.125 12.392 156.477 11.832 159.133 11.832C161.725 11.832 164.029 12.376 166.045 13.464C168.061 14.552 169.629 16.104 170.749 18.12C171.901 20.136 172.477 22.488 172.477 25.176ZM164.077 23.016C164.077 21.608 163.597 20.488 162.637 19.656C161.677 18.824 160.477 18.408 159.037 18.408C157.661 18.408 156.493 18.808 155.533 19.608C154.605 20.408 154.029 21.544 153.805 23.016H164.077ZM178.535 25.608C178.535 22.824 179.095 20.392 180.215 18.312C181.367 16.232 182.951 14.632 184.967 13.512C187.015 12.392 189.351 11.832 191.975 11.832C195.335 11.832 198.135 12.712 200.375 14.472C202.647 16.232 204.135 18.712 204.839 21.912H196.103C195.367 19.864 193.943 18.84 191.831 18.84C190.327 18.84 189.127 19.432 188.231 20.616C187.335 21.768 186.887 23.432 186.887 25.608C186.887 27.784 187.335 29.464 188.231 30.648C189.127 31.8 190.327 32.376 191.831 32.376C193.943 32.376 195.367 31.352 196.103 29.304H204.839C204.135 32.44 202.647 34.904 200.375 36.696C198.103 38.488 195.303 39.384 191.975 39.384C189.351 39.384 187.015 38.824 184.967 37.704C182.951 36.584 181.367 34.984 180.215 32.904C179.095 30.824 178.535 28.392 178.535 25.608ZM227.517 32.04V39H223.341C220.365 39 218.045 38.28 216.381 36.84C214.717 35.368 213.885 32.984 213.885 29.688V19.032H210.621V12.216H213.885V5.688H222.093V12.216H227.469V19.032H222.093V29.784C222.093 30.584 222.285 31.16 222.669 31.512C223.053 31.864 223.693 32.04 224.589 32.04H227.517ZM295.349 5.304L286.565 39H276.629L271.253 16.824L265.685 39H255.749L247.205 5.304H255.989L260.837 29.832L266.837 5.304H275.861L281.621 29.832L286.517 5.304H295.349ZM306.953 9.432C305.513 9.432 304.329 9.016 303.401 8.184C302.505 7.32 302.057 6.264 302.057 5.016C302.057 3.736 302.505 2.68 303.401 1.848C304.329 0.983997 305.513 0.551997 306.953 0.551997C308.361 0.551997 309.513 0.983997 310.409 1.848C311.337 2.68 311.801 3.736 311.801 5.016C311.801 6.264 311.337 7.32 310.409 8.184C309.513 9.016 308.361 9.432 306.953 9.432ZM311.033 12.216V39H302.825V12.216H311.033ZM335.27 32.04V39H331.094C328.118 39 325.798 38.28 324.134 36.84C322.47 35.368 321.638 32.984 321.638 29.688V19.032H318.374V12.216H321.638V5.688H329.846V12.216H335.222V19.032H329.846V29.784C329.846 30.584 330.038 31.16 330.422 31.512C330.806 31.864 331.446 32.04 332.342 32.04H335.27ZM359.666 11.928C362.738 11.928 365.202 12.952 367.058 15C368.914 17.016 369.842 19.8 369.842 23.352V39H361.682V24.456C361.682 22.664 361.218 21.272 360.29 20.28C359.362 19.288 358.114 18.792 356.546 18.792C354.978 18.792 353.73 19.288 352.802 20.28C351.874 21.272 351.41 22.664 351.41 24.456V39H343.202V3.48H351.41V15.816C352.242 14.632 353.378 13.688 354.818 12.984C356.258 12.28 357.874 11.928 359.666 11.928ZM400.501 5.304V25.464C400.501 27.48 400.997 29.032 401.989 30.12C402.981 31.208 404.437 31.752 406.357 31.752C408.277 31.752 409.749 31.208 410.773 30.12C411.797 29.032 412.309 27.48 412.309 25.464V5.304H420.517V25.416C420.517 28.424 419.877 30.968 418.597 33.048C417.317 35.128 415.589 36.696 413.413 37.752C411.269 38.808 408.869 39.336 406.213 39.336C403.557 39.336 401.173 38.824 399.061 37.8C396.981 36.744 395.333 35.176 394.117 33.096C392.901 30.984 392.293 28.424 392.293 25.416V5.304H400.501ZM440.537 39.384C438.201 39.384 436.121 38.984 434.297 38.184C432.473 37.384 431.033 36.296 429.977 34.92C428.921 33.512 428.329 31.944 428.201 30.216H436.313C436.409 31.144 436.841 31.896 437.609 32.472C438.377 33.048 439.321 33.336 440.441 33.336C441.465 33.336 442.249 33.144 442.793 32.76C443.369 32.344 443.657 31.816 443.657 31.176C443.657 30.408 443.257 29.848 442.457 29.496C441.657 29.112 440.361 28.696 438.569 28.248C436.649 27.8 435.049 27.336 433.769 26.856C432.489 26.344 431.385 25.56 430.457 24.504C429.529 23.416 429.065 21.96 429.065 20.136C429.065 18.6 429.481 17.208 430.313 15.96C431.177 14.68 432.425 13.672 434.057 12.936C435.721 12.2 437.689 11.832 439.961 11.832C443.321 11.832 445.961 12.664 447.881 14.328C449.833 15.992 450.953 18.2 451.241 20.952H443.657C443.529 20.024 443.113 19.288 442.409 18.744C441.737 18.2 440.841 17.928 439.721 17.928C438.761 17.928 438.025 18.12 437.513 18.504C437.001 18.856 436.745 19.352 436.745 19.992C436.745 20.76 437.145 21.336 437.945 21.72C438.777 22.104 440.057 22.488 441.785 22.872C443.769 23.384 445.385 23.896 446.633 24.408C447.881 24.888 448.969 25.688 449.897 26.808C450.857 27.896 451.353 29.368 451.385 31.224C451.385 32.792 450.937 34.2 450.041 35.448C449.177 36.664 447.913 37.624 446.249 38.328C444.617 39.032 442.713 39.384 440.537 39.384Z" fill="#457ABF"/>
<path d="M2.744 13.224L5.36647 14.6809L5.37025 14.6741L5.374 14.6673L2.744 13.224ZM8.744 7.128L10.2148 9.74275L10.2255 9.73668L8.744 7.128ZM27.8 8.088L29.587 5.67829L29.587 5.67829L27.8 8.088ZM33.512 16.728V19.728H37.4036L36.4132 15.9645L33.512 16.728ZM24.488 16.728L21.7806 18.0202L22.5956 19.728H24.488V16.728ZM21.608 13.512L20.0546 16.0785L20.0693 16.0874L20.084 16.0961L21.608 13.512ZM11.288 15.048L13.528 17.0436L13.528 17.0436L11.288 15.048ZM21.608 30.696L20.084 28.1119L20.0693 28.1206L20.0546 28.1295L21.608 30.696ZM24.488 27.48V24.48H22.5956L21.7806 26.1878L24.488 27.48ZM33.512 27.48L36.4132 28.2435L37.4036 24.48H33.512V27.48ZM27.8 36.12L29.5694 38.5427L29.5782 38.5362L29.587 38.5297L27.8 36.12ZM8.744 37.08L7.24859 39.6807L7.26775 39.6917L7.28707 39.7025L8.744 37.08ZM2.744 30.984L5.36647 29.5271L5.36647 29.5271L2.744 30.984ZM3.584 22.104C3.584 19.2223 4.20318 16.7748 5.36647 14.6809L0.121528 11.7671C-1.59518 14.8572 -2.416 18.3297 -2.416 22.104H3.584ZM5.374 14.6673C6.54995 12.5245 8.15269 10.9027 10.2148 9.74272L7.27322 4.51327C4.21531 6.23335 1.81805 8.67554 0.113999 11.7807L5.374 14.6673ZM10.2255 9.73668C12.3237 8.54508 14.7327 7.92 17.528 7.92V1.92C13.7953 1.92 10.3483 2.76692 7.26253 4.51931L10.2255 9.73668ZM17.528 7.92C20.9707 7.92 23.7472 8.81745 26.013 10.4977L29.587 5.67829C26.1568 3.13455 22.0853 1.92 17.528 1.92V7.92ZM26.013 10.4977C28.2769 12.1765 29.8124 14.4577 30.6108 17.4915L36.4132 15.9645C35.2916 11.7023 33.0191 8.22348 29.587 5.67829L26.013 10.4977ZM33.512 13.728H24.488V19.728H33.512V13.728ZM27.1954 15.4358C26.287 13.5324 24.9341 11.9907 23.132 10.9279L20.084 16.0961C20.7779 16.5053 21.345 17.1076 21.7806 18.0202L27.1954 15.4358ZM23.1614 10.9455C21.4295 9.89721 19.4894 9.408 17.432 9.408V15.408C18.5106 15.408 19.3545 15.6548 20.0546 16.0785L23.1614 10.9455ZM17.432 9.408C14.1182 9.408 11.2302 10.603 9.04802 13.0524L13.528 17.0436C14.4818 15.973 15.6898 15.408 17.432 15.408V9.408ZM9.04802 13.0524C6.87719 15.489 5.936 18.6144 5.936 22.104H11.936C11.936 19.7056 12.5628 18.127 13.528 17.0436L9.04802 13.0524ZM5.936 22.104C5.936 25.5936 6.87719 28.719 9.04802 31.1556L13.528 27.1644C12.5628 26.081 11.936 24.5024 11.936 22.104H5.936ZM9.04802 31.1556C11.2302 33.605 14.1182 34.8 17.432 34.8V28.8C15.6898 28.8 14.4818 28.235 13.528 27.1644L9.04802 31.1556ZM17.432 34.8C19.4894 34.8 21.4295 34.3108 23.1614 33.2625L20.0546 28.1295C19.3545 28.5532 18.5106 28.8 17.432 28.8V34.8ZM23.132 33.2801C24.9341 32.2173 26.287 30.6756 27.1954 28.7722L21.7806 26.1878C21.345 27.1004 20.7779 27.7027 20.084 28.1119L23.132 33.2801ZM24.488 30.48H33.512V24.48H24.488V30.48ZM30.6108 26.7165C29.8124 29.7503 28.2769 32.0315 26.013 33.7103L29.587 38.5297C33.0191 35.9845 35.2916 32.5057 36.4132 28.2435L30.6108 26.7165ZM26.0306 33.6973C23.7638 35.3529 20.981 36.24 17.528 36.24V42.24C22.0751 42.24 26.1402 41.0471 29.5694 38.5427L26.0306 33.6973ZM17.528 36.24C14.7212 36.24 12.3034 35.6256 10.2009 34.4575L7.28707 39.7025C10.3686 41.4144 13.8068 42.24 17.528 42.24V36.24ZM10.2394 34.4793C8.1541 33.2802 6.54285 31.6445 5.36647 29.5271L0.121528 32.4409C1.82515 35.5075 4.2139 37.9358 7.24859 39.6807L10.2394 34.4793ZM5.36647 29.5271C4.20318 27.4332 3.584 24.9857 3.584 22.104H-2.416C-2.416 25.8783 -1.59518 29.3508 0.121528 32.4409L5.36647 29.5271ZM46.9865 37.704L45.5642 40.3454L45.5726 40.3499L45.581 40.3544L46.9865 37.704ZM42.0425 32.904L39.4353 34.3881L39.4439 34.4031L39.4526 34.4181L42.0425 32.904ZM42.0905 18.36L44.6804 19.8741L44.6854 19.8655L44.6904 19.8569L42.0905 18.36ZM47.0825 13.512L48.488 16.1624L48.488 16.1624L47.0825 13.512ZM61.2905 13.512L59.885 16.1624L59.885 16.1624L61.2905 13.512ZM66.2825 18.36L63.6826 19.8569L63.6876 19.8655L63.6926 19.8741L66.2825 18.36ZM66.2345 32.904L63.6517 31.3778L63.6446 31.3899L66.2345 32.904ZM61.1945 37.704L59.8054 35.045L59.7972 35.0493L59.789 35.0536L61.1945 37.704ZM58.0745 30.552L55.9235 28.4608L55.9084 28.4763L55.8935 28.4921L58.0745 30.552ZM58.1225 20.664L55.911 22.6912L55.9261 22.7076L55.9415 22.7239L58.1225 20.664ZM50.2025 20.664L52.3853 22.722L52.3997 22.7067L52.414 22.6912L50.2025 20.664ZM50.1545 30.552L47.9123 32.5451L47.9275 32.5622L47.943 32.5792L50.1545 30.552ZM54.0905 36.384C51.9077 36.384 50.0299 35.9222 48.392 35.0536L45.581 40.3544C48.1671 41.7258 51.0253 42.384 54.0905 42.384V36.384ZM48.4088 35.0626C46.8243 34.2094 45.576 33.004 44.6324 31.3899L39.4526 34.4181C40.941 36.964 42.9887 38.9586 45.5642 40.3454L48.4088 35.0626ZM44.6497 31.4199C43.7625 29.8612 43.2665 27.9573 43.2665 25.608H37.2665C37.2665 28.8267 37.9545 31.7868 39.4353 34.3881L44.6497 31.4199ZM43.2665 25.608C43.2665 23.3112 43.7693 21.4325 44.6804 19.8741L39.5006 16.8459C37.9797 19.4475 37.2665 22.4008 37.2665 25.608H43.2665ZM44.6904 19.8569C45.6305 18.2241 46.8849 17.0125 48.488 16.1624L45.677 10.8616C43.0561 12.2515 40.9825 14.2719 39.4906 16.8631L44.6904 19.8569ZM48.488 16.1624C50.1259 15.2938 52.0037 14.832 54.1865 14.832V8.832C51.1213 8.832 48.2631 9.4902 45.677 10.8616L48.488 16.1624ZM54.1865 14.832C56.3693 14.832 58.2471 15.2938 59.885 16.1624L62.696 10.8616C60.1099 9.4902 57.2517 8.832 54.1865 8.832V14.832ZM59.885 16.1624C61.4881 17.0125 62.7425 18.2241 63.6826 19.8569L68.8824 16.8631C67.3905 14.2719 65.3169 12.2515 62.696 10.8616L59.885 16.1624ZM63.6926 19.8741C64.6037 21.4325 65.1065 23.3112 65.1065 25.608H71.1065C71.1065 22.4008 70.3933 19.4475 68.8724 16.8459L63.6926 19.8741ZM65.1065 25.608C65.1065 27.89 64.5944 29.7825 63.6517 31.3778L68.8173 34.4302C70.3706 31.8015 71.1065 28.83 71.1065 25.608H65.1065ZM63.6446 31.3899C62.7145 32.9809 61.4516 34.185 59.8054 35.045L62.5836 40.363C65.2254 38.983 67.3225 36.9871 68.8244 34.4181L63.6446 31.3899ZM59.789 35.0536C58.1511 35.9222 56.2733 36.384 54.0905 36.384V42.384C57.1557 42.384 60.0139 41.7258 62.6 40.3544L59.789 35.0536ZM54.0905 35.28C56.4937 35.28 58.6076 34.3567 60.2555 32.6119L55.8935 28.4921C55.3654 29.0513 54.8233 29.28 54.0905 29.28V35.28ZM60.2255 32.6432C62.0521 30.7644 62.7545 28.2644 62.7545 25.608H56.7545C56.7545 27.2396 56.3369 28.0356 55.9235 28.4608L60.2255 32.6432ZM62.7545 25.608C62.7545 22.9735 62.0803 20.4854 60.3035 18.6041L55.9415 22.7239C56.3407 23.1466 56.7545 23.9545 56.7545 25.608H62.7545ZM60.334 18.6368C58.7076 16.8626 56.5922 15.936 54.1865 15.936V21.936C54.9168 21.936 55.4254 22.1614 55.911 22.6912L60.334 18.6368ZM54.1865 15.936C51.7683 15.936 49.6305 16.8484 47.991 18.6368L52.414 22.6912C52.8865 22.1756 53.4047 21.936 54.1865 21.936V15.936ZM48.0197 18.606C46.2556 20.4771 45.6185 22.9841 45.6185 25.608H51.6185C51.6185 23.8799 52.0374 23.0909 52.3853 22.722L48.0197 18.606ZM45.6185 25.608C45.6185 28.1995 46.2381 30.6617 47.9123 32.5451L52.3967 28.5589C52.0229 28.1383 51.6185 27.3045 51.6185 25.608H45.6185ZM47.943 32.5792C49.5694 34.3534 51.6848 35.28 54.0905 35.28V29.28C53.3602 29.28 52.8516 29.0546 52.366 28.5248L47.943 32.5792ZM99.629 15L97.406 17.0146L97.4225 17.0327L97.4393 17.0507L99.629 15ZM102.461 39V42H105.461V39H102.461ZM94.301 39H91.301V42H94.301V39ZM92.909 20.28L90.7182 22.3295L90.7182 22.3295L92.909 20.28ZM85.421 20.28L87.6118 22.3295L87.6118 22.3295L85.421 20.28ZM84.029 39V42H87.029V39H84.029ZM75.821 39H72.821V42H75.821V39ZM75.821 12.216V9.216H72.821V12.216H75.821ZM84.029 12.216H87.029V9.216H84.029V12.216ZM84.029 15.768H81.029V25.2551L86.4836 17.4928L84.029 15.768ZM87.389 12.984L88.6812 15.6914L88.706 15.6796L88.7306 15.6673L87.389 12.984ZM92.141 14.928C94.5563 14.928 96.1983 15.6818 97.406 17.0146L101.852 12.9854C99.3477 10.2222 95.9977 8.928 92.141 8.928V14.928ZM97.4393 17.0507C98.6706 18.3654 99.461 20.336 99.461 23.352H105.461C105.461 19.264 104.363 15.6666 101.819 12.9493L97.4393 17.0507ZM99.461 23.352V39H105.461V23.352H99.461ZM102.461 36H94.301V42H102.461V36ZM97.301 39V24.456H91.301V39H97.301ZM97.301 24.456C97.301 22.1523 96.6962 19.937 95.0998 18.2305L90.7182 22.3295C90.9778 22.607 91.301 23.1757 91.301 24.456H97.301ZM95.0998 18.2305C93.5154 16.5368 91.4231 15.792 89.165 15.792V21.792C90.0429 21.792 90.4467 22.0392 90.7182 22.3295L95.0998 18.2305ZM89.165 15.792C86.9069 15.792 84.8147 16.5368 83.2302 18.2305L87.6118 22.3295C87.8834 22.0392 88.2871 21.792 89.165 21.792V15.792ZM83.2302 18.2305C81.6338 19.937 81.029 22.1523 81.029 24.456H87.029C87.029 23.1757 87.3522 22.607 87.6118 22.3295L83.2302 18.2305ZM81.029 24.456V39H87.029V24.456H81.029ZM84.029 36H75.821V42H84.029V36ZM78.821 39V12.216H72.821V39H78.821ZM75.821 15.216H84.029V9.216H75.821V15.216ZM81.029 12.216V15.768H87.029V12.216H81.029ZM86.4836 17.4928C86.996 16.7636 87.7012 16.1592 88.6812 15.6914L86.0968 10.2766C84.2608 11.1528 82.726 12.4044 81.5744 14.0432L86.4836 17.4928ZM88.7306 15.6673C89.6751 15.1951 90.7912 14.928 92.141 14.928V8.928C89.9708 8.928 87.9189 9.36493 86.0474 10.3007L88.7306 15.6673ZM135.333 15L133.11 17.0146L133.126 17.0327L133.143 17.0507L135.333 15ZM138.165 39V42H141.165V39H138.165ZM130.005 39H127.005V42H130.005V39ZM128.613 20.28L126.422 22.3295L126.422 22.3295L128.613 20.28ZM121.125 20.28L123.316 22.3295L123.316 22.3295L121.125 20.28ZM119.733 39V42H122.733V39H119.733ZM111.525 39H108.525V42H111.525V39ZM111.525 12.216V9.216H108.525V12.216H111.525ZM119.733 12.216H122.733V9.216H119.733V12.216ZM119.733 15.768H116.733V25.2551L122.187 17.4928L119.733 15.768ZM123.093 12.984L124.385 15.6914L124.41 15.6796L124.434 15.6673L123.093 12.984ZM127.845 14.928C130.26 14.928 131.902 15.6818 133.11 17.0146L137.556 12.9854C135.051 10.2222 131.701 8.928 127.845 8.928V14.928ZM133.143 17.0507C134.374 18.3654 135.165 20.336 135.165 23.352H141.165C141.165 19.264 140.067 15.6666 137.522 12.9493L133.143 17.0507ZM135.165 23.352V39H141.165V23.352H135.165ZM138.165 36H130.005V42H138.165V36ZM133.005 39V24.456H127.005V39H133.005ZM133.005 24.456C133.005 22.1523 132.4 19.937 130.804 18.2305L126.422 22.3295C126.682 22.607 127.005 23.1757 127.005 24.456H133.005ZM130.804 18.2305C129.219 16.5368 127.127 15.792 124.869 15.792V21.792C125.747 21.792 126.15 22.0392 126.422 22.3295L130.804 18.2305ZM124.869 15.792C122.611 15.792 120.518 16.5368 118.934 18.2305L123.316 22.3295C123.587 22.0392 123.991 21.792 124.869 21.792V15.792ZM118.934 18.2305C117.338 19.937 116.733 22.1523 116.733 24.456H122.733C122.733 23.1757 123.056 22.607 123.316 22.3295L118.934 18.2305ZM116.733 24.456V39H122.733V24.456H116.733ZM119.733 36H111.525V42H119.733V36ZM114.525 39V12.216H108.525V39H114.525ZM111.525 15.216H119.733V9.216H111.525V15.216ZM116.733 12.216V15.768H122.733V12.216H116.733ZM122.187 17.4928C122.7 16.7636 123.405 16.1592 124.385 15.6914L121.801 10.2766C119.965 11.1528 118.43 12.4044 117.278 14.0432L122.187 17.4928ZM124.434 15.6673C125.379 15.1951 126.495 14.928 127.845 14.928V8.928C125.675 8.928 123.623 9.36493 121.751 10.3007L124.434 15.6673ZM172.333 27.576V30.576H175.006L175.313 27.9199L172.333 27.576ZM153.757 27.576V24.576H150.517L150.765 27.8061L153.757 27.576ZM155.341 31.416L153.257 33.5742L153.295 33.6107L153.334 33.6459L155.341 31.416ZM163.117 30.12V27.12H161.199L160.394 28.8596L163.117 30.12ZM171.853 30.12L174.76 30.86L175.712 27.12H171.853V30.12ZM169.405 34.872L167.108 32.9412L167.095 32.9567L167.083 32.9723L169.405 34.872ZM165.037 38.184L166.278 40.9151L165.037 38.184ZM152.125 37.704L150.685 40.3361L150.685 40.3361L152.125 37.704ZM147.325 32.904L149.949 31.4505L149.949 31.4505L147.325 32.904ZM147.277 18.312L144.652 16.8585L144.644 16.874L144.635 16.8897L147.277 18.312ZM152.077 13.512L153.516 16.1441L153.516 16.1441L152.077 13.512ZM166.045 13.464L164.62 16.1041L164.62 16.1041L166.045 13.464ZM170.749 18.12L168.126 19.5769L168.135 19.5927L168.144 19.6084L170.749 18.12ZM164.077 23.016V26.016H167.077V23.016H164.077ZM162.637 19.656L164.601 17.3889L164.601 17.3889L162.637 19.656ZM155.533 19.608L153.612 17.3033L153.593 17.3194L153.574 17.3358L155.533 19.608ZM153.805 23.016L150.839 22.5647L150.313 26.016H153.805V23.016ZM169.477 25.176C169.477 25.8193 169.436 26.5042 169.352 27.2321L175.313 27.9199C175.421 26.9838 175.477 26.0687 175.477 25.176H169.477ZM172.333 24.576H153.757V30.576H172.333V24.576ZM150.765 27.8061C150.933 29.9816 151.66 32.033 153.257 33.5742L157.424 29.2578C157.165 29.007 156.836 28.4984 156.748 27.3459L150.765 27.8061ZM153.334 33.6459C154.883 35.0399 156.78 35.712 158.845 35.712V29.712C158.157 29.712 157.718 29.5201 157.347 29.1861L153.334 33.6459ZM158.845 35.712C160.292 35.712 161.727 35.4043 163.005 34.6288C164.297 33.8448 165.225 32.7055 165.839 31.3804L160.394 28.8596C160.208 29.2625 160.024 29.4192 159.892 29.4992C159.746 29.5877 159.445 29.712 158.845 29.712V35.712ZM163.117 33.12H171.853V27.12H163.117V33.12ZM168.945 29.38C168.61 30.6962 168.006 31.8744 167.108 32.9412L171.701 36.8028C173.171 35.0536 174.199 33.0638 174.76 30.86L168.945 29.38ZM167.083 32.9723C166.24 34.0017 165.163 34.8312 163.795 35.4529L166.278 40.9151C168.43 39.9368 170.265 38.5583 171.726 36.7717L167.083 32.9723ZM163.795 35.4529C162.471 36.0547 160.934 36.384 159.133 36.384V42.384C161.683 42.384 164.082 41.9133 166.278 40.9151L163.795 35.4529ZM159.133 36.384C156.948 36.384 155.118 35.9218 153.564 35.0719L150.685 40.3361C153.227 41.7262 156.069 42.384 159.133 42.384V36.384ZM153.564 35.0719C152.024 34.2299 150.831 33.0431 149.949 31.4505L144.7 34.3575C146.122 36.9249 148.129 38.9381 150.685 40.3361L153.564 35.0719ZM149.949 31.4505C149.082 29.8859 148.597 27.9708 148.597 25.608H142.597C142.597 28.8132 143.263 31.7621 144.7 34.3575L149.949 31.4505ZM148.597 25.608C148.597 23.2318 149.072 21.3052 149.918 19.7343L144.635 16.8897C143.241 19.4788 142.597 22.4162 142.597 25.608H148.597ZM149.901 19.7655C150.783 18.1729 151.976 16.9861 153.516 16.1441L150.637 10.8799C148.081 12.2779 146.074 14.2911 144.652 16.8585L149.901 19.7655ZM153.516 16.1441C155.065 15.2971 156.909 14.832 159.133 14.832V8.832C156.044 8.832 153.184 9.48692 150.637 10.8799L153.516 16.1441ZM159.133 14.832C161.293 14.832 163.096 15.2819 164.62 16.1041L167.469 10.8239C164.961 9.4701 162.156 8.832 159.133 8.832V14.832ZM164.62 16.1041C166.128 16.9182 167.282 18.058 168.126 19.5769L173.371 16.6631C171.975 14.15 169.993 12.1858 167.469 10.8239L164.62 16.1041ZM168.144 19.6084C168.998 21.104 169.477 22.9269 169.477 25.176H175.477C175.477 22.0491 174.803 19.168 173.353 16.6316L168.144 19.6084ZM167.077 23.016C167.077 20.8438 166.295 18.8566 164.601 17.3889L160.672 21.9231C160.898 22.1194 161.077 22.3722 161.077 23.016H167.077ZM164.601 17.3889C163.023 16.021 161.096 15.408 159.037 15.408V21.408C159.857 21.408 160.33 21.627 160.672 21.9231L164.601 17.3889ZM159.037 15.408C157.035 15.408 155.167 16.0077 153.612 17.3033L157.453 21.9127C157.818 21.6083 158.286 21.408 159.037 21.408V15.408ZM153.574 17.3358C151.993 18.6983 151.146 20.5437 150.839 22.5647L156.77 23.4673C156.911 22.5443 157.216 22.1177 157.491 21.8802L153.574 17.3358ZM153.805 26.016H164.077V20.016H153.805V26.016ZM180.215 18.312L177.59 16.8585L177.582 16.874L177.573 16.8897L180.215 18.312ZM184.967 13.512L183.527 10.8799L183.518 10.8847L183.51 10.8895L184.967 13.512ZM200.375 14.472L198.521 16.831L198.529 16.8373L198.537 16.8436L200.375 14.472ZM204.839 21.912V24.912H208.57L207.769 21.2674L204.839 21.912ZM196.103 21.912L193.279 22.9266L193.993 24.912H196.103V21.912ZM188.231 20.616L190.599 22.4578L190.611 22.4422L190.623 22.4263L188.231 20.616ZM188.231 30.648L185.838 32.4583L185.85 32.4742L185.863 32.4898L188.231 30.648ZM196.103 29.304V26.304H193.993L193.279 28.2894L196.103 29.304ZM204.839 29.304L207.766 29.9611L208.587 26.304H204.839V29.304ZM200.375 36.696L198.517 34.3405L198.517 34.3405L200.375 36.696ZM184.967 37.704L183.51 40.3265L183.518 40.3313L183.527 40.3361L184.967 37.704ZM180.215 32.904L177.573 34.3263L177.582 34.3419L177.59 34.3575L180.215 32.904ZM181.535 25.608C181.535 23.2318 182.01 21.3052 182.856 19.7343L177.573 16.8897C176.179 19.4788 175.535 22.4162 175.535 25.608H181.535ZM182.839 19.7655C183.728 18.1607 184.914 16.973 186.424 16.1345L183.51 10.8895C180.987 12.291 179.005 14.3033 177.59 16.8585L182.839 19.7655ZM186.406 16.1441C187.96 15.2942 189.79 14.832 191.975 14.832V8.832C188.911 8.832 186.069 9.48979 183.527 10.8799L186.406 16.1441ZM191.975 14.832C194.788 14.832 196.901 15.5576 198.521 16.831L202.228 12.113C199.369 9.86637 195.881 8.832 191.975 8.832V14.832ZM198.537 16.8436C200.177 18.1139 201.333 19.9407 201.909 22.5566L207.769 21.2674C206.936 17.4833 205.116 14.3501 202.212 12.1003L198.537 16.8436ZM204.839 18.912H196.103V24.912H204.839V18.912ZM198.926 20.8974C198.402 19.4408 197.546 18.1159 196.234 17.1724C194.915 16.2236 193.384 15.84 191.831 15.84V21.84C192.389 21.84 192.627 21.9684 192.731 22.0436C192.843 22.1241 193.067 22.3352 193.279 22.9266L198.926 20.8974ZM191.831 15.84C189.401 15.84 187.31 16.861 185.838 18.8057L190.623 22.4263C190.943 22.003 191.252 21.84 191.831 21.84V15.84ZM185.863 18.7742C184.399 20.6558 183.887 23.0783 183.887 25.608H189.887C189.887 23.7857 190.27 22.8802 190.599 22.4578L185.863 18.7742ZM183.887 25.608C183.887 28.1454 184.402 30.5604 185.838 32.4583L190.623 28.8377C190.267 28.3676 189.887 27.4226 189.887 25.608H183.887ZM185.863 32.4898C187.347 34.3982 189.434 35.376 191.831 35.376V29.376C191.219 29.376 190.906 29.2018 190.599 28.8062L185.863 32.4898ZM191.831 35.376C193.384 35.376 194.915 34.9924 196.234 34.0436C197.546 33.1001 198.402 31.7752 198.926 30.3186L193.279 28.2894C193.067 28.8808 192.843 29.0919 192.731 29.1724C192.627 29.2476 192.389 29.376 191.831 29.376V35.376ZM196.103 32.304H204.839V26.304H196.103V32.304ZM201.911 28.6469C201.341 31.1899 200.188 33.0227 198.517 34.3405L202.232 39.0515C205.106 36.7853 206.929 33.6901 207.766 29.9611L201.911 28.6469ZM198.517 34.3405C196.852 35.6538 194.735 36.384 191.975 36.384V42.384C195.871 42.384 199.354 41.3222 202.232 39.0515L198.517 34.3405ZM191.975 36.384C189.79 36.384 187.96 35.9218 186.406 35.0719L183.527 40.3361C186.069 41.7262 188.911 42.384 191.975 42.384V36.384ZM186.424 35.0815C184.914 34.243 183.728 33.0553 182.839 31.4505L177.59 34.3575C179.005 36.9127 180.987 38.925 183.51 40.3265L186.424 35.0815ZM182.856 31.4817C182.01 29.9108 181.535 27.9842 181.535 25.608H175.535C175.535 28.7998 176.179 31.7372 177.573 34.3263L182.856 31.4817ZM227.517 32.04H230.517V29.04H227.517V32.04ZM227.517 39V42H230.517V39H227.517ZM216.381 36.84L214.393 39.087L214.406 39.0978L214.418 39.1085L216.381 36.84ZM213.885 19.032H216.885V16.032H213.885V19.032ZM210.621 19.032H207.621V22.032H210.621V19.032ZM210.621 12.216V9.216H207.621V12.216H210.621ZM213.885 12.216V15.216H216.885V12.216H213.885ZM213.885 5.688V2.688H210.885V5.688H213.885ZM222.093 5.688H225.093V2.688H222.093V5.688ZM222.093 12.216H219.093V15.216H222.093V12.216ZM227.469 12.216H230.469V9.216H227.469V12.216ZM227.469 19.032V22.032H230.469V19.032H227.469ZM222.093 19.032V16.032H219.093V19.032H222.093ZM222.669 31.512L220.642 33.7235L220.642 33.7235L222.669 31.512ZM224.517 32.04V39H230.517V32.04H224.517ZM227.517 36H223.341V42H227.517V36ZM223.341 36C220.83 36 219.297 35.3957 218.344 34.5715L214.418 39.1085C216.794 41.1643 219.9 42 223.341 42V36ZM218.369 34.593C217.608 33.9198 216.885 32.5452 216.885 29.688H210.885C210.885 33.4228 211.826 36.8162 214.393 39.087L218.369 34.593ZM216.885 29.688V19.032H210.885V29.688H216.885ZM213.885 16.032H210.621V22.032H213.885V16.032ZM213.621 19.032V12.216H207.621V19.032H213.621ZM210.621 15.216H213.885V9.216H210.621V15.216ZM216.885 12.216V5.688H210.885V12.216H216.885ZM213.885 8.688H222.093V2.688H213.885V8.688ZM219.093 5.688V12.216H225.093V5.688H219.093ZM222.093 15.216H227.469V9.216H222.093V15.216ZM224.469 12.216V19.032H230.469V12.216H224.469ZM227.469 16.032H222.093V22.032H227.469V16.032ZM219.093 19.032V29.784H225.093V19.032H219.093ZM219.093 29.784C219.093 30.9779 219.371 32.5588 220.642 33.7235L224.696 29.3005C224.938 29.5222 225.045 29.7523 225.083 29.8673C225.116 29.9648 225.093 29.9578 225.093 29.784H219.093ZM220.642 33.7235C221.861 34.8405 223.44 35.04 224.589 35.04V29.04C224.462 29.04 224.369 29.0337 224.307 29.0265C224.244 29.0193 224.222 29.0124 224.233 29.0154C224.249 29.0199 224.455 29.079 224.696 29.3005L220.642 33.7235ZM224.589 35.04H227.517V29.04H224.589V35.04ZM295.349 5.304L298.252 6.06076L299.231 2.304H295.349V5.304ZM286.565 39V42H288.883L289.468 39.7568L286.565 39ZM276.629 39L273.713 39.7068L274.269 42H276.629V39ZM271.253 16.824L274.169 16.1172L268.343 16.0934L271.253 16.824ZM265.685 39V42H268.025L268.595 39.7306L265.685 39ZM255.749 39L252.841 39.7373L253.415 42H255.749V39ZM247.205 5.304V2.304H243.349L244.297 6.04135L247.205 5.304ZM255.989 5.304L258.932 4.7223L258.454 2.304H255.989V5.304ZM260.837 29.832L257.894 30.4137L263.751 30.5448L260.837 29.832ZM266.837 5.304V2.304H264.482L263.923 4.59116L266.837 5.304ZM275.861 5.304L278.782 4.61816L278.238 2.304H275.861V5.304ZM281.621 29.832L278.7 30.5178L284.563 30.4192L281.621 29.832ZM286.517 5.304V2.304H284.057L283.575 4.71676L286.517 5.304ZM292.446 4.54724L283.662 38.2432L289.468 39.7568L298.252 6.06076L292.446 4.54724ZM286.565 36H276.629V42H286.565V36ZM279.545 38.2932L274.169 16.1172L268.337 17.5308L273.713 39.7068L279.545 38.2932ZM268.343 16.0934L262.775 38.2694L268.595 39.7306L274.163 17.5546L268.343 16.0934ZM265.685 36H255.749V42H265.685V36ZM258.657 38.2627L250.113 4.56665L244.297 6.04135L252.841 39.7373L258.657 38.2627ZM247.205 8.304H255.989V2.304H247.205V8.304ZM253.046 5.8857L257.894 30.4137L263.78 29.2503L258.932 4.7223L253.046 5.8857ZM263.751 30.5448L269.751 6.01684L263.923 4.59116L257.923 29.1192L263.751 30.5448ZM266.837 8.304H275.861V2.304H266.837V8.304ZM272.94 5.98984L278.7 30.5178L284.542 29.1462L278.782 4.61816L272.94 5.98984ZM284.563 30.4192L289.459 5.89124L283.575 4.71676L278.679 29.2448L284.563 30.4192ZM286.517 8.304H295.349V2.304H286.517V8.304ZM303.401 8.184L301.319 10.3435L301.358 10.3813L301.399 10.4177L303.401 8.184ZM303.401 1.848L305.443 4.04638L305.446 4.04368L303.401 1.848ZM310.409 1.848L308.327 4.00753L308.366 4.04534L308.407 4.08171L310.409 1.848ZM310.409 8.184L312.451 10.3824L312.454 10.3797L310.409 8.184ZM311.033 12.216H314.033V9.216H311.033V12.216ZM311.033 39V42H314.033V39H311.033ZM302.825 39H299.825V42H302.825V39ZM302.825 12.216V9.216H299.825V12.216H302.825ZM306.953 6.432C306.13 6.432 305.697 6.21289 305.404 5.95029L301.399 10.4177C302.962 11.8191 304.897 12.432 306.953 12.432V6.432ZM305.484 6.02447C305.176 5.72757 305.057 5.45187 305.057 5.016H299.057C299.057 7.07613 299.835 8.91242 301.319 10.3435L305.484 6.02447ZM305.057 5.016C305.057 4.52616 305.19 4.28145 305.443 4.04638L301.36 -0.350382C299.821 1.07855 299.057 2.94584 299.057 5.016H305.057ZM305.446 4.04368C305.742 3.76748 306.161 3.552 306.953 3.552V-2.448C304.866 -2.448 302.916 -1.79949 301.357 -0.347684L305.446 4.04368ZM306.953 3.552C307.695 3.552 308.065 3.75479 308.327 4.00753L312.492 -0.311535C310.962 -1.78679 309.028 -2.448 306.953 -2.448V3.552ZM308.407 4.08171C308.681 4.32738 308.801 4.56223 308.801 5.016H314.801C314.801 2.90976 313.994 1.03261 312.412 -0.38571L308.407 4.08171ZM308.801 5.016C308.801 5.41618 308.695 5.68152 308.365 5.98832L312.454 10.3797C313.98 8.95847 314.801 7.11182 314.801 5.016H308.801ZM308.368 5.98562C308.111 6.22436 307.727 6.432 306.953 6.432V12.432C308.996 12.432 310.916 11.8076 312.451 10.3824L308.368 5.98562ZM308.033 12.216V39H314.033V12.216H308.033ZM311.033 36H302.825V42H311.033V36ZM305.825 39V12.216H299.825V39H305.825ZM302.825 15.216H311.033V9.216H302.825V15.216ZM335.27 32.04H338.27V29.04H335.27V32.04ZM335.27 39V42H338.27V39H335.27ZM324.134 36.84L322.146 39.087L322.158 39.0978L322.171 39.1085L324.134 36.84ZM321.638 19.032H324.638V16.032H321.638V19.032ZM318.374 19.032H315.374V22.032H318.374V19.032ZM318.374 12.216V9.216H315.374V12.216H318.374ZM321.638 12.216V15.216H324.638V12.216H321.638ZM321.638 5.688V2.688H318.638V5.688H321.638ZM329.846 5.688H332.846V2.688H329.846V5.688ZM329.846 12.216H326.846V15.216H329.846V12.216ZM335.222 12.216H338.222V9.216H335.222V12.216ZM335.222 19.032V22.032H338.222V19.032H335.222ZM329.846 19.032V16.032H326.846V19.032H329.846ZM330.422 31.512L328.394 33.7235L328.394 33.7235L330.422 31.512ZM332.27 32.04V39H338.27V32.04H332.27ZM335.27 36H331.094V42H335.27V36ZM331.094 36C328.583 36 327.049 35.3957 326.097 34.5715L322.171 39.1085C324.546 41.1643 327.652 42 331.094 42V36ZM326.121 34.593C325.36 33.9198 324.638 32.5452 324.638 29.688H318.638C318.638 33.4228 319.579 36.8162 322.146 39.087L326.121 34.593ZM324.638 29.688V19.032H318.638V29.688H324.638ZM321.638 16.032H318.374V22.032H321.638V16.032ZM321.374 19.032V12.216H315.374V19.032H321.374ZM318.374 15.216H321.638V9.216H318.374V15.216ZM324.638 12.216V5.688H318.638V12.216H324.638ZM321.638 8.688H329.846V2.688H321.638V8.688ZM326.846 5.688V12.216H332.846V5.688H326.846ZM329.846 15.216H335.222V9.216H329.846V15.216ZM332.222 12.216V19.032H338.222V12.216H332.222ZM335.222 16.032H329.846V22.032H335.222V16.032ZM326.846 19.032V29.784H332.846V19.032H326.846ZM326.846 29.784C326.846 30.9779 327.124 32.5588 328.394 33.7235L332.449 29.3005C332.691 29.5222 332.797 29.7523 332.836 29.8673C332.868 29.9648 332.846 29.9578 332.846 29.784H326.846ZM328.394 33.7235C329.613 34.8405 331.193 35.04 332.342 35.04V29.04C332.214 29.04 332.122 29.0337 332.059 29.0265C331.996 29.0193 331.974 29.0124 331.985 29.0154C332.002 29.0199 332.207 29.079 332.449 29.3005L328.394 33.7235ZM332.342 35.04H335.27V29.04H332.342V35.04ZM367.058 15L364.835 17.0146L364.843 17.0233L364.851 17.0319L367.058 15ZM369.842 39V42H372.842V39H369.842ZM361.682 39H358.682V42H361.682V39ZM360.29 20.28L358.099 22.3295L358.099 22.3295L360.29 20.28ZM352.802 20.28L354.992 22.3295L354.992 22.3295L352.802 20.28ZM351.41 39V42H354.41V39H351.41ZM343.202 39H340.202V42H343.202V39ZM343.202 3.48V0.48H340.202V3.48H343.202ZM351.41 3.48H354.41V0.48H351.41V3.48ZM351.41 15.816H348.41V25.3031L353.864 17.5408L351.41 15.816ZM354.818 12.984L353.5 10.2888L353.5 10.2888L354.818 12.984ZM359.666 14.928C361.996 14.928 363.614 15.6679 364.835 17.0146L369.281 12.9854C366.789 10.2361 363.479 8.928 359.666 8.928V14.928ZM364.851 17.0319C366.06 18.3455 366.842 20.323 366.842 23.352H372.842C372.842 19.277 371.767 15.6865 369.265 12.9681L364.851 17.0319ZM366.842 23.352V39H372.842V23.352H366.842ZM369.842 36H361.682V42H369.842V36ZM364.682 39V24.456H358.682V39H364.682ZM364.682 24.456C364.682 22.1523 364.077 19.937 362.48 18.2305L358.099 22.3295C358.358 22.607 358.682 23.1757 358.682 24.456H364.682ZM362.48 18.2305C360.896 16.5368 358.804 15.792 356.546 15.792V21.792C357.424 21.792 357.827 22.0392 358.099 22.3295L362.48 18.2305ZM356.546 15.792C354.288 15.792 352.195 16.5368 350.611 18.2305L354.992 22.3295C355.264 22.0392 355.668 21.792 356.546 21.792V15.792ZM350.611 18.2305C349.014 19.937 348.41 22.1523 348.41 24.456H354.41C354.41 23.1757 354.733 22.607 354.992 22.3295L350.611 18.2305ZM348.41 24.456V39H354.41V24.456H348.41ZM351.41 36H343.202V42H351.41V36ZM346.202 39V3.48H340.202V39H346.202ZM343.202 6.48H351.41V0.48H343.202V6.48ZM348.41 3.48V15.816H354.41V3.48H348.41ZM353.864 17.5408C354.375 16.8143 355.1 16.1853 356.135 15.6792L353.5 10.2888C351.655 11.1907 350.108 12.4497 348.955 14.0912L353.864 17.5408ZM356.135 15.6792C357.119 15.1983 358.276 14.928 359.666 14.928V8.928C357.471 8.928 355.396 9.36167 353.5 10.2888L356.135 15.6792ZM400.501 5.304H403.501V2.304H400.501V5.304ZM401.989 30.12L399.772 32.1413L399.772 32.1413L401.989 30.12ZM410.773 30.12L412.958 32.1761L412.958 32.1761L410.773 30.12ZM412.309 5.304V2.304H409.309V5.304H412.309ZM420.517 5.304H423.517V2.304H420.517V5.304ZM418.597 33.048L421.152 34.6203L421.152 34.6203L418.597 33.048ZM413.413 37.752L412.103 35.053L412.096 35.0569L412.088 35.0607L413.413 37.752ZM399.061 37.8L397.703 40.475L397.728 40.4874L397.752 40.4994L399.061 37.8ZM394.117 33.096L391.517 34.5929L391.522 34.6015L391.527 34.6101L394.117 33.096ZM392.293 5.304V2.304H389.293V5.304H392.293ZM397.501 5.304V25.464H403.501V5.304H397.501ZM397.501 25.464C397.501 27.9491 398.116 30.3245 399.772 32.1413L404.206 28.0987C403.879 27.7395 403.501 27.0109 403.501 25.464H397.501ZM399.772 32.1413C401.493 34.0283 403.865 34.752 406.357 34.752V28.752C405.01 28.752 404.47 28.3877 404.206 28.0987L399.772 32.1413ZM406.357 34.752C408.855 34.752 411.216 34.0266 412.958 32.1761L408.589 28.0639C408.282 28.3894 407.699 28.752 406.357 28.752V34.752ZM412.958 32.1761C414.666 30.3609 415.309 27.9721 415.309 25.464H409.309C409.309 26.9879 408.928 27.7031 408.589 28.0639L412.958 32.1761ZM415.309 25.464V5.304H409.309V25.464H415.309ZM412.309 8.304H420.517V2.304H412.309V8.304ZM417.517 5.304V25.416H423.517V5.304H417.517ZM417.517 25.416C417.517 27.9972 416.971 29.9671 416.042 31.4757L421.152 34.6203C422.784 31.9689 423.517 28.8508 423.517 25.416H417.517ZM416.042 31.4757C415.059 33.0743 413.76 34.249 412.103 35.053L414.723 40.451C417.418 39.143 419.576 37.1817 421.152 34.6203L416.042 31.4757ZM412.088 35.0607C410.4 35.8919 408.461 36.336 406.213 36.336V42.336C409.277 42.336 412.138 41.7241 414.739 40.4433L412.088 35.0607ZM406.213 36.336C403.951 36.336 402.023 35.9022 400.37 35.1006L397.752 40.4994C400.323 41.7458 403.164 42.336 406.213 42.336V36.336ZM400.419 35.125C398.87 34.3386 397.643 33.182 396.707 31.5819L391.527 34.6101C393.024 37.17 395.092 39.1494 397.703 40.475L400.419 35.125ZM396.717 31.5991C395.818 30.0377 395.293 28.0207 395.293 25.416H389.293C389.293 28.8273 389.984 31.9303 391.517 34.5929L396.717 31.5991ZM395.293 25.416V5.304H389.293V25.416H395.293ZM392.293 8.304H400.501V2.304H392.293V8.304ZM434.297 38.184L435.502 35.4366L435.502 35.4366L434.297 38.184ZM429.977 34.92L427.577 36.72L427.587 36.7333L427.597 36.7465L429.977 34.92ZM428.201 30.216V27.216H424.971L425.209 30.4376L428.201 30.216ZM436.313 30.216L439.297 29.9073L439.019 27.216H436.313V30.216ZM437.609 32.472L439.409 30.072L439.409 30.072L437.609 32.472ZM442.793 32.76L444.523 35.2109L444.536 35.2015L444.549 35.192L442.793 32.76ZM442.457 29.496L441.159 32.2006L441.203 32.222L441.249 32.2419L442.457 29.496ZM438.569 28.248L439.297 25.3376L439.274 25.3318L439.251 25.3265L438.569 28.248ZM433.769 26.856L432.655 29.6414L432.685 29.6535L432.716 29.665L433.769 26.856ZM430.457 24.504L428.175 26.4508L428.189 26.4677L428.204 26.4843L430.457 24.504ZM430.313 15.96L427.826 14.2816L427.822 14.2887L427.817 14.2959L430.313 15.96ZM434.057 12.936L432.843 10.1924L432.834 10.1968L432.824 10.2012L434.057 12.936ZM447.881 14.328L445.916 16.5951L445.925 16.6031L445.935 16.611L447.881 14.328ZM451.241 20.952V23.952H454.571L454.225 20.6398L451.241 20.952ZM443.657 20.952L440.685 21.3619L441.042 23.952H443.657V20.952ZM442.409 18.744L440.521 21.0757L440.548 21.0971L440.575 21.1179L442.409 18.744ZM437.513 18.504L439.213 20.9761L439.264 20.9411L439.313 20.904L437.513 18.504ZM437.945 21.72L436.647 24.4246L436.667 24.4344L436.688 24.4439L437.945 21.72ZM441.785 22.872L442.535 19.9672L442.485 19.9545L442.436 19.9434L441.785 22.872ZM446.633 24.408L445.494 27.1835L445.525 27.1961L445.556 27.208L446.633 24.408ZM449.897 26.808L447.587 28.7221L447.617 28.7579L447.647 28.7929L449.897 26.808ZM451.385 31.224H454.385V31.1981L454.385 31.1723L451.385 31.224ZM450.041 35.448L447.604 33.6984L447.6 33.7044L447.595 33.7104L450.041 35.448ZM446.249 38.328L445.08 35.5651L445.07 35.5692L445.061 35.5734L446.249 38.328ZM440.537 36.384C438.545 36.384 436.886 36.0437 435.502 35.4366L433.092 40.9314C435.356 41.9243 437.857 42.384 440.537 42.384V36.384ZM435.502 35.4366C434.072 34.8093 433.062 34.0124 432.357 33.0935L427.597 36.7465C429.004 38.5796 430.874 39.9587 433.092 40.9314L435.502 35.4366ZM432.377 33.12C431.659 32.1631 431.278 31.141 431.193 29.9944L425.209 30.4376C425.38 32.747 426.183 34.8609 427.577 36.72L432.377 33.12ZM428.201 33.216H436.313V27.216H428.201V33.216ZM433.329 30.5247C433.514 32.3113 434.394 33.8108 435.809 34.872L439.409 30.072C439.36 30.0353 439.334 30.0088 439.322 29.9957C439.311 29.9831 439.309 29.9786 439.31 29.9816C439.312 29.9848 439.312 29.9856 439.31 29.9795C439.308 29.9729 439.302 29.9506 439.297 29.9073L433.329 30.5247ZM435.809 34.872C437.179 35.8998 438.784 36.336 440.441 36.336V30.336C439.858 30.336 439.575 30.1962 439.409 30.072L435.809 34.872ZM440.441 36.336C441.773 36.336 443.267 36.0974 444.523 35.2109L441.063 30.3091C441.155 30.2439 441.186 30.253 441.083 30.2781C440.978 30.304 440.774 30.336 440.441 30.336V36.336ZM444.549 35.192C445.807 34.2841 446.657 32.8961 446.657 31.176H440.657C440.657 31.0272 440.696 30.8204 440.807 30.6154C440.913 30.4213 441.027 30.335 441.037 30.328L444.549 35.192ZM446.657 31.176C446.657 30.2425 446.403 29.2835 445.798 28.4363C445.211 27.6138 444.427 27.0855 443.665 26.7501L441.249 32.2419C441.287 32.2585 441.103 32.1862 440.916 31.9237C440.711 31.6365 440.657 31.3415 440.657 31.176H446.657ZM443.755 26.7914C442.666 26.2686 441.122 25.7939 439.297 25.3376L437.841 31.1584C439.6 31.5981 440.648 31.9554 441.159 32.2006L443.755 26.7914ZM439.251 25.3265C437.407 24.8963 435.941 24.4665 434.822 24.047L432.716 29.665C434.157 30.2055 435.891 30.7037 437.887 31.1695L439.251 25.3265ZM434.883 24.0706C434.05 23.7372 433.334 23.2327 432.711 22.5237L428.204 26.4843C429.436 27.8873 430.928 28.9508 432.655 29.6414L434.883 24.0706ZM432.74 22.5572C432.39 22.148 432.065 21.4479 432.065 20.136H426.065C426.065 22.4721 426.668 24.684 428.175 26.4508L432.74 22.5572ZM432.065 20.136C432.065 19.1771 432.314 18.3669 432.809 17.6241L427.817 14.2959C426.648 16.0491 426.065 18.0229 426.065 20.136H432.065ZM432.8 17.6384C433.305 16.8895 434.084 16.2149 435.29 15.6708L432.824 10.2012C430.766 11.1291 429.049 12.4704 427.826 14.2816L432.8 17.6384ZM435.271 15.6796C436.47 15.1492 438.006 14.832 439.961 14.832V8.832C437.372 8.832 434.972 9.25083 432.843 10.1924L435.271 15.6796ZM439.961 14.832C442.835 14.832 444.697 15.5384 445.916 16.5951L449.846 12.0609C447.225 9.78963 443.807 8.832 439.961 8.832V14.832ZM445.935 16.611C447.252 17.7341 448.043 19.2119 448.257 21.2642L454.225 20.6398C453.864 17.1881 452.414 14.2499 449.827 12.045L445.935 16.611ZM451.241 17.952H443.657V23.952H451.241V17.952ZM446.629 20.5421C446.4 18.8814 445.605 17.422 444.243 16.3701L440.575 21.1179C440.604 21.1406 440.619 21.1563 440.625 21.1635C440.631 21.1705 440.635 21.1753 440.637 21.1802C440.64 21.1848 440.667 21.2324 440.685 21.3619L446.629 20.5421ZM444.297 16.4123C442.95 15.3222 441.323 14.928 439.721 14.928V20.928C440.042 20.928 440.245 20.9673 440.362 21.0026C440.47 21.0356 440.51 21.0668 440.521 21.0757L444.297 16.4123ZM439.721 14.928C438.42 14.928 436.946 15.1791 435.713 16.104L439.313 20.904C439.205 20.9854 439.146 20.9907 439.206 20.9749C439.272 20.9576 439.433 20.928 439.721 20.928V14.928ZM435.813 16.0319C434.459 16.9633 433.745 18.3996 433.745 19.992H439.745C439.745 20.0801 439.725 20.2799 439.603 20.5159C439.479 20.7553 439.317 20.9042 439.213 20.9761L435.813 16.0319ZM433.745 19.992C433.745 20.9267 433.999 21.8729 434.581 22.7112C435.146 23.5245 435.901 24.0665 436.647 24.4246L439.243 19.0154C439.189 18.9895 439.344 19.0515 439.509 19.2888C439.691 19.5511 439.745 19.8253 439.745 19.992H433.745ZM436.688 24.4439C437.819 24.9659 439.352 25.4046 441.134 25.8006L442.436 19.9434C440.762 19.5714 439.735 19.2421 439.202 18.9961L436.688 24.4439ZM441.035 25.7768C442.947 26.2702 444.42 26.7427 445.494 27.1835L447.772 21.6325C446.35 21.0493 444.591 20.4978 442.535 19.9672L441.035 25.7768ZM445.556 27.208C446.282 27.4874 446.958 27.9625 447.587 28.7221L452.207 24.8939C450.98 23.4135 449.48 22.2886 447.71 21.608L445.556 27.208ZM447.647 28.7929C448.016 29.2108 448.362 29.9288 448.385 31.2757L454.385 31.1723C454.344 28.8072 453.698 26.5812 452.147 24.8231L447.647 28.7929ZM448.385 31.224C448.385 32.1781 448.126 32.9715 447.604 33.6984L452.478 37.1976C453.748 35.4285 454.385 33.4059 454.385 31.224H448.385ZM447.595 33.7104C447.116 34.3854 446.34 35.0319 445.08 35.5651L447.418 41.0909C449.486 40.2161 451.238 38.9426 452.487 37.1856L447.595 33.7104ZM445.061 35.5734C443.878 36.0835 442.394 36.384 440.537 36.384V42.384C443.032 42.384 445.356 41.9805 447.437 41.0826L445.061 35.5734Z" fill="#D1EDFF" mask="url(#path-1-outside-1_81_97)"/>
</svg>
